<svg width="50" height="49" viewBox="0 0 50 49" fill="none" xmlns="http://www.w3.org/2000/svg">
<g id="Frame 2087328767">
<g id="Group">
<path id="Vector" d="M38.8357 48.2479C43.2096 47.8138 46.8264 45.2119 48.1901 40.9739C48.7523 39.2256 49.0028 37.2702 48.8859 35.4205C48.828 34.5024 48.8592 33.434 48.8413 32.7218C48.7378 28.4449 48.8091 24.7022 48.8013 18.7482C48.8002 17.3971 48.8391 16.0761 48.8759 14.7395C48.8848 14.4101 48.956 14.005 48.9516 13.6321C48.9449 12.9555 49.0595 12.1754 48.9605 11.6256C48.7445 10.4337 48.5463 9.08482 48.2157 8.04648C46.5347 2.75018 41.7112 0.483196 36.4367 0.554422C29.3692 0.64939 22.9637 0.656067 17.2203 0.574454C14.9994 0.543293 13.2494 0.384148 11.348 0.656809C10.6779 0.753261 10.0121 0.876422 9.35089 1.02629C4.89911 2.0357 1.72643 5.76058 1.25999 10.2923C1.2444 10.4414 1.19765 10.6488 1.11972 10.9144C1.00951 11.2928 1.00951 12.024 1.02732 12.5504C1.07074 13.7401 1.00172 15.1657 1.00172 16.1117C1.00023 21.9277 1.00098 27.7441 1.00395 33.5609C1.00395 34.587 1.06628 35.8301 1.06183 36.9664C1.05961 37.4138 1.09226 37.827 1.1598 38.2061C1.32826 39.1551 1.50712 39.9794 1.69637 40.679C2.65485 44.2114 5.53253 46.938 9.0737 47.8572C9.94758 48.0843 10.9016 48.1989 11.8523 48.3792C12.3276 48.4693 12.901 48.3469 13.2249 48.3458C19.9443 48.3146 26.6634 48.3098 33.382 48.3313C33.831 48.3328 34.4889 48.3629 35.3558 48.4215C35.8868 48.4571 38.4182 48.6363 38.7433 48.2935C38.7677 48.2676 38.8005 48.2514 38.8357 48.2479Z" stroke="#E7E7E7" stroke-width="0.185537"/>
<path id="Vector_2" d="M33.9747 48.0687C35.0834 48.0531 36.2212 47.9451 37.3466 47.9195C41.2629 47.8294 44.5002 46.4794 46.6866 43.2542C48.3664 40.7769 48.5212 37.5284 48.4978 34.6159C48.4878 33.3628 48.5657 32.1119 48.5646 30.8587V16.9074C48.5646 16.4533 48.5056 15.8991 48.5111 15.3972C48.5223 14.4167 48.4811 13.6421 48.4688 12.6684C48.4121 8.40927 47.1207 4.71444 43.338 2.49531C41.8374 1.61501 40.1519 1.21325 38.4064 1.0886C36.6794 0.965442 35.1766 0.900522 33.8979 0.893845C28.9462 0.868619 23.9946 0.870103 19.043 0.898296C16.3568 0.912764 13.6717 0.886054 10.9666 1.15093C6.64951 1.57383 3.13618 4.4006 2.01517 8.59847C1.8749 9.12302 1.75764 9.85456 1.66339 10.7931C1.4875 12.5304 1.50865 13.8146 1.51199 15.3326C1.52646 21.8876 1.62109 28.4615 1.50086 35.0154C1.42071 39.3535 2.14653 43.2053 5.78677 45.8729C7.7093 47.2818 9.85671 47.7392 12.1845 47.9173C12.9904 47.9785 14.2161 48.1443 15.2703 48.0765C15.3939 48.0687 15.513 48.1121 15.641 48.1121C21.7504 48.111 27.8664 48.1566 33.9747 48.0687Z" stroke="#E7E7E7" stroke-width="0.185537"/>
<path id="Vector_3" d="M19.9314 12.272C19.2434 13.8434 19.1477 15.4571 19.6442 17.1131" stroke="#FFA7C0" stroke-width="0.185537"/>
<path id="Vector_4" d="M19.6436 17.1133C20.0948 18.7136 20.8291 20.1712 21.8466 21.4859" stroke="#FF9EA9" stroke-width="0.185537"/>
<path id="Vector_5" d="M21.8467 21.4861C23.5577 23.8009 26.1448 25.7563 28.6585 27.2464C29.2233 27.5818 29.7572 27.827 30.2604 27.9821C30.2946 27.9922 30.3313 27.9922 30.3662 27.9821C30.8508 27.8344 31.3113 27.6315 31.7477 27.3733C34.6499 25.6617 37.5843 23.4414 39.4122 20.5356" stroke="#FF9795" stroke-width="0.185537"/>
<path id="Vector_6" d="M39.4131 20.5353C40.2205 19.3437 40.7835 18.0454 41.1018 16.6401" stroke="#FF9EA9" stroke-width="0.185537"/>
<path id="Vector_7" d="M41.1012 16.6405C41.8738 13.3429 40.1528 9.85621 36.7686 8.98926" stroke="#FFA7C0" stroke-width="0.185537"/>
<path id="Vector_8" d="M36.7691 8.98901C35.0266 8.54682 33.4057 8.75975 31.9066 9.62782C31.4156 9.91272 30.8869 10.3757 30.3803 10.7496C30.367 10.7596 30.3511 10.7655 30.3346 10.7667C30.318 10.7678 30.3014 10.7642 30.2868 10.7563C29.7224 10.4525 29.2048 9.93275 28.7562 9.67011C25.5612 7.80043 21.5414 8.84656 19.9316 12.2721" stroke="#FFAECF" stroke-width="0.185537"/>
<path id="Vector_9" d="M36.7691 8.98926L36.7535 9.06716C36.7502 9.08261 36.7527 9.09873 36.7605 9.11248C36.7683 9.12622 36.7809 9.13663 36.7958 9.14173C38.4071 9.69818 39.632 10.7139 40.4706 12.1889C40.4797 12.2045 40.4842 12.2224 40.4836 12.2405C40.483 12.2586 40.4773 12.2762 40.4673 12.2912C40.1177 12.8243 39.5043 12.9356 38.9076 12.9389C34.7453 12.9634 30.5796 12.9022 26.4184 12.93C24.3456 12.9441 22.2731 12.9423 20.201 12.9245C20.1852 12.9245 20.1697 12.9207 20.1557 12.9133C20.1417 12.9059 20.1298 12.8952 20.1209 12.8822L20.0764 12.8188C20.0689 12.8082 20.0643 12.7959 20.0629 12.783C20.0615 12.7702 20.0635 12.7572 20.0686 12.7453C20.1576 12.5398 20.112 12.3821 19.9316 12.2723" stroke="#FF5690" stroke-width="0.185537"/>
<path id="Vector_10" d="M41.1009 16.6401C41.0571 16.744 40.9848 16.8067 40.8838 16.8282C40.8674 16.832 40.8521 16.8396 40.8395 16.8505C40.8269 16.8614 40.8172 16.8752 40.8115 16.8905C40.6857 17.22 40.2226 17.3223 39.8808 17.4158C39.7955 17.4396 39.797 17.4503 39.8853 17.4481L39.9899 17.4459C40.0456 17.4444 40.0474 17.4537 39.9955 17.4737C39.9343 17.4982 39.8485 17.5382 39.7851 17.5416C37.9806 17.6373 36.0168 17.5338 34.3982 17.5327C30.1687 17.529 27.4298 17.5305 26.1815 17.5371C24.5261 17.546 23.4185 17.4492 21.4982 17.4437C21.4897 17.4436 21.4815 17.4409 21.4748 17.4359C21.468 17.4309 21.4629 17.4239 21.4603 17.4158C21.4551 17.4002 21.4447 17.3921 21.4292 17.3913C20.9794 17.3646 20.5315 17.316 20.0855 17.2456C20.079 17.2445 20.0724 17.2449 20.0661 17.2468C20.0598 17.2488 20.0541 17.2521 20.0493 17.2567C20.0446 17.2612 20.0409 17.2668 20.0387 17.273C20.0365 17.2792 20.0357 17.2858 20.0365 17.2923L20.0477 17.3769C20.0521 17.4117 20.0421 17.4169 20.0176 17.3925L19.687 17.063C19.6662 17.0423 19.6536 17.0463 19.6491 17.0753L19.6436 17.1131" stroke="#FF466A" stroke-width="0.185537"/>
<path id="Vector_11" d="M39.4122 20.5352C39.361 20.4862 39.3035 20.4669 39.2397 20.4773C39.2211 20.4805 39.2034 20.4876 39.1877 20.4981C39.1719 20.5086 39.1585 20.5224 39.1484 20.5385C38.6014 21.4022 37.9572 22.1856 37.2158 22.889C37.189 22.9144 37.1549 22.9311 37.1179 22.9369C36.8229 22.9803 36.5067 22.8923 36.2551 22.9046C35.6377 22.9343 35.2621 22.948 35.1285 22.9458C31.7265 22.8975 29.1279 22.873 27.3326 22.8723C26.4109 22.8723 25.1919 23.017 24.0731 22.8612C23.8727 22.8333 23.7002 22.8612 23.5076 22.8912C23.493 22.8933 23.4781 22.8922 23.4638 22.888C23.4496 22.8838 23.4364 22.8765 23.4252 22.8667C22.9169 22.4253 22.4738 21.926 22.096 21.3688C22.0864 21.3544 22.072 21.3439 22.0551 21.339C22.0383 21.3341 22.0201 21.3352 22.0036 21.3421C21.9346 21.3725 21.8823 21.4203 21.8467 21.4856" stroke="#FF363E" stroke-width="0.185537"/>
</g>
<path id="Vector_12" d="M38.7423 48.2935C38.4173 48.6363 35.8858 48.4571 35.3548 48.4215C34.488 48.3629 33.83 48.3328 33.381 48.3313C26.6624 48.3098 19.9433 48.3146 13.2239 48.3458C12.9 48.3469 12.3267 48.4693 11.8513 48.3792C10.9006 48.1989 9.9466 48.0843 9.07272 47.8572C5.53156 46.938 2.65388 44.2114 1.69539 40.679C1.50615 39.9794 1.32729 39.1551 1.15882 38.2061C1.09128 37.827 1.05863 37.4138 1.06086 36.9664C1.06531 35.8301 1.00297 34.587 1.00297 33.5609C1 27.7441 0.999258 21.9277 1.00074 16.1117C1.00074 15.1657 1.06976 13.7401 1.02635 12.5504C1.00853 12.024 1.00853 11.2928 1.11874 10.9144C1.19667 10.6488 1.24343 10.4414 1.25901 10.2923C1.72545 5.76058 4.89813 2.0357 9.34991 1.02629C10.0112 0.876422 10.6769 0.753261 11.347 0.656809C13.2484 0.384148 14.9984 0.543293 17.2193 0.574454C22.9628 0.656067 29.3682 0.64939 36.4357 0.554422C41.7102 0.483196 46.5338 2.75018 48.2147 8.04648C48.5454 9.08482 48.7435 10.4337 48.9595 11.6256C49.0586 12.1754 48.9439 12.9555 48.9506 13.6321C48.955 14.005 48.8838 14.4101 48.8749 14.7395C48.8381 16.0761 48.7992 17.3971 48.8003 18.7482C48.8081 24.7022 48.7368 28.4449 48.8404 32.7218C48.8582 33.434 48.827 34.5024 48.8849 35.4205C49.0018 37.2702 48.7513 39.2256 48.1891 40.9739C46.8254 45.2119 43.2086 47.8138 38.8347 48.2479C38.7995 48.2514 38.7667 48.2676 38.7423 48.2935ZM33.9733 48.0687C35.0821 48.0531 36.2198 47.9451 37.3452 47.9196C41.2616 47.8294 44.4988 46.4795 46.6852 43.2543C48.365 40.7769 48.5198 37.5284 48.4964 34.6159C48.4864 33.3628 48.5643 32.1119 48.5632 30.8588V16.9074C48.5632 16.4533 48.5042 15.8991 48.5097 15.3972C48.5209 14.4167 48.4797 13.6422 48.4674 12.6684C48.4107 8.40929 47.1193 4.71445 43.3366 2.49532C41.836 1.61502 40.1506 1.21326 38.405 1.08862C36.678 0.965454 35.1752 0.900535 33.8965 0.893857C28.9449 0.868632 23.9932 0.870116 19.0416 0.898309C16.3554 0.912777 13.6703 0.886067 10.9652 1.15094C6.64812 1.57384 3.13479 4.40061 2.01378 8.59848C1.87351 9.12303 1.75625 9.85458 1.662 10.7931C1.48611 12.5304 1.50726 13.8147 1.5106 15.3327C1.52507 21.8876 1.61969 28.4616 1.49947 35.0154C1.41931 39.3535 2.14513 43.2053 5.78537 45.8729C7.70791 47.2819 9.85531 47.7393 12.1831 47.9173C12.989 47.9785 14.2147 48.1444 15.2689 48.0765C15.3925 48.0687 15.5116 48.1121 15.6396 48.1121C21.749 48.111 27.865 48.1566 33.9733 48.0687Z" fill="#CECECE"/>
<path id="Vector_13" d="M33.9737 48.0687C27.8654 48.1566 21.7494 48.111 15.64 48.1121C15.512 48.1121 15.3929 48.0687 15.2693 48.0765C14.2151 48.1443 12.9895 47.9785 12.1835 47.9173C9.85573 47.7392 7.70832 47.2818 5.78579 45.8729C2.14555 43.2053 1.41973 39.3535 1.49988 35.0154C1.62011 28.4615 1.52549 21.8876 1.51101 15.3326C1.50768 13.8146 1.48652 12.5304 1.66241 10.7931C1.75667 9.85456 1.87393 9.12302 2.01419 8.59847C3.13521 4.4006 6.64854 1.57383 10.9656 1.15093C13.6707 0.886054 16.3558 0.912764 19.042 0.898296C23.9937 0.870103 28.9453 0.868619 33.8969 0.893845C35.1756 0.900522 36.6785 0.965442 38.4054 1.0886C40.151 1.21325 41.8364 1.61501 43.337 2.49531C47.1197 4.71444 48.4111 8.40927 48.4679 12.6684C48.4801 13.6421 48.5213 14.4167 48.5102 15.3972C48.5046 15.8991 48.5636 16.4533 48.5636 16.9074V30.8587C48.5647 32.1119 48.4868 33.3628 48.4968 34.6159C48.5202 37.5284 48.3654 40.7769 46.6856 43.2542C44.4992 46.4794 41.262 47.8294 37.3456 47.9195C36.2202 47.9451 35.0825 48.0531 33.9737 48.0687ZM19.9304 12.2722C19.2424 13.8436 19.1467 15.4573 19.6432 17.1133C20.0944 18.7136 20.8288 20.1712 21.8463 21.4859C23.5573 23.8007 26.1444 25.7561 28.6581 27.2463C29.2228 27.5816 29.7568 27.8268 30.26 27.9819C30.2941 27.9921 30.3309 27.9921 30.3657 27.9819C30.8504 27.8342 31.3109 27.6313 31.7473 27.3731C34.6494 25.6615 37.5839 23.4412 39.4118 20.5355C40.2192 19.3439 40.7822 18.0455 41.1005 16.6403C41.8731 13.3428 40.1521 9.85605 36.7679 8.9891C35.0253 8.5469 33.4045 8.75984 31.9053 9.6279C31.4144 9.91281 30.8856 10.3758 30.3791 10.7497C30.3658 10.7597 30.3499 10.7656 30.3333 10.7667C30.3168 10.7679 30.3002 10.7643 30.2856 10.7564C29.7212 10.4526 29.2035 9.93284 28.7549 9.67019C25.56 7.80052 21.5401 8.84665 19.9304 12.2722Z" fill="white"/>
<path id="Vector_14" d="M36.7691 8.98901L36.7535 9.06691C36.7502 9.08237 36.7527 9.09849 36.7605 9.11223C36.7683 9.12597 36.7809 9.13638 36.7958 9.14148C38.4071 9.69793 39.632 10.7136 40.4706 12.1886C40.4797 12.2043 40.4842 12.2222 40.4836 12.2403C40.483 12.2584 40.4773 12.2759 40.4673 12.291C40.1177 12.8241 39.5043 12.9354 38.9076 12.9387C34.7453 12.9632 30.5796 12.902 26.4184 12.9298C24.3456 12.9439 22.2731 12.942 20.201 12.9242C20.1852 12.9243 20.1697 12.9204 20.1557 12.913C20.1417 12.9057 20.1298 12.895 20.1209 12.8819L20.0764 12.8185C20.0689 12.808 20.0643 12.7957 20.0629 12.7828C20.0615 12.7699 20.0635 12.7569 20.0686 12.7451C20.1576 12.5395 20.112 12.3819 19.9316 12.2721C21.5414 8.84656 25.5612 7.80043 28.7562 9.67011C29.2048 9.93275 29.7224 10.4525 30.2868 10.7563C30.3014 10.7642 30.318 10.7678 30.3346 10.7667C30.3511 10.7655 30.367 10.7596 30.3803 10.7496C30.8869 10.3757 31.4156 9.91272 31.9066 9.62782C33.4057 8.75975 35.0266 8.54682 36.7691 8.98901Z" fill="#FF5C9F"/>
<path id="Vector_15" d="M36.7689 8.98877C40.1531 9.85572 41.8741 13.3424 41.1016 16.64C41.0578 16.7438 40.9854 16.8065 40.8845 16.8281C40.868 16.8318 40.8528 16.8395 40.8402 16.8504C40.8275 16.8612 40.8179 16.875 40.8121 16.8904C40.6863 17.2198 40.2232 17.3222 39.8815 17.4157C39.7961 17.4394 39.7976 17.4502 39.8859 17.4479L39.9906 17.4457C40.0462 17.4442 40.0481 17.4535 39.9961 17.4735C39.9349 17.498 39.8492 17.5381 39.7857 17.5414C37.9812 17.6371 36.0175 17.5336 34.3989 17.5325C30.1694 17.5288 27.4305 17.5303 26.1822 17.537C24.5268 17.5459 23.4191 17.4491 21.4988 17.4435C21.4904 17.4434 21.4822 17.4407 21.4754 17.4357C21.4686 17.4307 21.4636 17.4237 21.461 17.4157C21.4558 17.4001 21.4454 17.3919 21.4298 17.3912C20.9801 17.3645 20.5322 17.3159 20.0862 17.2454C20.0797 17.2443 20.073 17.2447 20.0667 17.2467C20.0605 17.2486 20.0547 17.252 20.05 17.2565C20.0452 17.261 20.0416 17.2666 20.0394 17.2728C20.0371 17.279 20.0364 17.2856 20.0372 17.2921L20.0483 17.3767C20.0528 17.4116 20.0427 17.4168 20.0183 17.3923L19.6876 17.0629C19.6668 17.0421 19.6542 17.0462 19.6498 17.0751L19.6442 17.113C19.1477 15.457 19.2434 13.8432 19.9314 12.2718C20.1118 12.3816 20.1574 12.5393 20.0683 12.7448C20.0633 12.7567 20.0613 12.7697 20.0627 12.7826C20.064 12.7954 20.0687 12.8077 20.0761 12.8183L20.1207 12.8817C20.1296 12.8948 20.1415 12.9054 20.1555 12.9128C20.1695 12.9202 20.185 12.924 20.2008 12.924C22.2729 12.9418 24.3453 12.9437 26.4182 12.9296C30.5794 12.9017 34.7451 12.9629 38.9074 12.9385C39.5041 12.9351 40.1175 12.8238 40.467 12.2908C40.4771 12.2757 40.4828 12.2581 40.4834 12.24C40.484 12.2219 40.4795 12.204 40.4704 12.1884C39.6318 10.7134 38.4068 9.69769 36.7956 9.14124C36.7807 9.13614 36.7681 9.12573 36.7603 9.11199C36.7525 9.09825 36.75 9.08212 36.7533 9.06667L36.7689 8.98877Z" fill="#FF4F81"/>
<path id="Vector_16" d="M41.1019 16.6396C40.7835 18.0449 40.2206 19.3433 39.4131 20.5348C39.3619 20.4858 39.3044 20.4665 39.2406 20.4769C39.222 20.4801 39.2043 20.4872 39.1886 20.4977C39.1728 20.5082 39.1595 20.522 39.1493 20.5381C38.6023 21.4018 37.9582 22.1852 37.2167 22.8886C37.1899 22.914 37.1558 22.9307 37.1188 22.9365C36.8238 22.9799 36.5076 22.8919 36.256 22.9042C35.6386 22.9339 35.263 22.9476 35.1295 22.9454C31.7274 22.8971 29.1288 22.8726 27.3336 22.8719C26.4118 22.8719 25.1928 23.0166 24.074 22.8608C23.8737 22.8329 23.7011 22.8608 23.5085 22.8908C23.4939 22.8929 23.479 22.8918 23.4648 22.8876C23.4505 22.8834 23.4374 22.8761 23.4261 22.8663C22.9178 22.4249 22.4747 21.9256 22.097 21.3684C22.0874 21.354 22.0729 21.3435 22.056 21.3386C22.0392 21.3337 22.021 21.3348 22.0046 21.3417C21.9355 21.3721 21.8832 21.4199 21.8476 21.4852C20.8301 20.1705 20.0958 18.713 19.6445 17.1126L19.6501 17.0748C19.6546 17.0459 19.6672 17.0418 19.6879 17.0626L20.0186 17.392C20.0431 17.4165 20.0531 17.4113 20.0486 17.3764L20.0375 17.2918C20.0367 17.2853 20.0375 17.2787 20.0397 17.2725C20.0419 17.2663 20.0455 17.2607 20.0503 17.2562C20.055 17.2517 20.0608 17.2483 20.0671 17.2464C20.0734 17.2444 20.08 17.244 20.0865 17.2451C20.5325 17.3156 20.9804 17.3641 21.4301 17.3909C21.4457 17.3916 21.4561 17.3998 21.4613 17.4153C21.4639 17.4234 21.4689 17.4304 21.4757 17.4354C21.4825 17.4404 21.4907 17.4431 21.4992 17.4432C23.4195 17.4487 24.5271 17.5456 26.1825 17.5366C27.4308 17.53 30.1697 17.5285 34.3992 17.5322C36.0178 17.5333 37.9815 17.6368 39.7861 17.5411C39.8495 17.5378 39.9352 17.4977 39.9965 17.4732C40.0484 17.4532 40.0466 17.4439 39.9909 17.4454L39.8863 17.4476C39.7979 17.4498 39.7965 17.4391 39.8818 17.4153C40.2236 17.3219 40.6867 17.2195 40.8125 16.8901C40.8182 16.8747 40.8279 16.8609 40.8405 16.85C40.8531 16.8392 40.8683 16.8315 40.8848 16.8277C40.9858 16.8062 41.0581 16.7435 41.1019 16.6396Z" fill="#FF3D52"/>
<path id="Vector_17" d="M39.4132 20.5352C37.5853 23.441 34.6508 25.6612 31.7487 27.3729C31.3123 27.6311 30.8518 27.834 30.3671 27.9816C30.3323 27.9918 30.2955 27.9918 30.2614 27.9816C29.7582 27.8266 29.2242 27.5814 28.6595 27.246C26.1458 25.7558 23.5587 23.8005 21.8477 21.4856C21.8833 21.4203 21.9356 21.3725 22.0046 21.3421C22.021 21.3352 22.0392 21.3341 22.0561 21.339C22.073 21.3439 22.0874 21.3544 22.097 21.3688C22.4748 21.926 22.9178 22.4253 23.4262 22.8667C23.4374 22.8765 23.4506 22.8838 23.4648 22.888C23.479 22.8922 23.494 22.8933 23.5086 22.8912C23.7012 22.8612 23.8737 22.8333 24.0741 22.8612C25.1929 23.017 26.4119 22.8723 27.3336 22.8723C29.1289 22.873 31.7275 22.8975 35.1295 22.9458C35.2631 22.948 35.6386 22.9343 36.2561 22.9046C36.5077 22.8923 36.8238 22.9803 37.1188 22.9369C37.1558 22.9311 37.19 22.9144 37.2168 22.889C37.9582 22.1856 38.6024 21.4022 39.1494 20.5385C39.1595 20.5224 39.1729 20.5086 39.1886 20.4981C39.2044 20.4876 39.2221 20.4805 39.2406 20.4773C39.3045 20.4669 39.362 20.4862 39.4132 20.5352Z" fill="#FE2E2A"/>
</g>
</svg>
