<svg width="28" height="29" viewBox="0 0 28 29" fill="none" xmlns="http://www.w3.org/2000/svg">
<g id="eos-icons:activate-subscriptions">
<path id="Vector" d="M4.66665 7.50004H23.3333V9.83337H4.66665V7.50004ZM6.99998 2.83337H21V5.16671H6.99998V2.83337ZM23.3333 12.1667H4.66665C4.04781 12.1667 3.45432 12.4125 3.01673 12.8501C2.57915 13.2877 2.33331 13.8812 2.33331 14.5V23.8334C2.33331 24.4522 2.57915 25.0457 3.01673 25.4833C3.45432 25.9209 4.04781 26.1667 4.66665 26.1667H23.3333C23.9522 26.1667 24.5456 25.9209 24.9832 25.4833C25.4208 25.0457 25.6666 24.4522 25.6666 23.8334V14.5C25.6666 13.8812 25.4208 13.2877 24.9832 12.8501C24.5456 12.4125 23.9522 12.1667 23.3333 12.1667ZM17.5 20.3334H15.1666V22.6667H12.8333V20.3334H10.5V18H12.8333V15.6667H15.1666V18H17.5V20.3334Z" fill="#22B99A"/>
</g>
</svg>
