<svg width="48" height="42" viewBox="0 0 48 42" fill="none" xmlns="http://www.w3.org/2000/svg">
<g id="Group">
<path id="Vector" d="M10.4208 0.8473C13.1183 0.497455 15.9211 1.09792 18.2299 2.53719C19.5331 3.30542 20.5755 4.41735 21.6444 5.46996C22.4198 6.22898 23.187 6.9972 23.9645 7.75418L23.9931 7.83294C23.4124 8.40468 22.7534 9.54792 22.0163 11.2627C20.4702 11.8066 19.4151 12.3556 18.8508 12.9098C17.5916 11.6976 16.3732 10.4425 15.1191 9.22414C13.9264 8.10709 12.124 7.657 10.5619 8.16949C8.78304 8.66971 7.42561 10.3709 7.3315 12.2173C7.27012 13.1778 7.52074 14.1537 8.04039 14.9638C8.36364 15.4855 8.83624 15.8835 9.25973 16.3192C10.2776 17.3422 11.3199 18.3416 12.3224 19.3788C11.7871 19.9049 11.1532 20.9233 10.4208 22.4341C8.86282 23.1724 7.78192 23.8439 7.17805 24.4485C5.82471 23.176 4.53069 21.8349 3.18962 20.5481C1.59281 18.8868 0.524867 16.7315 0.156609 14.4575C-0.248474 12.0178 0.136151 9.44918 1.26547 7.2468C2.21374 5.4004 3.64892 3.79643 5.39507 2.67018C6.91311 1.71577 8.63267 1.04677 10.4208 0.8473Z" fill="#EA4335"/>
<path id="Vector_2" d="M24.0161 30.8959L35.7175 19.3633L38.8812 21.2424L40.8608 24.4596L24.0161 41.1242L12.3311 29.564L14.5734 26.4085L17.5061 24.4555L24.0161 30.8959Z" fill="#34A853"/>
<path id="Vector_3" d="M18.8607 12.9209L21.8039 14.5129L24.0153 18.0315L12.3303 29.5641L7.17773 24.4484L18.8607 12.9209Z" fill="#FBBC05"/>
<path id="Vector_4" d="M38.1248 0.917651C41.5537 1.49868 44.7074 3.63969 46.4362 6.66861C48.4053 9.99623 48.5127 14.314 46.7655 17.7573C46.0413 19.2364 44.9355 20.4844 43.7581 21.6188C42.7812 22.5528 41.8534 23.5491 40.8601 24.4595C39.1416 22.7656 37.421 21.0726 35.7168 19.3633C36.931 18.1368 38.1647 16.9307 39.383 15.7083C40.1686 14.9145 40.6606 13.8261 40.7005 12.706C40.7548 11.4345 40.2525 10.1446 39.3308 9.26278C38.3918 8.37385 37.0763 7.86851 35.7812 7.97592C34.6673 8.02912 33.5921 8.53445 32.8065 9.32211C29.8748 12.2232 26.9502 15.1324 24.0154 18.0314C22.2897 16.3354 20.562 14.6414 18.8608 12.9208C18.8588 12.9177 18.8537 12.9126 18.8506 12.9096C20.5691 11.2217 22.2764 9.5226 23.9929 7.83271C25.2368 6.60723 26.4766 5.37664 27.7215 4.15014C29.3337 2.53082 31.4593 1.47004 33.6801 0.983119C35.1439 0.707949 36.6538 0.677261 38.1248 0.917651Z" fill="#4285F4"/>
</g>
</svg>
