<svg width="199" height="185" viewBox="0 0 199 185" fill="none" xmlns="http://www.w3.org/2000/svg">
    <mask id="mask0_1901_24509" style="mask-type:luminance" maskUnits="userSpaceOnUse" x="0" y="0"
        width="199" height="185">
        <path
            d="M196.15 84.0022C192.353 67.9895 185.19 52.8887 176.177 39.1183C171.49 31.9555 166.221 25.0571 159.574 19.6652C153.367 14.6301 146.596 12.1721 139.337 10.5246C137.354 7.54229 134.275 5.01375 131.377 3.37944C126.676 0.731957 121.122 -0.285629 115.756 0.260607C112.325 0.608613 108.84 1.64822 106.259 3.93889C105.215 4.86397 104.356 6.02693 103.765 7.30001C99.7523 7.62158 95.7612 8.24711 91.8319 9.24267C80.2199 12.1809 69.1719 18.7489 62.106 28.2552C57.833 26.5504 53.3707 25.2289 48.7365 25.2906C45.8907 25.3302 43.0803 25.8941 40.2962 26.4976C36.7413 27.2729 33.063 28.1847 30.2437 30.4842C26.8209 33.2727 25.1426 37.7791 24.8738 42.1842C24.6051 46.5938 25.5831 50.9769 26.6447 55.2631C27.539 58.8621 28.583 62.5932 30.8384 65.4786C27.5566 66.7076 24.31 68.0248 21.3982 69.8573C12.1871 75.6456 7.00663 86.1166 3.82172 96.5172C-1.99746 115.534 -2.08115 137.806 10.0065 153.603C18.852 165.167 32.8427 171.572 46.7497 175.876C83.4797 187.241 123.773 186.761 160.222 174.528C168.261 171.827 176.344 168.427 182.331 162.418C187.908 156.819 191.234 149.374 193.67 141.855C199.753 123.093 200.7 103.209 196.145 83.9978L196.15 84.0022Z"
            fill="white" />
    </mask>
    <g mask="url(#mask0_1901_24509)">
        <path
            d="M136.839 9.98713C134.597 9.53341 132.306 9.14135 129.976 8.7537C117.382 6.65685 104.303 6.08859 91.8275 9.24267C77.1584 12.9562 63.3835 22.4537 57.4058 36.3607C54.6261 42.8274 53.472 50.2016 48.895 55.545C42.1067 63.4654 30.2261 64.3112 21.3938 69.8617C12.1827 75.65 7.00224 86.121 3.81733 96.5215C-2.00185 115.539 -2.08555 137.811 10.0021 153.608C18.8476 165.171 32.8383 171.576 46.7453 175.88C83.4753 187.245 123.769 186.765 160.217 174.532C168.257 171.832 176.34 168.431 182.327 162.422C187.903 156.823 191.229 149.379 193.665 141.859C199.749 123.098 200.696 103.213 196.141 84.0022C192.344 67.9895 185.181 52.8887 176.168 39.1183C171.481 31.9555 166.213 25.0571 159.565 19.6652C152.654 14.0575 145.041 11.6435 136.835 9.98713H136.839Z"
            fill="#E1FAF3" />
        <path d="M42.6661 97.5039H35.2743V133.031H42.6661V97.5039Z" fill="#F2D39C" />
        <path d="M105.003 111.675H99.5629V116.741H105.003V111.675Z" fill="#F2D39C" />
        <path d="M106.867 116.741H97.6951V133.027H106.867V116.741Z" fill="#22B99A" />
        <path d="M106.867 122.322H97.6951V127.45H106.867V122.322Z" fill="#B7F7E6" />
        <path d="M114.492 117.138H110.443V120.908H114.492V117.138Z" fill="#F2D39C" />
        <path d="M115.884 120.908H109.056V133.027H115.884V120.908Z" fill="#22B99A" />
        <path d="M91.9068 118.552H87.8585V122.322H91.9068V118.552Z" fill="#F2D39C" />
        <path d="M93.2989 122.322H86.4709V134.441H93.2989V122.322Z" fill="#22B99A" />
        <path d="M120.734 133.031H3.05957V148.973H120.734V133.031Z" fill="#A0EDD9" />
        <path d="M70.0749 120.851H7.86121V133.031H70.0749V120.851Z" fill="#22B99A" />
        <path d="M11.4646 148.969H3.05957V204.465H11.4646V148.969Z" fill="#B7F7E6" />
        <path d="M120.734 148.969H111.668V204.465H120.734V148.969Z" fill="#B7F7E6" />
        <path d="M103.052 36.4796H59.2692V70.0775H103.052V36.4796Z" fill="#22B99A" />
        <path d="M98.1136 65.1394V41.4178H64.2073V65.1394H98.1136Z" fill="#A0EDD9" />
        <path d="M161.71 43.2062V86.9888H195.308V43.2062H161.71Z" fill="#22B99A" />
        <path d="M190.37 48.1444H166.649V82.0507H190.37V48.1444Z" fill="#A0EDD9" />
        <path
            d="M217.466 130.481C216.008 129.106 213.603 128.877 211.911 129.952C209.154 131.705 208.638 136.119 205.546 137.181C204.119 137.67 202.498 137.265 201.075 137.771C198.546 138.67 197.819 141.815 197.277 144.445C196.736 147.075 195.916 149.96 193.234 150.079C191.793 149.017 192.295 146.722 193.26 145.216C194.22 143.705 195.555 142.181 195.352 140.401C195.106 138.238 192.621 136.586 193.022 134.445C193.41 132.371 196.216 131.626 196.978 129.661C197.788 127.578 195.956 125.485 195.352 123.331C194.33 119.684 196.943 115.869 196.383 112.12C195.868 108.64 192.251 105.935 188.767 106.424C185.282 106.913 182.551 110.508 183.009 113.997C183.445 117.314 186.309 120.27 185.622 123.543C185.128 125.882 182.882 127.714 182.93 130.102C182.983 132.63 185.538 134.344 186.476 136.692C187.458 139.159 186.533 141.912 185.987 144.511C185.441 147.11 185.525 150.313 187.727 151.797C188.454 152.291 188.758 154 189.348 154.652C194.097 154.801 198.744 151.462 200.11 146.907C200.647 145.123 200.802 143.057 202.189 141.811C203.158 140.938 204.515 140.683 205.801 140.458C207.647 140.141 209.489 139.824 211.334 139.502C213.991 139.044 216.995 138.353 218.312 135.996C219.29 134.247 218.92 131.855 217.466 130.481Z"
            fill="#22B99A" />
        <path
            d="M185.969 152.343C184.736 151.039 184.177 149.595 184.146 147.775C184.11 145.621 184.331 143.167 182.82 141.634C181.815 140.613 180.26 140.282 179.265 139.251C177.52 137.445 178.221 134.52 178.049 132.018C177.745 127.578 173.899 123.653 169.468 123.256C168.336 123.155 167.146 123.274 166.182 123.873C165.217 124.472 164.552 125.635 164.785 126.745C165.424 129.802 171.027 129.071 172.001 132.04C172.64 133.978 170.706 135.925 170.922 137.952C171.093 139.568 172.556 140.714 173.987 141.485C175.419 142.256 177.018 142.912 177.926 144.26C178.727 145.458 178.829 146.974 179.208 148.366C180.23 152.105 183.586 155.101 187.423 155.687C187.917 155.762 188.458 155.793 188.881 155.524C190.687 154.387 186.538 152.942 185.974 152.348L185.969 152.343Z"
            fill="#22B99A" />
        <path d="M201.665 187.399L205.449 147.802H174.728L178.512 187.399H201.665Z"
            fill="#A0EDD9" />
        <path
            d="M126.949 90.7684C126.461 90.0636 113.743 95.4555 113.743 95.4555C114.708 93.4864 114.981 91.1781 114.492 89.0372C114.487 89.0196 114.483 88.9976 114.479 88.98C114.426 88.7905 114.333 88.5879 114.153 88.5394C114.064 88.5174 113.972 88.5306 113.884 88.5571C113.131 88.7641 112.571 89.4205 112.241 90.1341C111.91 90.8433 111.765 91.623 111.518 92.3631C111.051 93.786 110.073 94.9489 109.109 96.0942C107.479 98.0325 108.792 102.42 108.792 102.42C108.792 102.42 108.483 102.623 108.069 102.905L111.483 109.001L114.148 107.477L116.095 107.684C117.505 107.644 129.117 101.301 128.932 100.433C128.883 100.2 128.804 99.9487 128.716 99.7109C128.579 99.3408 128.43 99.0016 128.328 98.777C128.249 98.6096 128.196 98.5127 128.196 98.5127C128.196 98.5127 128.253 98.0237 128.24 97.451C128.24 97.1118 128.214 96.7462 128.148 96.4334C128.077 96.0942 127.949 95.8255 127.747 95.7242C127.544 95.6229 126.716 95.7639 125.641 96.0061C122.989 96.6096 118.848 97.8343 118.95 97.5259C119.091 97.103 127.28 92.2089 127.28 92.2089C127.28 92.2089 127.346 91.9182 127.28 91.5305C127.24 91.3015 127.148 91.0327 126.967 90.7728L126.949 90.7684Z"
            fill="#B77158" />
        <path
            d="M128.231 97.4422C128.002 97.5391 127.769 97.636 127.531 97.7286C126.135 98.266 124.809 98.5876 123.844 98.7682C122.936 98.9356 122.342 98.9884 122.271 98.9928C122.333 98.9576 122.862 98.6801 123.69 98.288C124.575 97.8695 125.795 97.3145 127.17 96.7859C127.5 96.6581 127.826 96.5392 128.139 96.4246C128.205 96.733 128.231 97.103 128.231 97.4422Z"
            fill="#8E503D" />
        <path
            d="M128.703 99.7021C126.496 100.601 124.575 100.94 124.456 100.958C124.558 100.883 126.135 99.7329 128.32 98.7682C128.421 98.9928 128.571 99.332 128.703 99.7021Z"
            fill="#8E503D" />
        <path
            d="M108.88 104.367C108.911 104.345 108.955 104.323 108.985 104.301C109.162 104.182 109.342 104.063 109.51 103.922C109.637 103.799 109.748 103.671 109.836 103.517C110.065 103.107 110.021 102.601 109.959 102.134C109.77 100.618 109.444 99.0633 109.822 97.5788C110.272 95.8299 111.629 94.4688 112.395 92.83C112.95 91.6407 113.219 90.2707 114.122 89.3147C114.228 89.2002 114.351 89.0945 114.474 88.9756C114.421 88.7905 114.333 88.5879 114.148 88.535C114.056 88.5174 113.963 88.535 113.875 88.5527C113.122 88.7553 112.562 89.4161 112.236 90.1297C111.906 90.8389 111.761 91.6142 111.514 92.3543C111.043 93.7816 110.069 94.9401 109.109 96.0854C107.474 98.0237 108.783 102.411 108.783 102.411C108.783 102.411 108.457 102.561 108.069 102.702C108.043 102.711 108.007 102.724 107.977 102.737L107.69 102.852L108.889 104.363L108.88 104.367Z"
            fill="#B77158" />
        <path
            d="M112.703 104.706C112.703 104.706 112.791 104.662 112.95 104.583C113.109 104.499 113.324 104.358 113.571 104.156C114.064 103.75 114.659 103.028 114.959 102.068C115.254 101.107 115.175 100.173 114.994 99.5611C114.906 99.2527 114.805 99.0148 114.721 98.8563C114.637 98.7021 114.589 98.614 114.589 98.614C114.589 98.614 114.584 98.7153 114.571 98.8871C114.571 99.0589 114.545 99.3056 114.509 99.6007C114.443 100.195 114.285 100.962 114.034 101.781C113.778 102.596 113.474 103.323 113.197 103.847C113.06 104.107 112.937 104.327 112.844 104.473C112.756 104.623 112.703 104.706 112.703 104.706Z"
            fill="#B77158" />
        <path
            d="M87.4575 107.138C87.0523 109.574 85.7748 111.94 83.6779 113.248C81.7485 114.459 79.3653 114.653 77.0879 114.79C63.9253 115.556 50.5822 114.565 37.4417 113.556C31.6357 113.111 26.2086 109.349 23.7461 104.076C21.288 98.8034 21.9048 92.2265 25.2923 87.4954C26.7636 85.4382 28.8164 83.4824 28.9045 80.9494C28.9662 79.3636 28.2217 77.8702 27.7944 76.3372C27.605 75.6897 27.4773 75.0377 27.4861 74.3593C27.5477 70.2405 32.4374 67.9939 34.1863 64.2628C36.1157 60.1219 33.8251 55.3732 33.0497 50.8756C32.2084 46.0299 33.2612 40.8847 35.9263 36.7439C38.5914 32.6119 42.8556 29.5327 47.6087 28.2905C52.5292 27.013 58.2075 28.5592 62.3351 31.5194C64.1324 32.8189 65.7226 34.3916 67.0442 36.1712C68.7666 38.4619 70.0264 41.083 70.7313 43.8626C72.4272 50.6157 70.8282 57.8533 72.4008 64.6284C73.0528 67.4521 74.2421 70.1128 75.4227 72.7559C77.9336 78.3812 80.4402 84.0022 82.9511 89.6319C84.4312 92.9534 85.9201 96.2969 86.8496 99.8122C87.4884 102.2 87.8584 104.702 87.4487 107.138H87.4575Z"
            fill="#1D1E1E" />
        <path
            d="M55.6172 150.493H75.546C78.1715 165.81 85.3166 209.363 82.3123 212.672C78.6605 216.694 42.5868 253.683 42.5868 253.683L34.3977 247.049L63.4672 209.289L55.6216 150.493H55.6172Z"
            fill="#935441" />
        <path
            d="M68.1278 261.37L61.1632 261.895L58.5951 262.027L50.2826 199.452C50.2826 199.452 38.3182 167.77 35.5298 158.427C35.7809 155.048 36.3844 150.916 37.0716 146.929L43.6705 147.736L65.3217 150.379C67.1718 165.03 70.7576 192.716 71.1497 194.897C72.3214 201.65 68.119 261.366 68.119 261.366L68.1278 261.37Z"
            fill="#B77158" />
        <path
            d="M37.261 178.193C37.261 178.193 62.7315 182.598 84.4399 177.215L77.427 137.776H38.8116L37.261 178.197V178.193Z"
            fill="#C86B2A" />
        <path
            d="M61.1676 261.895L58.5995 262.027L50.287 199.452C50.287 199.452 38.3226 167.77 35.5342 158.427C35.7853 155.048 36.3888 150.916 37.076 146.929L43.6749 147.736C43.5691 152.793 43.415 162.409 43.8643 164.017C44.481 166.198 55.7097 200.077 55.7097 200.077L61.1588 261.895H61.1676Z"
            fill="#CC836D" />
        <path
            d="M51.5469 70.4828C51.5469 70.4828 39.424 73.2801 38.935 73.8307C38.4461 74.3769 38.935 121.635 38.935 121.635L32.4463 148.321C32.4463 148.321 60.203 152.727 66.401 152.973C72.5991 153.22 79.6253 148.075 79.6253 148.075L72.8458 116.362C72.8458 116.362 76.7619 98.614 76.7619 92.7375C76.7619 86.8611 68.3041 71.4651 68.3041 71.4651L61.5642 70.4255L51.5425 70.4784L51.5469 70.4828Z"
            fill="#48311F" />
        <path
            d="M50.08 70.7031L62.0399 70.3595C61.7183 70.082 59.6479 69.1437 59.5642 68.1393C59.366 65.8222 59.6259 62.5007 59.6259 62.5007L51.5116 61.2497C51.5116 61.2497 51.5909 63.4919 51.5645 65.8839C51.5425 68.3067 50.4984 70.2582 50.08 70.7031Z"
            fill="#B77158" />
        <path
            d="M51.569 65.8795C53.9522 67.0688 56.864 68.4565 57.7582 68.593C58.4895 68.7031 59.1062 68.4476 59.5555 68.1393C59.3617 65.8222 59.626 62.5007 59.626 62.5007L51.5117 61.2497C51.5117 61.2497 51.5866 63.4963 51.5646 65.8795H51.569Z"
            fill="#8E503D" />
        <path
            d="M43.4371 40.594C46.763 35.0435 53.5249 32.3344 59.6127 34.5237C61.0136 35.0259 62.1765 35.6735 62.7977 36.506C65.2821 39.8363 70.3084 52.8359 68.6829 59.8136C67.0618 66.7913 62.5069 66.6988 60.8594 66.5226C59.2119 66.3508 51.3047 64.6108 49.1726 62.5183C47.0405 60.4259 41.1596 48.7082 41.3887 45.3383C41.4636 44.2106 42.3226 42.4486 43.4327 40.594H43.4371Z"
            fill="#B77158" />
        <path
            d="M42.7586 39.713C46.0845 34.1625 52.8464 31.4533 58.9343 33.6427C60.3351 34.1449 61.4981 34.7924 62.1192 35.625C64.6037 38.9553 69.6299 51.9548 68.0044 58.9326C66.3833 65.9103 61.8284 65.8178 60.1809 65.6416C58.5334 65.4698 50.6262 63.7297 48.4941 61.6373C46.362 59.5449 40.4812 47.8272 40.7102 44.4573C40.7851 43.3296 41.6441 41.5675 42.7542 39.713H42.7586Z"
            fill="#B77158" />
        <path
            d="M47.2519 55.9503C46.8246 55.8357 44.371 53.6067 43.2741 55.4393C42.1772 57.2718 42.283 59.9457 43.8644 61.166C45.3049 62.2805 47.2387 63.4126 49.1726 62.5183L47.2519 55.9503Z"
            fill="#B77158" />
        <path
            d="M43.6838 57.4216C43.6662 57.7828 43.7895 58.1352 43.9657 58.4568C44.7058 59.8224 46.2828 60.6638 47.7894 61.4391C47.2564 60.8092 46.9568 60.0427 46.8907 59.2541C46.8643 58.981 46.8687 58.6991 46.8203 58.4304C46.6176 57.3379 43.7851 55.2807 43.6882 57.426L43.6838 57.4216Z"
            fill="#CC836D" />
        <path
            d="M48.525 61.7254C48.525 61.7254 48.4986 61.7166 48.4413 61.6946C48.3884 61.6726 48.3047 61.6461 48.2034 61.6021C48.0052 61.5096 47.7232 61.3598 47.4369 61.1087C47.155 60.8576 46.8687 60.5052 46.6836 60.0559C46.503 59.611 46.4193 59.0647 46.5515 58.4965C46.5647 58.426 46.5867 58.3555 46.6088 58.285L46.6264 58.2322V58.2277C46.6264 58.2277 46.6264 58.2277 46.622 58.2189L46.5911 58.1793L46.5295 58.1044C46.4898 58.0559 46.4502 58.0075 46.4061 57.959C46.2431 57.7696 46.0669 57.5978 45.8951 57.4348C45.7233 57.2762 45.5471 57.1309 45.3753 57.0031C45.2035 56.8754 45.0405 56.7564 44.8819 56.6727C44.7278 56.589 44.5648 56.5494 44.4194 56.5582C44.2784 56.567 44.1507 56.6287 44.0714 56.6904C43.9921 56.7564 43.9525 56.8269 43.9436 56.8754C43.9304 56.9238 43.9392 56.9547 43.9392 56.9547C43.9392 56.9547 43.926 56.9282 43.926 56.8754C43.926 56.8225 43.9481 56.7388 44.0229 56.6507C44.0978 56.567 44.2256 56.4745 44.4106 56.4304C44.5956 56.3908 44.8071 56.4216 45.0053 56.4921C45.2035 56.5626 45.3929 56.6683 45.5912 56.7829C45.7894 56.8974 45.992 57.034 46.1903 57.1881C46.3885 57.3423 46.5867 57.5141 46.7717 57.7123C46.8202 57.7608 46.8642 57.8093 46.9083 57.8621L46.9744 57.9414L47.0625 58.0515L47.1242 58.1308C47.1197 58.1617 47.1065 58.1925 47.0977 58.2277L47.0537 58.3643C47.036 58.426 47.014 58.4832 47.0052 58.5449C46.8907 59.0383 46.9347 59.5184 47.0581 59.9369C47.1902 60.351 47.3973 60.7034 47.6175 60.9721C47.8422 61.2409 48.0713 61.4259 48.2431 61.5448C48.3268 61.6065 48.4016 61.6461 48.4457 61.677C48.4941 61.7078 48.5162 61.721 48.5162 61.721L48.525 61.7254Z"
            fill="#8E503D" />
        <path
            d="M59.8993 54.0561C59.5513 54.0649 59.1857 54.0164 58.8773 54.175C59.4808 54.7829 60.331 55.1397 61.19 55.1441C61.2561 55.1441 61.3222 55.1441 61.3838 55.1177C61.4587 55.0869 61.5116 55.0208 61.5645 54.9591C61.8816 54.5583 62.1195 54.0913 62.2605 53.5979C62.2869 53.4966 62.3133 53.3953 62.3001 53.2896C62.2517 52.9504 62.0666 53.1002 61.9081 53.2455C61.7274 53.4129 61.5204 53.5583 61.3046 53.6772C60.8773 53.9107 60.3927 54.0473 59.8993 54.0561Z"
            fill="#B77158" />
        <path
            d="M61.1855 54.9371C61.3088 54.6948 61.4674 54.4657 61.5952 54.2235C61.7582 53.9239 61.8947 53.6156 61.9916 53.2896C60.7053 52.9856 60.3045 51.924 59.8904 50.7038C59.701 50.1531 59.6437 49.5628 59.723 48.9858C59.7626 48.6818 59.8419 48.3867 59.9565 48.1047C60.0137 47.9594 60.0798 47.8184 60.1547 47.6863C60.2296 47.5541 60.3177 47.4616 60.4278 47.3559C60.3926 47.4528 60.3838 47.5497 60.3529 47.6466C60.278 47.8977 60.1943 48.1356 60.1503 48.3911C60.1018 48.6466 60.0798 48.9065 60.0798 49.1708C60.0754 49.6906 60.1591 50.2148 60.3309 50.7082C60.4983 51.1927 60.7582 51.6465 61.1062 52.0209C61.5027 52.4526 62.0533 52.8182 62.6304 52.9328C62.6348 52.9328 62.2515 54.0076 62.2075 54.1001C62.0974 54.338 61.9652 54.5671 61.811 54.7785C61.6568 54.9856 61.485 55.2278 61.234 55.3159C61.1547 55.3424 61.071 55.3556 60.9873 55.338C61.0181 55.2939 61.0445 55.2455 61.071 55.197C61.0798 55.175 61.0886 55.1529 61.0974 55.1309C61.1238 55.0648 61.1547 55.0032 61.1855 54.9415V54.9371Z"
            fill="#8E503D" />
        <path
            d="M57.08 60.6858C58.9125 58.7916 61.441 58.7167 63.8198 59.2762C62.5908 58.5625 61.2913 58.2189 59.9962 58.611C58.701 59.003 57.8773 59.3599 57.08 60.6858Z"
            fill="#8E503D" />
        <path
            d="M64.8592 44.0168C64.8592 44.0168 63.1015 42.2547 61.8681 42.2151C60.6346 42.171 60.1192 43.2459 60.573 43.5278C61.0267 43.8141 64.8636 44.0168 64.8636 44.0168H64.8592Z"
            fill="#444444" />
        <path
            d="M48.1285 48.3074C48.1285 48.3074 50.3179 45.2282 52.0932 44.4353C53.8684 43.6423 54.8199 44.5674 54.2252 45.1665C53.6305 45.7656 48.1285 48.3074 48.1285 48.3074Z"
            fill="#444444" />
        <path
            d="M54.9212 55.6816C54.9521 56.2718 53.7098 56.8137 52.1548 56.8886C50.5954 56.9679 49.3091 56.5494 49.2827 55.9635C49.2518 55.3732 50.4941 54.8314 52.0491 54.7565C53.6085 54.6772 54.8948 55.0957 54.9212 55.6816Z"
            fill="#CC836D" />
        <path
            d="M69.1982 50.0122C69.4581 50.3778 68.7841 51.3073 67.6872 52.0914C66.5903 52.8755 65.4935 53.2191 65.2336 52.8535C64.9737 52.4878 65.6476 51.5584 66.7445 50.7742C67.8414 49.9901 68.9383 49.6465 69.1982 50.0122Z"
            fill="#CC836D" />
        <path
            d="M51.4896 48.9461C51.8464 49.3426 52.5909 49.4791 53.0931 49.5232C53.2164 49.1928 53.4235 48.9417 53.7142 48.836C54.4455 48.5585 55.4014 49.2897 55.8463 50.4659C56.2912 51.6421 56.0577 52.8226 55.3265 53.1002C54.5952 53.3777 53.6393 52.6464 53.1944 51.4703C53.0578 51.1046 52.983 50.7434 52.9697 50.4042C52.2253 50.1223 51.494 48.9505 51.494 48.9505L51.4896 48.9461Z"
            fill="#1D1E1E" />
        <path
            d="M54.5467 51.1267C54.5467 51.1267 53.8992 51.6597 53.1062 51.6509C52.3133 51.6421 51.6746 51.1002 51.6746 51.1002C51.6746 51.1002 52.3221 50.5672 53.115 50.576C53.908 50.5804 54.5467 51.1267 54.5467 51.1267Z"
            fill="white" />
        <path
            d="M66.2469 45.8185C66.1984 46.2458 65.7711 46.6863 65.4584 46.9506C65.2205 46.7876 64.9694 46.7215 64.7271 46.7876C64.1148 46.9462 63.8241 47.8757 64.0796 48.8624C64.335 49.8492 65.0399 50.5143 65.6566 50.3558C66.2689 50.1972 66.5596 49.2677 66.3041 48.2809C66.2248 47.977 66.1015 47.6995 65.9517 47.4704C66.313 46.9374 66.2469 45.8185 66.2469 45.8185Z"
            fill="#1D1E1E" />
        <path
            d="M65.2512 48.6862C65.2512 48.6862 65.9296 48.7347 66.4494 48.3602C66.9692 47.9858 67.1366 47.325 67.1366 47.325C67.1366 47.325 66.4582 47.2766 65.9384 47.651C65.4186 48.0254 65.2512 48.6862 65.2512 48.6862Z"
            fill="white" />
        <path
            d="M66.4627 39.9685C62.2426 41.5455 57.3706 41.2812 53.3443 39.2592C54.2781 40.5147 55.6217 41.6556 57.0578 42.2724C53.9478 43.356 50.4413 43.2679 47.3885 42.0301C47.8863 44.7701 47.3004 47.6642 45.741 49.9681C46.0053 51.9196 46.5075 53.8975 46.7718 55.849C45.5956 55.1706 44.1948 55.056 42.8909 55.4349C39.5738 51.9372 37.9659 46.8096 39.054 42.1138C40.1421 37.4179 43.7102 33.374 48.2343 31.7177C52.7584 30.0613 58.1018 30.8499 61.9475 33.7484C64.0884 35.3607 65.4848 37.4664 66.4539 39.9685H66.4627Z"
            fill="#1D1E1E" />
        <path
            d="M58.4805 37.0787C55.2868 36.6294 52.0931 36.1757 48.8994 35.7175C48.9126 36.8056 48.9214 37.8981 48.9302 38.9861C46.8642 38.5192 44.7894 38.0566 42.719 37.5897C43.7938 39.9861 42.9745 42.7966 41.763 45.1269C40.5604 47.4572 38.9614 49.6421 38.3667 52.1971C37.1553 57.4568 40.4459 63.3597 38.0231 68.1833C36.5958 71.007 33.5915 72.6017 30.8647 74.2096C29.8119 74.8351 28.7459 75.5311 27.7988 76.3372C27.6094 75.6897 27.4816 75.0377 27.4904 74.3593C27.5345 71.474 29.9529 69.5049 31.9969 67.2979C32.8691 66.3596 33.6664 65.3729 34.1906 64.2628C36.1201 60.122 33.8294 55.3732 33.0541 50.8756C32.2127 46.0299 33.2655 40.8847 35.9306 36.7439C38.5958 32.6119 42.8599 29.5327 47.6131 28.2905C52.3442 27.0658 57.7801 28.449 61.8593 31.189C62.0267 31.2948 62.1808 31.4049 62.3394 31.5194C64.1367 32.8189 65.727 34.3916 67.0485 36.1712C63.846 35.6162 60.6567 35.0612 57.4629 34.5017C57.8021 35.3651 58.1369 36.2241 58.4761 37.0787H58.4805Z"
            fill="#444444" />
        <path
            d="M53.8684 33.1581C50.939 32.9026 48.014 32.6383 45.0846 32.3784C45.2344 33.2727 45.393 34.1581 45.5427 35.0523C43.9745 34.7528 42.4107 34.4577 40.838 34.1581C41.4988 36.5016 40.5165 38.9949 39.2522 41.0786C37.9879 43.1578 36.4109 45.1137 35.7149 47.444C34.9352 50.043 35.3228 52.8315 35.6708 55.5186C36.0232 58.2101 36.3096 61.025 35.3537 63.5668C34.7546 65.1614 33.4991 66.5887 31.9969 67.3023C32.8692 66.364 33.6665 65.3773 34.1907 64.2672C36.1202 60.1264 33.8295 55.3776 33.0542 50.88C32.2128 46.0343 33.2656 40.8891 35.9307 36.7483C38.5958 32.6163 42.86 29.5371 47.6131 28.2949C52.3443 27.0702 57.7802 28.4535 61.8593 31.1935C58.8903 30.8851 55.9256 30.5767 52.9566 30.2684C53.2649 31.2287 53.5645 32.1978 53.864 33.1625L53.8684 33.1581Z"
            fill="#595959" />
        <path
            d="M68.5638 51.7742C68.5638 51.7742 68.6871 52.2896 68.8501 53.0825C68.8765 53.1486 68.8854 53.2147 68.903 53.2896C69.0483 53.9636 69.2201 54.8094 69.3699 55.686C69.3875 55.7917 69.4052 55.8886 69.4228 55.9943C69.5593 56.774 69.6739 57.5714 69.7444 58.285C69.762 58.4304 69.7752 58.5669 69.784 58.7035C69.8236 59.1704 69.8413 59.5933 69.8192 59.9457C69.6871 62.3465 65.2379 66.9543 64.163 67.2935C63.1014 67.6327 50.864 65.3552 49.8508 64.2804C48.8288 63.2011 46.2209 56.3291 46.2209 56.3291C46.2209 56.3291 60.4451 50.5716 68.5638 51.7698V51.7742Z"
            fill="white" />
        <path
            d="M42.2695 55.0032C42.2695 55.0032 43.3928 54.4746 43.8245 54.4702C44.2562 54.4702 48.0182 55.6728 48.0182 55.6728L46.8112 57.1176C46.8112 57.1176 43.9963 55.1133 42.2739 55.0032H42.2695Z"
            fill="white" />
        <path
            d="M44.9038 62.1483C44.9038 62.1483 45.8774 63.3509 46.3795 63.5668C46.8817 63.7826 50.1239 63.9015 50.1239 63.9015L49.5689 62.602L48.7451 62.4743C48.7451 62.4743 46.7099 63.1747 44.8994 62.1483H44.9038Z"
            fill="white" />
        <path
            d="M68.8545 53.0869C68.8809 53.153 68.8897 53.2191 68.9073 53.294C67.0836 53.4614 64.7269 53.6905 63.8723 53.827C62.401 54.0473 48.5248 57.404 48.5248 57.404C48.5248 57.404 61.6036 53.109 64.2863 53.0958C65.6475 53.0958 67.4272 53.0869 68.8545 53.0869Z"
            fill="#F4E8D9" />
        <path
            d="M69.3743 55.686C69.3919 55.7917 69.4095 55.8886 69.4272 55.9943C67.8325 56.1353 66.1233 56.3159 65.4317 56.4216C63.9604 56.6419 50.0842 59.9986 50.0842 59.9986C50.0842 59.9986 63.1631 55.7036 65.8458 55.6992C66.8942 55.6992 68.1805 55.6904 69.3743 55.686Z"
            fill="#F4E8D9" />
        <path
            d="M69.7488 58.2894C69.7664 58.4348 69.7796 58.5713 69.7884 58.7079C68.6034 58.8268 67.5154 58.937 66.9868 59.0207C65.5154 59.2409 51.6393 62.5976 51.6393 62.5976C51.6393 62.5976 64.7137 58.3114 67.4052 58.2982C68.1145 58.2938 68.925 58.2894 69.7488 58.285V58.2894Z"
            fill="#F4E8D9" />
        <path
            d="M65.9914 170.907L58.7097 204.478H24.125C24.125 204.478 23.9532 156.647 37.2611 123.107L34.3978 73.8175C34.3978 73.8175 39.1641 72.6105 44.1023 71.6898C46.3092 71.2713 48.547 70.9189 50.4104 70.7559L50.4941 71.0379L58.6216 99.7241C59.3837 103.64 66.0002 170.911 66.0002 170.911L65.9914 170.907Z"
            fill="white" />
        <path
            d="M113.932 110.755C113.932 110.755 89.3737 123.794 87.4179 123.437C86.3959 123.265 84.9113 122.455 83.2903 121.389C80.9423 119.842 78.2155 116.235 76.242 113.318C74.6342 110.948 73.5197 109.023 73.5197 109.023L68.3877 84.3017L71.1717 71.681C71.1717 71.681 74.806 72.0643 77.4314 74.4915C81.396 78.3328 90.6909 106.922 90.6909 106.922L104.47 100.587L107.206 99.332L113.937 110.755H113.932Z"
            fill="white" />
        <path
            d="M91.6997 204.478H76.6826L65.9958 170.907L58.7141 100.354L65.7007 71.0687L71.3216 71.7471C71.3216 71.7471 78.9733 89.4337 79.6341 92.4997C80.2949 95.5568 75.2113 121.393 75.2113 121.393C75.2113 121.393 82.1582 137.798 83.0437 144.652C83.3388 146.912 84.3828 154.194 85.6471 162.938C86.4973 168.823 87.4488 175.365 88.3386 181.492C90.1447 193.844 91.7041 204.478 91.7041 204.478H91.6997Z"
            fill="white" />
        <path
            d="M75.2025 80.9274C75.2025 80.9274 79.2112 92.0415 79.2112 93.2089C79.2112 94.3763 74.806 110.208 74.806 110.208C74.806 110.208 81.4181 96.2528 81.0922 93.6406C80.7662 91.0284 75.2069 80.9274 75.2069 80.9274H75.2025Z"
            fill="#D4E8FC" />
        <path
            d="M59.0224 107.433C59.0224 107.433 48.4457 98.2087 46.807 95.1912C45.1727 92.1693 46.4634 86.9492 46.4634 86.9492C46.4634 86.9492 41.9966 83.0286 41.653 82.1344C41.3182 81.249 44.0097 71.9806 44.0978 71.6854V71.6766C46.9435 70.2053 50.406 70.7471 50.406 70.7471L50.4897 71.029L58.6171 99.7153L59.0224 107.429V107.433Z"
            fill="#D4E8FC" />
        <path
            d="M65.6962 71.0687C65.6962 71.0687 68.3878 70.4388 71.3128 71.7471C71.3128 71.7471 72.2291 83.5617 72.1101 84.3546C71.9868 85.1519 67.4363 86.9888 67.4363 86.9888C67.4363 86.9888 68.0045 93.2309 68.0662 95.5568C68.1323 97.8827 59.0137 107.433 59.0137 107.433L58.6128 99.7197L65.6962 71.0643V71.0687Z"
            fill="#D4E8FC" />
        <path
            d="M59.0181 107.433C59.0181 107.433 63.8769 143.48 64.6038 146.934C65.3306 150.383 65.9914 170.911 65.9914 170.911C65.9914 170.911 66.8944 151.502 65.9914 146.934C65.0927 142.366 59.8683 104.799 59.8683 104.799L59.0181 107.433Z"
            fill="#D4E8FC" />
        <path
            d="M32.4462 162.77L52.5248 164.237C52.5248 164.237 50.7275 180.726 49.4236 182.03C48.1197 183.333 39.794 186.602 38.979 186.602C38.1641 186.602 31.4683 179.893 31.4683 179.893L32.4462 162.77Z"
            fill="#D4E8FC" />
        <path
            d="M88.3297 181.492C86.1404 180.805 81.7573 179.285 81.0877 177.946C80.1891 176.153 78.8807 163.748 78.8807 163.748L85.6338 162.938C86.484 168.823 87.4355 175.365 88.3253 181.492H88.3297Z"
            fill="#D4E8FC" />
        <path
            d="M42.7455 99.6228L43.327 103.442L45.8115 119.882L46.0449 121.477L46.2828 123.001L46.5207 124.595L46.7453 126.12L46.992 127.714L47.2916 129.719L48.8686 140.247L75.088 136.287L81.9952 135.243L75.8677 94.6229L73.7444 94.9445L73.599 94.9665L71.8546 95.2264L68.956 95.667L68.4098 95.7507L66.6698 96.0106L66.6169 96.0194L64.8637 96.2793L64.8681 96.2881L61.4188 96.8035L59.6788 97.0634L55.2517 97.7286V97.7374L46.0097 99.1294L44.9613 99.288L42.7455 99.6228Z"
            fill="#415F4B" />
        <path d="M75.8548 94.6273L68.9464 95.6696L75.0755 136.292L81.9838 135.25L75.8548 94.6273Z"
            fill="#2D4935" />
        <path d="M65.4036 102.128L48.1501 104.731L48.9519 110.045L66.2054 107.442L65.4036 102.128Z"
            fill="#FEF1E8" />
        <path d="M66.3913 124.183L53.7158 126.095L53.9564 127.689L66.6318 125.777L66.3913 124.183Z"
            fill="#FEF1E8" />
        <path d="M66.8632 127.293L54.1877 129.206L54.4283 130.8L67.1038 128.888L66.8632 127.293Z"
            fill="#FEF1E8" />
        <path d="M67.3303 130.4L54.6548 132.313L54.8953 133.907L67.5708 131.994L67.3303 130.4Z"
            fill="#FEF1E8" />
        <path
            d="M75.8676 94.6229L73.7443 94.9489L73.599 94.971L71.8589 95.2264L68.9603 95.667L68.4141 95.7551L66.6741 96.0106L66.6168 96.0238L64.868 96.2837V96.2925L61.4232 96.8079L59.6831 97.0678L55.2516 97.733V97.7418L46.0096 99.1294L44.9612 99.2924L42.7454 99.6272L43.3269 103.446L45.8114 119.886L46.0493 121.481L46.2827 123.005L46.5206 124.6L46.7453 126.12L46.9919 127.714L47.2959 129.719L47.2871 129.723L48.8685 140.247L46.7893 140.577L46.0272 140.705L41.6265 113.239V113.23L40.1684 104.156L39.3182 98.8431L39.1772 97.9576L40.2257 97.8167L49.8377 96.4643L54.8067 95.7683L59.2426 95.1383L60.9959 94.8961L64.4407 94.4071L66.1895 94.1648L66.5023 94.1252L68.2423 93.8741L71.6871 93.3939L72.9999 93.2089L73.4624 93.4336L75.8676 94.6229Z"
            fill="#2D4935" />
        <path
            d="M73.7444 94.9489L73.599 94.971L71.859 95.2264L68.9604 95.667L68.4142 95.7551L66.6742 96.0106L66.6169 96.0238L64.8681 96.2925L61.4232 96.8079L59.6832 97.0678L55.2517 97.733V97.7418L46.0097 99.1294L44.9613 99.2924L42.7455 99.6272L43.327 103.446L45.8026 119.886H45.8115L46.0493 121.481L46.274 123.005L46.5207 124.6L46.7453 126.12L46.9832 127.714L47.2872 129.723L48.8686 140.247L46.7894 140.577L41.5781 103.838L40.8689 98.6536L54.9962 96.6317L59.4453 96.0018L61.1898 95.7507L64.6346 95.2617L66.3834 95.015L66.5861 94.9798L68.3261 94.7331L71.7621 94.2441L72.5814 94.1208L73.5858 94.83L73.7444 94.9489Z"
            fill="#FEF1E8" />
        <path
            d="M77.612 111.878C77.3433 110.957 61.9958 112.23 61.9958 112.23C63.705 110.486 64.7975 108.133 65.0266 105.697C65.0266 105.675 65.0266 105.653 65.031 105.631C65.0442 105.411 65.0133 105.169 64.8371 105.05C64.7534 104.993 64.6477 104.979 64.5464 104.975C63.6742 104.927 62.8592 105.433 62.2601 106.072C61.6654 106.706 61.2381 107.482 60.7183 108.178C59.7272 109.521 58.2867 110.411 56.8638 111.283C54.4631 112.763 54.3177 117.869 54.3177 117.869C54.3177 117.869 53.9212 117.975 53.3838 118.129L54.8727 125.772L58.225 125.089L60.2117 125.987C61.7183 126.441 76.2244 123.776 76.3257 122.794C76.3566 122.529 76.361 122.239 76.3522 121.952C76.3389 121.512 76.2949 121.102 76.2685 120.829C76.242 120.626 76.22 120.503 76.22 120.503C76.22 120.503 76.4491 120.005 76.6341 119.397C76.753 119.041 76.8543 118.644 76.8896 118.287C76.9336 117.904 76.8896 117.574 76.7134 117.397C76.5328 117.221 75.6077 117.076 74.3875 116.966C71.3744 116.679 66.5639 116.53 66.7754 116.239C67.0705 115.842 77.4446 113.521 77.4446 113.521C77.4446 113.521 77.6164 113.235 77.6781 112.799C77.7133 112.543 77.7133 112.226 77.612 111.887V111.878Z"
            fill="#B77158" />
        <path
            d="M76.7178 117.389C76.5372 117.212 75.6121 117.067 74.3919 116.957C73.9029 117.697 73.5813 118.657 73.0791 119.309C72.295 120.323 71.2818 121.164 70.1321 121.728C68.2467 122.644 66.0838 122.825 63.9825 122.776C61.8857 122.728 59.7889 122.472 57.692 122.582C56.5643 122.64 55.4498 122.811 54.3441 123.045L54.908 126.12L58.225 125.084L60.2117 125.983C61.7183 126.437 76.2244 123.772 76.3257 122.789C76.3566 122.525 76.361 122.234 76.3522 121.948C76.3389 121.507 76.2949 121.098 76.2685 120.825C76.242 120.622 76.22 120.499 76.22 120.499C76.22 120.499 76.4491 120.001 76.6341 119.393C76.753 119.036 76.8543 118.64 76.8896 118.283C76.9336 117.9 76.8896 117.569 76.7134 117.393L76.7178 117.389Z"
            fill="#B77158" />
        <path
            d="M76.6386 119.389C76.3654 119.415 76.0835 119.437 75.7972 119.446C74.132 119.525 72.6167 119.406 71.533 119.256C70.5154 119.115 69.8635 118.966 69.7886 118.944C69.8635 118.93 70.5242 118.816 71.5374 118.693C72.6211 118.556 74.1056 118.397 75.7443 118.318C76.1408 118.301 76.524 118.287 76.8985 118.279C76.8632 118.631 76.7619 119.027 76.643 119.389H76.6386Z"
            fill="#8E503D" />
        <path
            d="M76.3522 121.948C73.7047 122.129 71.555 121.816 71.4185 121.798C71.5506 121.754 73.6254 121.089 76.2729 120.829C76.3038 121.102 76.3434 121.516 76.3522 121.952V121.948Z"
            fill="#8E503D" />
        <path
            d="M34.3934 73.8175C34.3934 73.8175 26.5875 76.3901 24.9532 78.7336C23.3145 81.0772 14.4337 121.996 19.341 129.357C24.2527 136.718 56.1635 128.701 56.1635 128.701L54.2341 113.631L37.2611 115.063L34.3934 73.8219V73.8175Z"
            fill="white" />
        <path
            d="M32.041 77.6676C31.8516 77.4782 31.4815 77.7381 31.6533 77.9671C33.3845 80.2622 34.0057 82.7555 34.1554 85.5704C34.1907 86.2135 35.0761 86.1959 35.1422 85.5704C35.4506 82.6013 34.0982 79.716 32.041 77.6676Z"
            fill="#D4E8FC" />
        <path
            d="M34.3934 92.253C34.3934 92.253 33.3053 113.627 32.4463 115.058L52.5249 114.6L53.3883 128.12L35.1863 132.243L56.1635 129.344L54.3486 112.248H35.1863L34.3934 92.253Z"
            fill="#D4E8FC" />
        <path
            d="M127.831 169.506C127.276 171.294 124.205 172.193 124.205 172.193C124.205 172.193 121.399 167.109 119.783 164.29C119.351 163.546 119.007 162.96 118.818 162.665C117.915 161.268 117.021 151.912 117.021 151.912L125.28 152.229C126.386 153.964 125.241 159.352 125.241 159.352C125.553 160.083 125.76 162.647 125.835 163.687C125.853 163.96 125.862 164.123 125.862 164.123C125.884 164.074 125.91 164.03 125.937 163.991C126.386 163.273 127.219 163.607 127.219 163.607L127.826 169.515L127.831 169.506Z"
            fill="#EA7C6F" />
        <path
            d="M131.8 102.2H120.664V102.491L120.457 105.054C120.457 105.054 117.796 113.754 117.734 116.706L117.065 149.951L117.025 151.916C117.025 151.916 117.695 158.951 118.461 161.731C118.58 162.154 118.699 162.48 118.822 162.669C119.012 162.96 119.351 163.55 119.783 164.29C120.576 165.687 121.668 167.62 122.562 169.228C122.981 169.968 123.346 170.633 123.633 171.149C123.998 171.801 124.219 172.193 124.219 172.193C124.219 172.193 124.241 172.193 124.298 172.171C124.796 172.012 127.337 171.127 127.835 169.51L127.236 163.612C127.236 163.612 126.404 163.277 125.954 163.995C125.919 164.03 125.897 164.079 125.875 164.114C125.875 164.114 125.875 164.079 125.866 164.017C125.866 163.942 125.857 163.832 125.849 163.682C125.84 163.532 125.818 163.347 125.809 163.136L125.738 162.391C125.628 161.242 125.47 159.85 125.249 159.352C125.249 159.352 126.395 153.964 125.289 152.224L124.404 150.233C125.386 145.172 127.584 133.89 129.249 124.503C130.536 117.19 131.5 111.032 131.324 109.856C131.192 108.962 131.417 106.001 131.804 102.204L131.8 102.2ZM124.65 165.691C124.963 165.81 125.302 165.823 125.611 165.731C125.597 166.669 125.734 167.598 126.025 168.475C125.686 168.625 125.368 168.603 125.029 168.753C124.897 168.405 124.747 168.039 124.593 167.691C124.408 167.264 124.197 166.841 123.976 166.427C123.39 165.347 122.694 164.325 121.906 163.524C121.739 161.616 121.395 159.718 120.875 157.872C121.324 158.748 121.893 159.559 122.558 160.246C123.148 160.859 122.769 162.008 122.928 162.889C123.086 163.757 123.355 164.656 123.945 165.255C124.012 165.317 124.078 165.383 124.157 165.435C124.302 165.55 124.47 165.642 124.65 165.695V165.691Z"
            fill="#F3A080" />
        <path
            d="M120.659 102.2V102.491L120.452 105.054C120.452 105.054 117.792 113.754 117.73 116.706L117.06 149.951L117.021 151.916C117.021 151.916 117.69 158.951 118.457 161.731C119.501 155.625 118.54 148.269 118.589 142.159C118.655 134.859 118.743 127.565 118.853 120.278C118.888 118.512 118.91 116.746 119.276 115.028C119.637 113.371 120.302 111.812 120.822 110.195C121.501 108.107 121.805 105.248 121.985 102.204H120.664L120.659 102.2Z"
            fill="#F8BF92" />
        <path
            d="M122.633 106.482C122.633 106.482 122.672 106.592 122.76 106.786C122.8 106.887 122.857 107.006 122.937 107.134C123.016 107.261 123.1 107.42 123.223 107.565C123.338 107.719 123.47 107.882 123.633 108.037C123.787 108.204 123.976 108.345 124.174 108.499C124.584 108.785 125.078 109.037 125.624 109.182C126.174 109.318 126.716 109.332 127.192 109.274C127.43 109.235 127.655 109.195 127.862 109.12C128.069 109.063 128.249 108.979 128.412 108.896C128.58 108.825 128.716 108.724 128.835 108.644C128.958 108.57 129.055 108.49 129.13 108.42C129.284 108.283 129.364 108.208 129.364 108.208C129.364 108.208 129.258 108.235 129.069 108.279C128.976 108.305 128.866 108.332 128.729 108.349C128.597 108.367 128.452 108.407 128.284 108.411C128.121 108.429 127.945 108.446 127.756 108.442C127.566 108.455 127.364 108.433 127.157 108.429C126.738 108.393 126.289 108.323 125.822 108.208C125.359 108.085 124.928 107.926 124.536 107.759C124.346 107.662 124.157 107.583 123.989 107.482C123.818 107.393 123.663 107.292 123.523 107.195C123.377 107.107 123.258 107.006 123.148 106.922C123.034 106.843 122.945 106.764 122.871 106.693C122.716 106.561 122.633 106.486 122.633 106.486V106.482Z"
            fill="#D97B71" />
        <path
            d="M131.461 75.3373C131.461 75.3373 124.58 77.2227 123.245 79.8966C121.91 82.5705 117.364 106.631 117.364 106.631L128.536 110.525L131.461 75.3417V75.3373Z"
            fill="#415F4B" />
        <path
            d="M173.072 199.672C173.072 199.672 181.358 215.623 181.838 222.059C182.093 225.407 184.107 263.027 184.107 263.027H173.741C173.741 263.027 163.702 215.346 161.107 209.751C159.94 207.231 157.517 196.073 155.209 184.571C161.27 183.968 167.288 183.065 173.186 181.963C173.133 191.615 173.063 199.672 173.063 199.672H173.072Z"
            fill="#F3A080" />
        <path
            d="M173.072 199.672C173.072 199.672 181.358 215.623 181.838 222.059C182.093 225.407 184.107 263.027 184.107 263.027H182.415C181.767 251.802 179.706 222.05 178.961 221.306C178.063 220.407 168.816 197.989 168.816 197.989C168.816 197.989 169.138 191.311 169.429 182.637C170.689 182.422 171.944 182.201 173.195 181.968C173.142 191.62 173.072 199.677 173.072 199.677V199.672Z"
            fill="#EA7C6F" />
        <path
            d="M126.447 193.782C130.461 194.404 148.905 194.223 148.905 194.223L150.112 167.506L153.05 193.113C155.689 193.699 167.847 192.567 174.186 191.919C176.503 191.677 178.04 191.505 178.04 191.505L176.084 167.048C176.084 167.048 176.468 156.264 176.468 152.207C175.146 148.335 171.098 138.886 171.098 138.886L163.094 140.467L126.989 147.617C126.989 147.617 125.919 154.66 125.738 157.158C125.558 159.647 126.452 193.782 126.452 193.782H126.447Z"
            fill="#48311F" />
        <path
            d="M140.623 158.356L146.865 162.933L148.905 194.223L150.112 167.51L149.447 159.691L140.623 158.356Z"
            fill="#352012" />
        <path
            d="M171.811 155.282C172.706 159.383 171.811 170.25 171.811 170.25L174.19 191.919C176.507 191.677 178.045 191.505 178.045 191.505L176.089 167.048C176.089 167.048 176.472 156.264 176.472 152.207C175.15 148.335 171.102 138.886 171.102 138.886L163.098 140.467C166.406 145.273 171.234 152.617 171.811 155.282Z"
            fill="#352012" />
        <path
            d="M127.13 66.6195C127.386 66.6944 127.633 66.7781 127.888 66.8442C139.126 70.1613 151.319 70.4388 162.733 67.7384C165.543 67.0777 168.314 66.2319 171.006 65.2099C170.997 57.7079 170.235 50.065 167.054 43.1886C163.605 35.7263 156.464 28.7442 147.495 28.2993C142.363 28.0438 135.945 29.9864 133.403 34.5413C130.672 39.4399 130.113 45.0124 129.796 50.4483C129.474 55.9239 129.293 61.5316 127.135 66.6195H127.13Z"
            fill="#5B322F" />
        <path
            d="M159.988 75.2536L154.42 71.866L141.989 71.6237L136.337 74.6765C136.337 74.6765 138.945 82.1696 141.989 82.8348C145.033 83.5 151.257 83.6365 151.257 83.6365C151.257 83.6365 158.424 82.5 159.988 75.2492V75.2536Z"
            fill="#F3A080" />
        <path
            d="M154.416 71.866C154.416 71.866 146.139 73.54 144.91 73.0114C143.676 72.4872 141.984 71.6282 141.984 71.6282C142.262 71.3198 144.174 68.4256 144.13 67.4433C144.028 65.179 143.363 61.9941 143.363 61.9941L151.055 59.7695C151.055 59.7695 151.257 61.9501 151.583 64.2584C151.909 66.6019 153.953 71.4872 154.416 71.866Z"
            fill="#F3A080" />
        <path
            d="M151.583 64.254C149.429 65.7033 146.782 67.4125 145.936 67.6547C145.244 67.853 144.614 67.6812 144.139 67.4433C144.033 65.1746 143.368 61.9985 143.368 61.9985L151.059 59.7695C151.059 59.7695 151.266 61.9501 151.588 64.254H151.583Z"
            fill="#EA7C6F" />
        <path
            d="M156.284 38.7747C152.372 33.8189 145.491 32.048 139.874 34.929C138.584 35.5898 137.54 36.3651 137.042 37.2461C135.06 40.779 131.822 53.9856 134.267 60.5316C136.712 67.0777 141.103 66.4169 142.676 66.0424C144.249 65.668 151.68 62.9985 153.482 60.7078C155.284 58.4172 159.504 46.3427 158.861 43.1093C158.645 42.0301 157.592 40.4266 156.288 38.7747H156.284Z"
            fill="#F8BF92" />
        <path
            d="M156.825 37.8364C152.914 32.8806 146.033 31.1098 140.416 33.9907C139.126 34.6515 138.082 35.4268 137.584 36.3078C135.602 39.8407 132.364 53.0473 134.809 59.5933C137.253 66.1394 141.645 65.4786 143.218 65.1042C144.791 64.7297 152.222 62.0602 154.024 59.7695C155.825 57.4789 160.046 45.4044 159.402 42.171C159.187 41.0918 158.134 39.4883 156.83 37.8364H156.825Z"
            fill="#F3A080" />
        <path
            d="M141.685 54.2499C142.02 54.2147 142.372 54.1222 142.689 54.2367C142.183 54.9019 141.403 55.3512 140.575 55.4613C140.509 55.4701 140.443 55.4745 140.381 55.4613C140.306 55.4393 140.244 55.3864 140.187 55.3292C139.83 54.9812 139.54 54.5627 139.346 54.1001C139.306 54.0076 139.271 53.9107 139.271 53.8094C139.271 53.4746 139.474 53.598 139.645 53.7169C139.844 53.8579 140.059 53.9724 140.284 54.0605C140.729 54.2323 141.214 54.3028 141.689 54.2543L141.685 54.2499Z"
            fill="#EA7C6F" />
        <path
            d="M140.549 55.2631C140.399 55.0428 140.218 54.8446 140.06 54.6244C139.866 54.3556 139.694 54.0737 139.557 53.7742C140.76 53.3204 141.016 52.2412 141.267 51.0121C141.381 50.4571 141.359 49.8756 141.214 49.3294C141.134 49.0431 141.024 48.7655 140.879 48.5056C140.804 48.3735 140.725 48.2457 140.632 48.1224C140.544 48.0034 140.443 47.9241 140.324 47.836C140.368 47.9241 140.39 48.0211 140.43 48.1092C140.531 48.3426 140.641 48.5629 140.72 48.8052C140.795 49.0475 140.853 49.2985 140.888 49.5496C140.958 50.0518 140.945 50.5716 140.839 51.0694C140.738 51.5584 140.544 52.0297 140.253 52.4394C139.923 52.9064 139.438 53.3292 138.897 53.5143C138.892 53.5143 139.399 54.5098 139.452 54.5935C139.588 54.8094 139.742 55.012 139.923 55.197C140.095 55.3776 140.293 55.5891 140.549 55.6419C140.628 55.6596 140.712 55.6596 140.786 55.6287C140.751 55.5891 140.716 55.545 140.69 55.501C140.676 55.4834 140.668 55.4613 140.654 55.4393C140.619 55.3776 140.584 55.3204 140.544 55.2675L140.549 55.2631Z"
            fill="#DD5B67" />
        <path
            d="M154.517 54.109C154.913 53.9416 157.01 51.4791 158.301 53.1178C159.592 54.7521 159.821 57.3555 158.446 58.7299C157.191 59.9854 155.464 61.3246 153.477 60.7034L154.517 54.109Z"
            fill="#F3A080" />
        <path
            d="M158.151 55.0869C158.213 55.4349 158.138 55.7917 158.01 56.1221C157.468 57.5361 156.046 58.5493 154.684 59.4876C155.121 58.8136 155.314 58.0339 155.284 57.2586C155.275 56.9899 155.235 56.7212 155.248 56.4525C155.306 55.3732 157.79 53.0253 158.151 55.0869Z"
            fill="#EA7C6F" />
        <path
            d="M154.006 59.8576C154.006 59.8576 154.033 59.8444 154.081 59.818C154.129 59.7916 154.209 59.7563 154.297 59.6991C154.477 59.5845 154.729 59.4039 154.975 59.1264C155.218 58.8489 155.447 58.47 155.574 58.0163C155.689 57.5626 155.707 57.0251 155.508 56.4921C155.486 56.426 155.455 56.36 155.425 56.2983L155.403 56.2498V56.2454C155.403 56.2454 155.403 56.2454 155.403 56.2366L155.425 56.197L155.473 56.1177C155.508 56.0648 155.539 56.012 155.574 55.9635C155.711 55.7609 155.856 55.5714 156.002 55.3952C156.151 55.219 156.301 55.0604 156.451 54.9107C156.601 54.7653 156.746 54.6287 156.887 54.5318C157.028 54.4305 157.178 54.3732 157.319 54.36C157.46 54.3512 157.588 54.3953 157.671 54.4437C157.759 54.4966 157.803 54.5627 157.821 54.6067C157.839 54.6552 157.839 54.6816 157.839 54.6816C157.839 54.6816 157.847 54.6552 157.839 54.6067C157.834 54.5539 157.803 54.479 157.72 54.4041C157.636 54.3292 157.504 54.2587 157.319 54.2411C157.138 54.2279 156.936 54.2807 156.751 54.3732C156.566 54.4702 156.398 54.5891 156.222 54.7257C156.046 54.8622 155.865 55.0164 155.693 55.1926C155.521 55.3688 155.35 55.5582 155.196 55.7697C155.156 55.8225 155.121 55.8754 155.081 55.9327L155.024 56.0164L154.949 56.1353L154.896 56.219C154.905 56.2498 154.922 56.2763 154.936 56.3071L154.993 56.4349C155.019 56.4921 155.046 56.545 155.063 56.6067C155.235 57.0692 155.253 57.5405 155.187 57.959C155.112 58.3775 154.958 58.7431 154.773 59.0295C154.592 59.3158 154.389 59.5273 154.24 59.6638C154.165 59.7343 154.099 59.7783 154.059 59.8136C154.015 59.8488 153.993 59.8664 153.993 59.8664L154.006 59.8576Z"
            fill="#B54B57" />
        <path
            d="M135.681 44.356C135.681 44.356 137.258 42.5146 138.456 42.3781C139.654 42.2459 140.236 43.2503 139.817 43.5587C139.399 43.8714 135.681 44.356 135.681 44.356Z"
            fill="#734641" />
        <path
            d="M151.376 46.6467C151.376 46.6467 148.667 44.1489 146.813 43.7481C144.958 43.3516 144.236 44.4221 144.927 44.8758C145.619 45.3295 151.381 46.6467 151.381 46.6467H151.376Z"
            fill="#734641" />
        <path
            d="M147.064 54.8094C147.108 55.382 148.376 55.7521 149.892 55.6331C151.407 55.5142 152.601 54.9503 152.557 54.3777C152.513 53.805 151.244 53.435 149.729 53.5539C148.213 53.6728 147.02 54.2367 147.064 54.8094Z"
            fill="#EA7C6F" />
        <path d="M139.566 58.6154C139.566 58.6154 141.606 57.0472 146.266 58.3026L139.566 58.6154Z"
            fill="#DD5B67" />
        <path
            d="M132.54 51.1135C132.333 51.4967 133.104 52.3116 134.262 52.9372C135.421 53.5583 136.527 53.7521 136.734 53.3689C136.941 52.9856 136.17 52.1707 135.011 51.5452C133.853 50.924 132.747 50.7302 132.54 51.1135Z"
            fill="#EA7C6F" />
        <path
            d="M149.482 47.9726C149.187 48.3999 148.487 48.6246 148.006 48.7303C147.848 48.4263 147.614 48.2105 147.319 48.14C146.575 47.9638 145.742 48.7876 145.46 49.9813C145.178 51.1751 145.548 52.2852 146.293 52.4614C147.037 52.6376 147.87 51.8139 148.152 50.6201C148.24 50.2501 148.262 49.8888 148.235 49.5585C148.923 49.1928 149.482 47.9682 149.482 47.9682V47.9726Z"
            fill="#1D1E1E" />
        <path
            d="M135.205 46.2766C135.275 46.6907 135.716 47.0916 136.029 47.3295C136.249 47.1621 136.491 47.0828 136.729 47.1312C137.333 47.2546 137.663 48.1356 137.469 49.1047C137.275 50.0738 136.628 50.761 136.024 50.6377C135.421 50.5144 135.09 49.6333 135.284 48.6642C135.346 48.3647 135.447 48.0915 135.579 47.8625C135.201 47.3647 135.205 46.2766 135.205 46.2766Z"
            fill="#1D1E1E" />
        <path
            d="M136.328 49.0034C136.328 49.0034 135.676 49.0871 135.148 48.7523C134.624 48.4175 134.425 47.7876 134.425 47.7876C134.425 47.7876 135.077 47.7039 135.606 48.0387C136.13 48.3735 136.328 49.0034 136.328 49.0034Z"
            fill="white" />
        <path
            d="M146.804 50.4659C146.804 50.4659 147.495 50.902 148.266 50.7963C149.033 50.6906 149.583 50.0827 149.583 50.0827C149.583 50.0827 148.892 49.6466 148.121 49.7523C147.354 49.858 146.804 50.4659 146.804 50.4659Z"
            fill="white" />
        <path
            d="M134.192 41.2504C134.201 41.3164 134.201 41.3781 134.214 41.4442C134.245 41.7966 134.302 42.149 134.386 42.5014C134.439 42.7657 134.513 43.0256 134.597 43.2811C135.87 41.4662 137.703 40.0478 139.764 39.246C139.914 40.1226 140.258 40.964 140.76 41.6909C141.178 40.3649 141.901 39.1315 142.844 38.1139C143.077 39.5676 143.976 40.9024 145.236 41.6777C145.416 40.268 145.971 38.9112 146.826 37.7835C147.583 39.8099 149.112 41.5411 151.033 42.5367C151.033 41.2239 151.033 39.9024 151.024 38.5897C151.566 41.5543 153.513 44.2282 156.169 45.6467C156.169 45.6467 155.654 52.3953 155.936 53.5539C155.936 53.5539 157.09 52.6905 158.165 53.5231C159.235 54.3556 159.363 56.3512 159.363 56.3512C160.112 55.36 160.847 54.2719 161.517 53.1266C161.764 52.7081 162.006 52.272 162.231 51.8359C162.882 50.5892 163.438 49.2985 163.843 47.9946C164.067 47.2678 164.257 46.5409 164.376 45.8185C164.442 45.4352 164.49 45.052 164.526 44.6643C164.292 43.9727 164.032 43.2987 163.733 42.638C163.539 42.2019 163.319 41.7658 163.094 41.3473C161.922 39.18 160.275 37.0787 158.31 35.3078C155.878 33.1009 152.975 31.4005 149.94 30.678C148.716 30.3873 147.407 30.2816 146.055 30.3344C143.196 30.449 140.183 31.2727 137.557 32.6075C135.905 34.2814 134.738 36.4488 134.333 38.713C134.17 39.5456 134.121 40.3914 134.192 41.2415V41.2504Z"
            fill="#5B322F" />
        <path
            d="M127.13 66.6195C127.386 66.6944 127.633 66.7781 127.888 66.8442C129.765 62.928 130.804 58.6242 130.91 54.2896C130.994 50.8315 130.505 47.2854 131.496 43.9771C132.906 39.2681 137.002 35.9466 140.879 32.9203C140.892 34.3167 140.918 35.7087 140.932 37.1051C141.636 35.5457 142.786 34.1801 144.2 33.211C144.028 34.559 144.222 35.9642 144.769 37.2109C145.742 35.7484 146.72 34.2858 147.702 32.8233C147.874 34.4224 148.729 35.9378 150.011 36.9113C150.077 35.6514 150.376 34.4004 150.878 33.2374C154.592 36.8452 158.513 40.2856 161.596 44.4485C164.671 48.6113 166.882 53.6508 166.583 58.818C166.393 62.1043 165.001 65.3949 162.728 67.734C165.539 67.0732 168.31 66.2275 171.001 65.2055C171.001 62.3465 170.887 59.4744 170.574 56.6243C170.063 51.9945 169.023 47.444 167.05 43.1842C163.6 35.7219 156.46 28.7398 147.491 28.2949C142.359 28.0394 135.941 29.982 133.399 34.5369C132.813 35.5854 132.328 36.669 131.928 37.7703C130.434 41.8142 130.038 46.1709 129.791 50.4439C129.469 55.9194 129.289 61.5272 127.13 66.6151V66.6195Z"
            fill="#734641" />
        <path
            d="M141.954 30.3477C141.932 31.1802 141.914 32.0128 141.892 32.8454C143.015 32.0436 144.143 31.2331 145.275 30.4314C145.416 31.308 145.561 32.1846 145.711 33.0656C146.297 32.0216 147.134 31.1318 148.134 30.471C148.539 31.0921 148.945 31.7088 149.35 32.33C149.614 31.8058 149.874 31.2816 150.138 30.7529C156.574 33.3343 161.675 38.5676 165.222 44.5234C167.477 48.325 169.173 52.4218 170.583 56.6287C170.072 51.9989 169.032 47.4484 167.059 43.1886C163.609 35.7263 156.469 28.7442 147.5 28.2993C142.368 28.0438 135.949 29.9864 133.408 34.5413C132.822 35.5898 132.337 36.6734 131.936 37.7747C134.549 34.4841 138.033 31.8718 141.958 30.3477H141.954Z"
            fill="#965C51" />
        <path
            d="M122.311 101.949C123.483 104.49 126.399 108.076 128.536 110.521C124.818 125.71 120.875 141.084 125.646 149.374C150.848 155.286 174.587 144.595 174.587 144.595L169.076 131.763C169.076 131.763 168.635 120.115 168.146 107.49C168.094 106.283 168.05 105.059 168.006 103.847C167.464 90.1297 166.904 76.465 166.821 76.2932C166.776 76.2095 166.521 76.0905 166.116 75.954C164.759 75.487 161.728 74.791 159.741 74.3549C158.631 74.1126 157.852 73.9496 157.852 73.9496C157.852 73.9496 153.209 82.8392 147.187 82.1696C141.297 81.5177 138.584 73.8836 138.368 73.5796L136.606 74.0289L131.469 75.3329C131.469 75.3329 120.377 97.7374 122.32 101.944L122.311 101.949Z"
            fill="#415F4B" />
        <path
            d="M131.06 80.1257C131.06 80.1257 123.016 97.3497 123.064 100.394C123.108 103.433 128.536 110.521 128.536 110.521C128.536 110.521 120.302 103.244 120.928 99.68C121.553 96.1163 131.064 80.1257 131.064 80.1257H131.06Z"
            fill="#2D4935" />
        <path
            d="M164.53 108.415L168.147 107.495L184.82 103.248C184.82 103.248 184.305 101.777 183.507 99.5743C181.349 93.5833 177.115 82.1652 175.556 80.0816C173.419 77.2227 166.111 75.9496 166.111 75.9496V75.9584L165.076 97.1779L164.53 108.42V108.415Z"
            fill="#415F4B" />
        <path
            d="M125.646 149.374C150.848 155.286 174.587 144.595 174.587 144.595L169.076 131.763C169.076 131.763 168.635 120.115 168.146 107.49L184.82 103.244C184.82 103.244 184.304 101.772 183.507 99.5699L168.006 103.847L167.27 104.05L165.08 97.1735L161.684 86.4911L163.103 130.419L166.468 139.802C166.468 139.802 149.975 152.55 125.65 149.374H125.646Z"
            fill="#2D4935" />
        <path
            d="M147.262 125.692C147.262 125.692 147.399 125.736 147.654 125.82L147.742 125.86V125.851C150.68 126.833 178.53 139.718 184.529 131.529C187.604 127.335 183.569 110.605 181.816 104.01L171.525 106.627L168.662 107.363L173.552 120.842L170.671 120.437L150.302 117.587L149.949 117.543C149.949 117.543 149.909 117.534 149.887 117.534C149.865 117.525 149.848 117.525 149.835 117.525C149.535 117.494 149.266 117.45 149.099 117.428L149.015 117.419C149.015 117.419 149.006 117.419 149.002 117.411H148.993L148.984 117.402C148.962 117.402 148.954 117.393 148.954 117.393H148.945L148.698 118.569L148.561 119.274V119.283L147.892 122.551L147.751 123.234L147.324 125.358L147.262 125.657V125.666L147.253 125.688L147.262 125.692Z"
            fill="#F3A080" />
        <path
            d="M148.566 119.283V119.292H148.579L149.328 119.428L149.465 119.45L174.794 123.86L171.525 106.631L168.662 107.367L168.147 107.495L167.653 107.622L170.675 120.441L150.306 117.591L149.954 117.547C149.954 117.547 149.914 117.538 149.892 117.538C149.87 117.53 149.852 117.53 149.839 117.53C149.539 117.499 149.271 117.455 149.103 117.433L149.02 117.424C149.02 117.424 149.011 117.424 149.006 117.415H148.998L148.989 117.406C148.967 117.406 148.958 117.397 148.958 117.397H148.949L148.566 119.278V119.283Z"
            fill="#F8BF92" />
        <path
            d="M125.408 109.548C125.752 108.622 141.456 111.045 141.456 111.045C139.822 109.125 138.87 106.623 138.809 104.098C138.809 104.076 138.809 104.05 138.809 104.028C138.813 103.799 138.857 103.552 139.051 103.446C139.143 103.394 139.253 103.385 139.359 103.389C140.258 103.402 141.064 103.984 141.632 104.684C142.2 105.38 142.584 106.213 143.064 106.966C143.989 108.42 145.403 109.442 146.804 110.442C149.169 112.142 148.945 117.406 148.945 117.406C148.945 117.406 149.346 117.543 149.887 117.741L147.262 125.679L144.399 124.556L142.289 125.336C140.707 125.692 125.968 121.895 125.932 120.878C125.924 120.604 125.937 120.3 125.968 120.01C126.012 119.56 126.087 119.137 126.135 118.86C126.175 118.653 126.205 118.53 126.205 118.53C126.205 118.53 126.003 118.001 125.857 117.358C125.761 116.979 125.686 116.565 125.672 116.199C125.655 115.803 125.721 115.464 125.919 115.296C126.117 115.124 127.082 115.045 128.346 115.019C131.47 114.939 136.434 115.138 136.236 114.825C135.958 114.393 125.448 111.248 125.448 111.248C125.448 111.248 125.289 110.944 125.258 110.49C125.241 110.221 125.263 109.9 125.391 109.556L125.408 109.548Z"
            fill="#F3A080" />
        <path
            d="M125.862 117.349C126.144 117.393 126.43 117.437 126.725 117.472C128.434 117.679 130.003 117.662 131.13 117.587C132.188 117.516 132.87 117.406 132.95 117.393C132.87 117.375 132.205 117.208 131.17 117.005C130.064 116.785 128.549 116.516 126.866 116.314C126.461 116.265 126.064 116.226 125.681 116.186C125.694 116.552 125.769 116.966 125.862 117.345V117.349Z"
            fill="#B54B57" />
        <path
            d="M125.972 120.001C128.685 120.38 130.919 120.217 131.06 120.204C130.928 120.146 128.84 119.314 126.135 118.851C126.086 119.129 126.011 119.552 125.972 120.001Z"
            fill="#B54B57" />
        <path
            d="M149.39 119.604C149.346 119.587 149.293 119.574 149.253 119.56C149.024 119.481 148.786 119.397 148.561 119.287C148.385 119.186 148.222 119.076 148.086 118.926C147.716 118.53 147.619 117.957 147.557 117.419C147.337 115.675 147.262 113.851 146.421 112.305C145.429 110.481 143.526 109.345 142.214 107.733C141.262 106.561 140.571 105.112 139.297 104.301C139.143 104.204 138.98 104.116 138.808 104.019C138.813 103.799 138.857 103.543 139.046 103.438C139.143 103.389 139.249 103.38 139.355 103.38C140.253 103.394 141.064 103.975 141.628 104.68C142.196 105.376 142.579 106.204 143.064 106.957C143.989 108.415 145.403 109.433 146.799 110.437C149.169 112.138 148.949 117.397 148.949 117.397C148.949 117.397 149.354 117.472 149.83 117.521C149.865 117.521 149.905 117.53 149.945 117.534L150.297 117.582L149.385 119.604H149.39Z"
            fill="#F8BF92" />
    </g>
    <path
        d="M114.1 54.642L123.06 56.8005L118.619 50.6773C118.619 50.6773 120.016 25.3699 118.214 25.4183C116.412 25.4668 100.585 22.251 100.585 22.251L81.5635 41.2592C81.5635 41.2592 88.9949 60.7783 89.7086 60.6109C90.4222 60.4435 106.179 62.5624 106.179 62.5624L114.095 54.6464L114.1 54.642Z"
        fill="white" />
    <path
        d="M103.105 34.625C101.497 35.1228 100.193 36.4972 99.7831 38.1271C99.5761 38.9597 99.5761 39.8627 99.1355 40.5984C98.4439 41.7525 96.9462 42.0785 95.6158 42.2415C94.2811 42.4001 92.801 42.5719 91.9199 43.5851C91.0609 44.5762 91.0742 46.0519 91.3781 47.325C91.7525 48.9065 92.5587 50.4703 93.9551 51.3073C94.889 51.8667 95.9991 52.0517 97.0783 52.1927C99.4703 52.5055 101.986 52.6464 104.206 51.7037C105.902 50.9813 107.298 49.6553 108.285 48.0959C109.272 46.5409 109.866 44.7612 110.223 42.9507C110.479 41.66 110.611 40.3209 110.377 39.0258C110.122 37.6249 109.338 35.9686 107.977 35.3299C106.497 34.6383 104.721 34.1229 103.113 34.6206L103.105 34.625Z"
        fill="#AFE6D8" />
    <path d="M92.4545 34.7929L89.8208 39.6035L111.142 51.2766L113.776 46.466L92.4545 34.7929Z"
        fill="#87D4C0" />
    <path d="M110.317 34.02L106.013 31.3642L93.2477 52.0497L97.5513 54.7056L110.317 34.02Z"
        fill="#87D4C0" />
    <path d="M62.3834 25.7663L61.335 14.8856L67.9162 16.0178L62.3834 25.7663Z" fill="#22B99A" />
    <path d="M69.1056 27.9469L77.7264 27.5152L76.5943 32.6648L69.1056 27.9469Z" fill="#22B99A" />
    <path d="M66.8326 26.6429L74.3302 12.4496L81.4885 19.1498L66.8326 26.6429Z" fill="#22B99A" />
    <path d="M115.822 136.049L106.933 132.15L107.373 137.322L115.822 136.049Z" fill="#48311F" />
    <path d="M114.056 139.097L99.1312 140.229L101.321 147.137L114.056 139.097Z" fill="#48311F" />
    <path d="M114.99 141.458L106.677 148.934L113.091 150.678L114.99 141.458Z" fill="#48311F" />
</svg>
