<svg width="24" height="25" viewBox="0 0 24 25" fill="none" xmlns="http://www.w3.org/2000/svg">
<g id="Icon 01">
<path id="Shape" d="M7.75 12.5C7.75 13.4665 6.9665 14.25 6 14.25C5.0335 14.25 4.25 13.4665 4.25 12.5C4.25 11.5335 5.0335 10.75 6 10.75C6.9665 10.75 7.75 11.5335 7.75 12.5ZM13.75 12.5C13.75 13.4665 12.9665 14.25 12 14.25C11.0335 14.25 10.25 13.4665 10.25 12.5C10.25 11.5335 11.0335 10.75 12 10.75C12.9665 10.75 13.75 11.5335 13.75 12.5ZM18 14.25C18.9665 14.25 19.75 13.4665 19.75 12.5C19.75 11.5335 18.9665 10.75 18 10.75C17.0335 10.75 16.25 11.5335 16.25 12.5C16.25 13.4665 17.0335 14.25 18 14.25Z" fill="#808080"/>
</g>
</svg>
