<svg width="20" height="20" viewBox="0 0 20 20" fill="none" xmlns="http://www.w3.org/2000/svg">
    <g id="ant-design:instagram-outlined">
        <path id="Vector"
            d="M10.0001 5.99423C7.7833 5.99423 5.99423 7.7833 5.99423 10.0001C5.99423 12.2169 7.7833 14.006 10.0001 14.006C12.2169 14.006 14.006 12.2169 14.006 10.0001C14.006 7.7833 12.2169 5.99423 10.0001 5.99423ZM10.0001 12.6036C8.5665 12.6036 7.39658 11.4337 7.39658 10.0001C7.39658 8.5665 8.5665 7.39658 10.0001 7.39658C11.4337 7.39658 12.6036 8.5665 12.6036 10.0001C12.6036 11.4337 11.4337 12.6036 10.0001 12.6036ZM14.17 4.89658C13.6524 4.89658 13.2345 5.31455 13.2345 5.83212C13.2345 6.3497 13.6524 6.76767 14.17 6.76767C14.6876 6.76767 15.1056 6.35166 15.1056 5.83212C15.1057 5.70922 15.0816 5.5875 15.0347 5.47392C14.9877 5.36035 14.9188 5.25715 14.8319 5.17025C14.745 5.08334 14.6418 5.01444 14.5282 4.96748C14.4146 4.92052 14.2929 4.89642 14.17 4.89658ZM17.8087 10.0001C17.8087 8.92197 17.8185 7.85361 17.7579 6.77744C17.6974 5.52744 17.4122 4.41806 16.4981 3.504C15.5821 2.58798 14.4747 2.30478 13.2247 2.24423C12.1466 2.18369 11.0782 2.19345 10.002 2.19345C8.92392 2.19345 7.85556 2.18369 6.77939 2.24423C5.52939 2.30478 4.42001 2.58994 3.50595 3.504C2.58994 4.42001 2.30673 5.52744 2.24619 6.77744C2.18564 7.85556 2.19541 8.92392 2.19541 10.0001C2.19541 11.0763 2.18564 12.1466 2.24619 13.2227C2.30673 14.4727 2.59189 15.5821 3.50595 16.4962C4.42197 17.4122 5.52939 17.6954 6.77939 17.756C7.85751 17.8165 8.92587 17.8067 10.002 17.8067C11.0802 17.8067 12.1485 17.8165 13.2247 17.756C14.4747 17.6954 15.5841 17.4102 16.4981 16.4962C17.4142 15.5802 17.6974 14.4727 17.7579 13.2227C17.8204 12.1466 17.8087 11.0782 17.8087 10.0001ZM16.0899 14.6056C15.9474 14.961 15.7755 15.2267 15.5001 15.5001C15.2247 15.7755 14.961 15.9474 14.6056 16.0899C13.5782 16.4981 11.1388 16.4063 10.0001 16.4063C8.86142 16.4063 6.42001 16.4981 5.39267 16.0919C5.0372 15.9493 4.77158 15.7774 4.49814 15.502C4.22275 15.2267 4.05087 14.963 3.9083 14.6075C3.50205 13.5782 3.59384 11.1388 3.59384 10.0001C3.59384 8.86142 3.50205 6.42001 3.9083 5.39267C4.05087 5.0372 4.22275 4.77158 4.49814 4.49814C4.77353 4.2247 5.0372 4.05087 5.39267 3.9083C6.42001 3.50205 8.86142 3.59384 10.0001 3.59384C11.1388 3.59384 13.5802 3.50205 14.6075 3.9083C14.963 4.05087 15.2286 4.22275 15.502 4.49814C15.7774 4.77353 15.9493 5.0372 16.0919 5.39267C16.4981 6.42001 16.4063 8.86142 16.4063 10.0001C16.4063 11.1388 16.4981 13.5782 16.0899 14.6056Z"
            fill="black" />
    </g>
</svg>
