<svg width="388" height="281" viewBox="0 0 388 281" fill="none" xmlns="http://www.w3.org/2000/svg">
    <g clip-path="url(#clip0_117_44224)">
        <path
            d="M374.2 140.2C370.8 113.2 362.3 87.1001 352.2 68.4001C327.7 23.5001 259.5 -6.49989 208.1 1.20011C164.3 7.80011 143.2 47.8001 103.7 61.7001C67.4001 74.5001 34.6001 84.3001 17.5001 118C-18.6999 189.1 70.0001 266.9 146 260.8C170 258.9 191.4 249.7 216.1 254C266.1 262.8 282.7 272.2 326.9 254.7C370.4 237.4 380.1 187.5 374.2 140.3V140.2Z"
            fill="#22B99A" />
        <path opacity="0.8"
            d="M374.2 140.2C370.8 113.2 362.3 87.1001 352.2 68.4001C327.7 23.5001 259.5 -6.49989 208.1 1.20011C164.3 7.80011 143.2 47.8001 103.7 61.7001C67.4001 74.5001 34.6001 84.3001 17.5001 118C-18.6999 189.1 70.0001 266.9 146 260.8C170 258.9 191.4 249.7 216.1 254C266.1 262.8 282.7 272.2 326.9 254.7C370.4 237.4 380.1 187.5 374.2 140.3V140.2Z"
            fill="white" />
        <path d="M199.2 276.1L156.6 180.6H259.9L387.4 264.7" fill="white" />
        <path d="M199.2 276.1L156.6 180.6H259.9L387.4 264.7" stroke="#263238" stroke-width="0.8"
            stroke-linecap="round" stroke-linejoin="round" />
        <path d="M188.7 272.3L156.6 187V180.6L202 280.5L188.7 272.3Z" fill="#263238"
            stroke="#263238" stroke-width="0.8" stroke-linecap="round" stroke-linejoin="round" />
        <path d="M215.7 184.5L259.6 236.1L206.3 248.5L176 190.9L215.7 184.5Z" fill="white"
            stroke="#263238" stroke-width="0.8" stroke-linecap="round" stroke-linejoin="round" />
        <path d="M206.3 248.5V250L258.7 239.4L259.6 236.1L206.3 248.5Z" fill="#263238"
            stroke="#263238" stroke-width="0.8" stroke-linecap="round" stroke-linejoin="round" />
        <path d="M214 203.1L216.3 206.4L222 204.8L219.6 201.6L214 203.1Z" fill="#263238" />
        <path d="M235.7 223.4L233 219.7L226.5 221.5L229 225.2L235.7 223.4Z" fill="#263238" />
        <path d="M209.3 196.2L211 198.6L216.4 197.3L214.7 195L209.3 196.2Z" fill="#263238" />
        <path d="M219.7 211.5L222.8 216.1L229.1 214.5L225.7 209.8L219.7 211.5Z" fill="#263238" />
        <path d="M236 213.6L230.6 215L233.3 218.7L238.8 217.2L236 213.6Z" fill="#263238" />
        <path d="M223.3 216.9L225.9 220.7L232.4 218.9L229.7 215.2L223.3 216.9Z" fill="#263238" />
        <path d="M203.3 197.5L204.9 200.2L210.1 198.9L208.4 196.4L203.3 197.5Z" fill="#263238" />
        <path d="M216.8 207.2L219.2 210.7L225.1 209.1L222.6 205.6L216.8 207.2Z" fill="#263238" />
        <path d="M211.6 199.4L213.5 202.3L219 200.8L217 198.1L211.6 199.4Z" fill="#263238" />
        <path d="M199.9 205.9L198.2 202.8L192.1 204.4L193.8 207.5L199.9 205.9Z" fill="#263238" />
        <path d="M191.1 213.2L195.3 212.1L193.4 208.5L189.2 209.6L191.1 213.2Z" fill="#263238" />
        <path d="M201.4 194.6L202.8 196.7L207.8 195.6L206.5 193.5L201.4 194.6Z" fill="#263238" />
        <path d="M197.8 202L196.2 199.1L189.9 200.5L191.7 203.6L197.8 202Z" fill="#263238" />
        <path d="M195.4 195.8L196.6 198L201.8 196.9L200.5 194.8L195.4 195.8Z" fill="#263238" />
        <path d="M186.7 204.8L190.7 203.8L189 200.7L185 201.6L186.7 204.8Z" fill="#263238" />
        <path d="M188.2 197.3L189.5 199.6L195.7 198.2L194.5 196L188.2 197.3Z" fill="#263238" />
        <path d="M207.7 204.7L209.8 208.1L215.3 206.6L213.1 203.3L207.7 204.7Z" fill="#263238" />
        <path d="M221.9 216.3L218.8 211.7L213.1 213.3L215.8 217.8L221.9 216.3Z" fill="#263238" />
        <path d="M197.1 198.9L198.7 201.8L204 200.4L202.3 197.7L197.1 198.9Z" fill="#263238" />
        <path d="M198.3 217.4L194 218.6L196.2 222.8L200.7 221.7L198.3 217.4Z" fill="#263238" />
        <path d="M210.3 208.9L212.6 212.5L218.3 211L215.9 207.4L210.3 208.9Z" fill="#263238" />
        <path d="M206.3 204.2L204.5 201.2L199.2 202.6L200.8 205.6L206.3 204.2Z" fill="#263238" />
        <path d="M216.4 235.5L210.2 237.1L212.4 241L218.6 239.5L216.4 235.5Z" fill="#263238" />
        <path d="M206.9 192.5L212.1 191.5L209.3 187.6L204.2 188.5L206.9 192.5Z" fill="#263238" />
        <path d="M194 195.2L191.5 190.6L185.1 191.6L187.7 196.4L194 195.2Z" fill="#263238" />
        <path d="M202.3 210.2L200.4 206.7L194.3 208.3L196.2 211.8L202.3 210.2Z" fill="#263238" />
        <path d="M217.9 222.8L215.4 218.9L209.1 220.5L211.3 224.6L217.9 222.8Z" fill="#263238" />
        <path d="M214.9 218.1L212.1 213.6L206.2 215.2L208.6 219.7L214.9 218.1Z" fill="#263238" />
        <path d="M225 220.9L222.4 217.1L216.3 218.6L218.8 222.6L225 220.9Z" fill="#263238" />
        <path d="M208.9 208.4L206.8 205L201.3 206.4L203.2 209.9L208.9 208.4Z" fill="#263238" />
        <path d="M205.4 201L207.2 203.9L212.6 202.5L210.6 199.7L205.4 201Z" fill="#263238" />
        <path d="M211.6 212.8L209.4 209.2L203.7 210.7L205.7 214.4L211.6 212.8Z" fill="#263238" />
        <path d="M228.1 225.5L225.5 221.7L219.3 223.4L221.7 227.2L228.1 225.5Z" fill="#263238" />
        <path d="M224 232.6L221.3 228.3L214.4 230.2L216.8 234.5L224 232.6Z" fill="#263238" />
        <path d="M203.5 226.7L201.1 222.5L196.6 223.6L198.9 228L203.5 226.7Z" fill="#263238" />
        <path d="M195.8 212.9L191.6 214L193.5 217.8L197.8 216.6L195.8 212.9Z" fill="#263238" />
        <path d="M215.9 234.7L213.5 230.4L207.5 232.1L209.8 236.3L215.9 234.7Z" fill="#263238" />
        <path d="M204.8 214.7L202.8 211L196.7 212.6L198.7 216.3L204.8 214.7Z" fill="#263238" />
        <path d="M207.4 193.3L208.8 195.3L214.1 194.2L212.7 192.3L207.4 193.3Z" fill="#263238" />
        <path d="M184.5 200.7L188.5 199.8L187.2 197.5L183.2 198.3L184.5 200.7Z" fill="#263238" />
        <path d="M200.9 193.7L205.9 192.7L203.2 188.7L198.3 189.5L200.9 193.7Z" fill="#263238" />
        <path d="M194.9 195L200 193.9L197.3 189.6L192.4 190.4L194.9 195Z" fill="#263238" />
        <path d="M192.9 207.7L191.2 204.6L187.1 205.7L188.8 208.8L192.9 207.7Z" fill="#263238" />
        <path d="M213.1 191.3L217.6 190.3L214.8 186.7L210.3 187.5L213.1 191.3Z" fill="#263238" />
        <path d="M186.8 196.6L184.1 191.8L180.1 192.5L182.8 197.5L186.8 196.6Z" fill="#263238" />
        <path d="M209.3 237.3L204.5 238.5L206.6 242.5L211.5 241.2L209.3 237.3Z" fill="#263238" />
        <path d="M232.1 231.5L225.4 233.2L227.9 237.2L234.8 235.5L232.1 231.5Z" fill="#263238" />
        <path d="M224.5 233.5L217.3 235.3L219.5 239.3L226.9 237.4L224.5 233.5Z" fill="#263238" />
        <path d="M240.1 229.5L233.1 231.3L235.8 235.2L243.1 233.4L240.1 229.5Z" fill="#263238" />
        <path d="M247.1 227.7L241.1 229.2L244 233.2L250.2 231.7L247.1 227.7Z" fill="#263238" />
        <path d="M206.6 232.3L201.9 233.6L204.1 237.7L208.9 236.5L206.6 232.3Z" fill="#263238" />
        <path d="M220.8 227.5L218.4 223.6L211.8 225.4L214 229.3L220.8 227.5Z" fill="#263238" />
        <path d="M231.6 230.7L228.6 226.3L222.2 228L224.9 232.4L231.6 230.7Z" fill="#263238" />
        <path d="M213.1 229.6L210.9 225.7L204.8 227.3L207 231.2L213.1 229.6Z" fill="#263238" />
        <path d="M201.5 232.8L206.1 231.5L203.9 227.6L199.4 228.8L201.5 232.8Z" fill="#263238" />
        <path d="M207.7 219.9L205.3 215.5L199.2 217.2L201.6 221.5L207.7 219.9Z" fill="#263238" />
        <path d="M239.6 228.7L236.3 224.2L229.5 226L232.5 230.5L239.6 228.7Z" fill="#263238" />
        <path d="M210.4 224.9L208.2 220.7L202 222.3L204.4 226.5L210.4 224.9Z" fill="#263238" />
        <path d="M226.6 209.6L230 214.2L235.4 212.8L231.7 208.2L226.6 209.6Z" fill="#263238" />
        <path d="M220 200.6L224.7 199.3L222.6 196.6L217.9 197.8L220 200.6Z" fill="#263238" />
        <path d="M215.7 194.8L217.4 197L222 195.8L220.3 193.7L215.7 194.8Z" fill="#263238" />
        <path d="M246.5 226.9L242.9 222.4L237.2 223.9L240.5 228.4L246.5 226.9Z" fill="#263238" />
        <path d="M220.6 201.4L222.9 204.6L227.8 203.3L225.3 200.1L220.6 201.4Z" fill="#263238" />
        <path d="M233.9 219.4L236.6 223.1L242.3 221.6L239.4 218L233.9 219.4Z" fill="#263238" />
        <path d="M215.1 194L219.7 192.9L218.2 191.1L213.7 192.1L215.1 194Z" fill="#263238" />
        <path d="M226 208.8L231.1 207.4L228.4 204L223.5 205.4L226 208.8Z" fill="#263238" />
        <path
            d="M266.6 190.3V198.5C266.6 198.5 265.4 199.7 263.9 200.6C262.4 201.5 250 203.6 250 203.6L265.8 220.9C265.8 220.9 280.2 219.3 284.3 218.2C288.5 217 287.6 201.5 287.6 201.5L266.7 190.3H266.6Z"
            fill="white" stroke="#263238" stroke-width="0.8" stroke-linecap="round"
            stroke-linejoin="round" />
        <path
            d="M266.6 190.3V198.5C266.6 198.5 266.4 198.7 266 199L284.4 218.1C288.3 216.3 287.5 201.5 287.5 201.5L266.6 190.3Z"
            fill="#263238" stroke="#263238" stroke-width="0.8" stroke-linecap="round"
            stroke-linejoin="round" />
        <path d="M238.7 85.7V172.4L304.8 224.6V90.6L238.7 85.7Z" fill="white" stroke="#263238"
            stroke-width="0.8" stroke-linecap="round" stroke-linejoin="round" />
        <path d="M243.3 90.2V163.3L298.8 197.6V95.1L243.3 90.2Z" fill="#22B99A" stroke="#263238"
            stroke-width="0.8" stroke-linecap="round" stroke-linejoin="round" />
        <path d="M311.5 90.5999H304.8V224.6H311.5V90.5999Z" fill="#263238" stroke="#263238"
            stroke-width="0.8" stroke-linecap="round" stroke-linejoin="round" />
        <path d="M246.9 94.8L247.2 160L293.6 186.4V105.6L261.8 100.8L259.6 96.3L246.9 94.8Z"
            fill="white" stroke="#263238" stroke-width="0.8" stroke-linecap="round"
            stroke-linejoin="round" />
        <path d="M249.9 102.7V158.2L290.9 180V110L249.9 102.7Z" fill="#22B99A" stroke="#263238"
            stroke-width="0.8" stroke-linecap="round" stroke-linejoin="round" />
        <path
            d="M280.6 145.3C280.6 137.3 275.4 129.5 269.1 127.9C262.7 126.3 257.6 131.5 257.6 139.6C257.6 147.7 262.8 155.4 269.1 157C275.5 158.6 280.6 153.4 280.6 145.3Z"
            fill="#263238" />
        <path
            d="M270.3 143.3L274.2 139C274.7 138.4 274.7 137.2 274.2 136.4C273.6 135.6 272.7 135.4 272.2 136L268.5 140.2L264.8 134.2C264.3 133.3 263.3 133.1 262.8 133.6C262.2 134.1 262.2 135.3 262.8 136.2L266.7 142.4L262.8 146.7C262.3 147.3 262.3 148.5 262.8 149.3C263.1 149.7 263.4 149.9 263.8 150C264.2 150 264.6 150 264.9 149.7L268.6 145.5L272.3 151.5C272.6 152 273 152.2 273.4 152.3C273.8 152.3 274.1 152.3 274.4 152.1C275 151.6 275 150.4 274.4 149.5L270.5 143.3H270.3Z"
            fill="white" />
        <path d="M257.2 121.5L280.1 128.2" stroke="#263238" stroke-width="0.8"
            stroke-linecap="round" stroke-linejoin="round" />
        <path d="M256.3 115.1L286 123.4" stroke="#263238" stroke-width="0.8" stroke-linecap="round"
            stroke-linejoin="round" />
        <path
            d="M276.8 258C276.8 258 262.3 259.3 257 263.6C251.6 267.9 255.7 270 260.8 271.4C265.9 272.7 288.7 270.6 291.6 267.6C294.6 264.6 291.6 257.4 276.8 257.9V258Z"
            fill="white" stroke="#263238" stroke-width="0.8" stroke-linecap="round"
            stroke-linejoin="round" />
        <path
            d="M291.5 267.6C292.1 267 292.4 266.3 292.5 265.5C286 265.2 277.5 267.1 269.8 269.5C266.6 270.5 264 271.2 261.9 271.6C268.6 272.5 288.8 270.4 291.6 267.6H291.5Z"
            fill="#263238" stroke="#263238" stroke-width="0.8" stroke-linecap="round"
            stroke-linejoin="round" />
        <path d="M225.4 98.8L236 104.3" stroke="#263238" stroke-linecap="round"
            stroke-linejoin="round" />
        <path d="M219.3 95.7L222.5 97.3" stroke="#263238" stroke-linecap="round"
            stroke-linejoin="round" />
        <path d="M227.7 126.6L231.3 127" stroke="#263238" stroke-linecap="round"
            stroke-linejoin="round" />
        <path d="M214 125L223.7 126.1" stroke="#263238" stroke-linecap="round"
            stroke-linejoin="round" />
        <path d="M230 152.3L218 155.7" stroke="#263238" stroke-linecap="round"
            stroke-linejoin="round" />
        <path
            d="M214.5 5.69995C198.6 5.69995 185.8 18.5 185.8 34.4C185.8 50.3 198.6 63.0999 214.5 63.0999C230.4 63.0999 243.2 50.2 243.2 34.4C243.2 18.6 230.4 5.69995 214.5 5.69995ZM214.5 57.5C201.8 57.5 191.4 47.2 191.4 34.4C191.4 21.6 201.7 11.3 214.5 11.3C227.3 11.3 237.6 21.6 237.6 34.4C237.6 47.2 227.3 57.5 214.5 57.5Z"
            fill="#263238" />
        <path
            d="M216.6 34.3999C216.6 35.4999 215.7 36.4999 214.5 36.4999C213.3 36.4999 212.4 35.5999 212.4 34.3999C212.4 33.1999 213.3 32.3999 214.5 32.3999C215.7 32.3999 216.6 33.2999 216.6 34.3999Z"
            fill="#263238" />
        <path d="M207.6 44.7999L214.5 34.3999L226.1 43.9999" stroke="#263238" stroke-linecap="round"
            stroke-linejoin="round" />
        <path
            d="M62.2001 56.4L58.8 47L60.6 49V45.8L64.5 51.8L61.1 30.4L65.7 42.1L66.1 31.8L66.8001 35.2L67.7 23.5L69.3001 41.4L71.6 35.2L71.2 43.3L77.4001 24.9L74.4001 47.9L78.8001 44.7L76.2 48.8L79.5 46.5L75.8001 57.1L62.4001 57.3"
            fill="#22B99A" />
        <path d="M77 79.5999H62.5999L58.7 54.7H80.8L77 79.5999Z" fill="#263238" stroke="#263238"
            stroke-linecap="round" stroke-linejoin="round" />
        <path d="M116.3 79.3999H43.7V272.5H116.3V79.3999Z" fill="white" stroke="#263238"
            stroke-linecap="round" stroke-linejoin="round" />
        <path d="M111.4 85.7998H48V132.3H111.4V85.7998Z" stroke="#263238" stroke-linecap="round"
            stroke-linejoin="round" />
        <path d="M92.4 104.8H67V113.3H92.4V104.8Z" fill="#263238" />
        <path d="M111.4 140.1H48V186.6H111.4V140.1Z" stroke="#263238" stroke-linecap="round"
            stroke-linejoin="round" />
        <path d="M92.4 159.1H67V167.6H92.4V159.1Z" fill="#263238" />
        <path d="M111.4 194.3H48V240.8H111.4V194.3Z" stroke="#263238" stroke-linecap="round"
            stroke-linejoin="round" />
        <path d="M92.4 213.4H67V221.9H92.4V213.4Z" fill="#263238" />
        <mask id="mask0_117_44224" style="mask-type:luminance" maskUnits="userSpaceOnUse" x="0"
            y="45" width="230" height="229">
            <path d="M230 45.7H0V273.7H230V45.7Z" fill="white" />
        </mask>
        <g mask="url(#mask0_117_44224)">
            <path
                d="M124.1 261.5C124.1 261.5 160.5 245.4 180 244.2L194.2 275.7H86.6001L124.2 261.5H124.1Z"
                fill="#263238" stroke="#263238" stroke-width="0.8" stroke-linecap="round"
                stroke-linejoin="round" />
            <path
                d="M168.4 71.5999C168.4 71.5999 194 102 199.4 107.6C204.8 113.2 205 117.2 203.3 119.7C201.6 122.2 188.5 126.8 175 135.5C161.5 144.2 123.2 166.5 122.8 167.3C122.4 168.1 118.8 140.3 118.8 140.3L182.9 113.9L182.7 112L161.9 73.4999L168.4 71.5999Z"
                fill="white" />
            <mask id="mask1_117_44224" style="mask-type:luminance" maskUnits="userSpaceOnUse"
                x="118" y="71" width="87" height="97">
                <path
                    d="M168.4 71.5999C168.4 71.5999 194 102 199.4 107.6C204.8 113.2 205 117.2 203.3 119.7C201.6 122.2 188.5 126.8 175 135.5C161.5 144.2 123.2 166.5 122.8 167.3C122.4 168.1 118.8 140.3 118.8 140.3L182.9 113.9L182.7 112L161.9 73.4999L168.4 71.5999Z"
                    fill="white" />
            </mask>
            <g mask="url(#mask1_117_44224)">
                <path
                    d="M193.1 116.5L163.3 73.0999L161.9 73.4999L182.7 112L182.9 113.9L118.8 140.3C118.8 140.3 118.8 140.8 119 141.6L123.2 151.2L193.2 116.5H193.1Z"
                    fill="#22B99A" />
                <path opacity="0.5"
                    d="M193.1 116.5L163.3 73.0999L161.9 73.4999L182.7 112L182.9 113.9L118.8 140.3C118.8 140.3 118.8 140.8 119 141.6L123.2 151.2L193.2 116.5H193.1Z"
                    fill="white" />
            </g>
            <path
                d="M168.4 71.5999C168.4 71.5999 194 102 199.4 107.6C204.8 113.2 205 117.2 203.3 119.7C201.6 122.2 188.5 126.8 175 135.5C161.5 144.2 123.2 166.5 122.8 167.3C122.4 168.1 118.8 140.3 118.8 140.3L182.9 113.9L182.7 112L161.9 73.4999L168.4 71.5999Z"
                stroke="#263238" stroke-width="0.8" stroke-linecap="round"
                stroke-linejoin="round" />
            <path
                d="M148 58.2999C148 58.2999 144.9 55.5999 143.4 58.2999C141.9 60.9999 141.7 65.3999 142.6 65.7999C143.5 66.1999 147.4 65.5999 148 64.4999C148.6 63.2999 148 58.2999 148 58.2999Z"
                fill="white" stroke="#263238" stroke-width="0.8" stroke-linecap="round"
                stroke-linejoin="round" />
            <path
                d="M153.4 56.8998C153.4 56.8998 150.1 53.3998 148 54.7998C145.9 56.0998 146.5 63.4998 147.2 63.9998C148 64.5998 152.6 62.9998 153.2 62.0998C153.8 61.0998 153.4 56.8998 153.4 56.8998Z"
                fill="white" stroke="#263238" stroke-width="0.8" stroke-linecap="round"
                stroke-linejoin="round" />
            <path
                d="M160.7 57.0999C160.7 57.0999 157.8 53.0999 155.1 53.0999C152.4 53.0999 150.5 62.6999 151.4 63.4999C152.4 64.2999 158.7 63.2999 159.1 62.6999C159.5 62.0999 160.6 57.0999 160.6 57.0999H160.7Z"
                fill="white" stroke="#263238" stroke-width="0.8" stroke-linecap="round"
                stroke-linejoin="round" />
            <path
                d="M166.3 63.6999C166.3 62.4999 165.7 52.4999 162.3 53.0999C158.9 53.6999 155.2 61.7999 155.4 63.0999C155.6 64.3999 166.4 63.6999 166.4 63.6999H166.3Z"
                fill="white" stroke="#263238" stroke-width="0.8" stroke-linecap="round"
                stroke-linejoin="round" />
            <path d="M182.8 113.9C182.8 113.9 192.6 117.6 196.3 117.4Z" fill="white" />
            <path d="M182.8 113.9C182.8 113.9 192.6 117.6 196.3 117.4" stroke="#263238"
                stroke-width="0.8" stroke-linecap="round" stroke-linejoin="round" />
            <path
                d="M102.1 276.1C112.6 274.3 126 267.1 129.9 258.1C126.9 242.4 123.1 220.3 123.1 206.8C123.1 184.1 129.1 171.2 126.4 155.8C123.7 140.4 117.9 130.4 111.8 126.3C111.8 126.3 102.4 128.8 92.6999 137.9C83.0999 147 74.6 162.5 71.3 177.4C68 192.2 63.5999 237.9 63.5999 249.8C63.5999 261.7 62.7 276.6 62.7 276.6C74.2 276.6 85.8 276.6 97.3 276.6C98.8 276.6 100.3 276.5 102 276.2L102.1 276.1Z"
                fill="white" />
            <mask id="mask2_117_44224" style="mask-type:luminance" maskUnits="userSpaceOnUse" x="62"
                y="126" width="68" height="151">
                <path
                    d="M102.1 276.1C112.6 274.3 126 267.1 129.9 258.1C126.9 242.4 123.1 220.3 123.1 206.8C123.1 184.1 129.1 171.2 126.4 155.8C123.7 140.4 117.9 130.4 111.8 126.3C111.8 126.3 102.4 128.8 92.6999 137.9C83.0999 147 74.6 162.5 71.3 177.4C68 192.2 63.5999 237.9 63.5999 249.8C63.5999 261.7 62.7 276.6 62.7 276.6C74.2 276.6 85.8 276.6 97.3 276.6C98.8 276.6 100.3 276.5 102 276.2L102.1 276.1Z"
                    fill="white" />
            </mask>
            <g mask="url(#mask2_117_44224)">
                <path
                    d="M129.9 258C124 263 97.7001 272.7 93.8001 273.6C89.9001 274.5 92.1 266.3 98.1 258.2C104.1 250.1 90.8 261.2 88.7 262.1C86.6 263 89.6 246.3 89.6 238.1C89.6 229.9 97.3001 160.6 97.3001 160.6L111.9 134.1L116.9 131.1C115.3 129.1 113.6 127.4 111.9 126.3C111.9 126.3 102.5 128.8 92.8001 137.9C83.2001 147 74.7001 162.5 71.4001 177.4C68.1001 192.2 63.7001 237.9 63.7001 249.8C63.7001 261.7 62.8 276.6 62.8 276.6C74.3 276.6 85.9001 276.6 97.4001 276.6C98.9001 276.6 100.4 276.5 102.1 276.2C112.6 274.4 126 267.2 129.9 258.2V258Z"
                    fill="#22B99A" />
                <path opacity="0.5"
                    d="M129.9 258C124 263 97.7001 272.7 93.8001 273.6C89.9001 274.5 92.1 266.3 98.1 258.2C104.1 250.1 90.8 261.2 88.7 262.1C86.6 263 89.6 246.3 89.6 238.1C89.6 229.9 97.3001 160.6 97.3001 160.6L111.9 134.1L116.9 131.1C115.3 129.1 113.6 127.4 111.9 126.3C111.9 126.3 102.5 128.8 92.8001 137.9C83.2001 147 74.7001 162.5 71.4001 177.4C68.1001 192.2 63.7001 237.9 63.7001 249.8C63.7001 261.7 62.8 276.6 62.8 276.6C74.3 276.6 85.9001 276.6 97.4001 276.6C98.9001 276.6 100.4 276.5 102.1 276.2C112.6 274.4 126 267.2 129.9 258.2V258Z"
                    fill="white" />
            </g>
            <path
                d="M102.1 276.1C112.6 274.3 126 267.1 129.9 258.1C126.9 242.4 123.1 220.3 123.1 206.8C123.1 184.1 129.1 171.2 126.4 155.8C123.7 140.4 117.9 130.4 111.8 126.3C111.8 126.3 102.4 128.8 92.6999 137.9C83.0999 147 74.6 162.5 71.3 177.4C68 192.2 63.5999 237.9 63.5999 249.8C63.5999 261.7 62.7 276.6 62.7 276.6C74.2 276.6 85.8 276.6 97.3 276.6C98.8 276.6 100.3 276.5 102 276.2L102.1 276.1Z"
                stroke="#263238" stroke-width="0.8" stroke-linecap="round"
                stroke-linejoin="round" />
            <path
                d="M111.2 129.8L127.7 159.9L128.6 176.4C128.6 176.4 133.2 164.6 131.2 156.9C129.1 149.2 111.2 129.7 111.2 129.7V129.8Z"
                fill="#263238" stroke="#263238" stroke-width="0.8" stroke-linecap="round"
                stroke-linejoin="round" />
            <path d="M128.7 176.5L124 246.2L129.2 260.5L132.8 231.8L129.7 174.4L128.7 176.5Z"
                fill="#263238" stroke="#263238" stroke-width="0.8" stroke-linecap="round"
                stroke-linejoin="round" />
            <path
                d="M124.1 101.6C124.1 101.6 124.7 109.1 125.3 112.8C125.9 116.5 116.8 126.7 116.8 126.7L129.9 146.5L144.7 134.9C144.7 134.9 165.7 133.4 167.6 131.6C169.5 129.9 169.5 110.8 169.5 110.8L174.5 107.9C174.5 107.9 169.9 87.8998 168.7 83.3998L167.5 78.9998C167.5 78.9998 174.2 76.6998 172.7 69.8998C171.2 63.1998 161.3 59.8998 151.5 61.3998C141.7 62.8998 139.2 66.5998 139.2 66.5998C139.2 66.5998 125.3 66.3998 117.4 72.9998C109.5 79.4998 114.3 89.8998 116.8 93.5998C119.3 97.2998 123.9 101.5 123.9 101.5L124.1 101.6Z"
                fill="white" />
            <mask id="mask3_117_44224" style="mask-type:luminance" maskUnits="userSpaceOnUse"
                x="113" y="61" width="62" height="86">
                <path
                    d="M124.1 101.6C124.1 101.6 124.7 109.1 125.3 112.8C125.9 116.5 116.8 126.7 116.8 126.7L129.9 146.5L144.7 134.9C144.7 134.9 165.7 133.4 167.6 131.6C169.5 129.9 169.5 110.8 169.5 110.8L174.5 107.9C174.5 107.9 169.9 87.8998 168.7 83.3998L167.5 78.9998C167.5 78.9998 174.2 76.6998 172.7 69.8998C171.2 63.1998 161.3 59.8998 151.5 61.3998C141.7 62.8998 139.2 66.5998 139.2 66.5998C139.2 66.5998 125.3 66.3998 117.4 72.9998C109.5 79.4998 114.3 89.8998 116.8 93.5998C119.3 97.2998 123.9 101.5 123.9 101.5L124.1 101.6Z"
                    fill="white" />
            </mask>
            <g mask="url(#mask3_117_44224)">
                <path
                    d="M147.4 128.5C143.5 123.8 147.4 105.8 150.4 96.7997C153.4 87.7997 146.1 83.9997 146.1 83.9997L168 80.1997C167.7 79.0997 167.7 79.0997 167.7 79.0997C167.7 79.0997 169.9 78.2997 171.5 76.3997L172.7 69.4997C170.7 63.1997 161.2 60.0997 151.7 61.5997C141.9 63.0997 139.4 66.7997 139.4 66.7997C139.4 66.7997 125.5 66.5997 117.6 73.1997C109.7 79.6997 114.5 90.0997 117 93.7997C119.5 97.4997 124.1 101.7 124.1 101.7C124.1 101.7 124.7 109.2 125.3 112.9C125.9 116.6 116.8 126.8 116.8 126.8L129.9 146.6L144.7 135C144.7 135 160.7 133.8 166.1 132.4L167.7 131.8C167.7 131.8 151.3 133.4 147.4 128.7V128.5Z"
                    fill="#22B99A" />
                <path opacity="0.5"
                    d="M147.4 128.5C143.5 123.8 147.4 105.8 150.4 96.7997C153.4 87.7997 146.1 83.9997 146.1 83.9997L168 80.1997C167.7 79.0997 167.7 79.0997 167.7 79.0997C167.7 79.0997 169.9 78.2997 171.5 76.3997L172.7 69.4997C170.7 63.1997 161.2 60.0997 151.7 61.5997C141.9 63.0997 139.4 66.7997 139.4 66.7997C139.4 66.7997 125.5 66.5997 117.6 73.1997C109.7 79.6997 114.5 90.0997 117 93.7997C119.5 97.4997 124.1 101.7 124.1 101.7C124.1 101.7 124.7 109.2 125.3 112.9C125.9 116.6 116.8 126.8 116.8 126.8L129.9 146.6L144.7 135C144.7 135 160.7 133.8 166.1 132.4L167.7 131.8C167.7 131.8 151.3 133.4 147.4 128.7V128.5Z"
                    fill="white" />
                <path
                    d="M158.6 92.6998C158.6 92.6998 158.6 92.3998 158.6 91.8998C158.6 90.3998 158.8 87.1998 161.3 86.2998C164.6 85.0998 167.3 88.1998 167.3 88.1998L167.5 91.2998C167.5 91.2998 166.2 89.3998 163.5 89.7998C160.8 90.1998 158.7 92.6998 158.7 92.6998H158.6Z"
                    fill="#263238" />
                <path
                    d="M164.2 98.8998C164.2 100.5 163.8 101.8 163.2 101.8C162.6 101.8 162.2 100.5 162.2 98.8998C162.2 97.2998 162.6 95.9998 163.2 95.9998C163.8 95.9998 164.2 97.2998 164.2 98.8998Z"
                    fill="#263238" />
                <path
                    d="M158.1 119.1C157 120.2 155.6 120.6 154.9 119.9C154.2 119.2 154.5 117.8 155.6 116.7C156.7 115.6 158.1 115.2 158.8 115.9C159.5 116.6 159.2 118 158.1 119.1Z"
                    fill="#263238" />
            </g>
            <path
                d="M124.1 101.6C124.1 101.6 124.7 109.1 125.3 112.8C125.9 116.5 116.8 126.7 116.8 126.7L129.9 146.5L144.7 134.9C144.7 134.9 165.7 133.4 167.6 131.6C169.5 129.9 169.5 110.8 169.5 110.8L174.5 107.9C174.5 107.9 169.9 87.8998 168.7 83.3998L167.5 78.9998C167.5 78.9998 174.2 76.6998 172.7 69.8998C171.2 63.1998 161.3 59.8998 151.5 61.3998C141.7 62.8998 139.2 66.5998 139.2 66.5998C139.2 66.5998 125.3 66.3998 117.4 72.9998C109.5 79.4998 114.3 89.8998 116.8 93.5998C119.3 97.2998 123.9 101.5 123.9 101.5L124.1 101.6Z"
                stroke="#263238" stroke-width="0.8" stroke-linecap="round"
                stroke-linejoin="round" />
            <path
                d="M142.6 82.6998C146.1 80.3998 167.6 78.9998 167.6 78.9998C167.6 78.9998 174.3 76.6998 172.8 69.8998C171.3 63.1998 161.4 59.8998 151.6 61.3998C141.8 62.8998 139.3 66.5998 139.3 66.5998C139.3 66.5998 125.4 66.3998 117.5 72.9998C109.6 79.4998 114.4 89.8998 116.9 93.5998C119.4 97.2998 124 101.5 124 101.5C124 101.5 124.3 105.6 124.7 109.2L130.7 110.9L137.2 107.4L143.7 105.9C143.7 105.9 138.9 102.2 141.6 98.7998C144.3 95.2998 149.3 94.1998 149.5 91.4998C149.7 88.7998 138.9 84.9998 142.4 82.5998L142.6 82.6998Z"
                fill="#263238" stroke="#263238" stroke-width="0.8" stroke-linecap="round"
                stroke-linejoin="round" />
            <path
                d="M163.6 71.4997C163.6 71.4997 161.3 67.3997 165.5 68.0997C169.6 68.8997 169.6 75.9997 166.3 77.4997C162.9 78.9997 144.5 75.5997 134.3 78.5997C124.1 81.5997 117 89.8997 117 89.8997"
                stroke="white" stroke-miterlimit="10" stroke-linecap="round" />
            <path
                d="M122.6 96.3998C122.6 96.3998 130.5 89.5998 136.9 88.4998C143.3 87.3998 146.7 87.3998 139.5 91.4998C132.3 95.5998 137.2 94.8998 141.8 93.3998"
                stroke="white" stroke-miterlimit="10" stroke-linecap="round" />
            <path
                d="M139.1 111.2C139.1 111.2 137.9 99.0998 132 98.6998C126 98.2998 126.2 107 128 112.9C129.8 118.8 134 120.8 137.4 117.7"
                fill="#22B99A" />
            <mask id="mask4_117_44224" style="mask-type:luminance" maskUnits="userSpaceOnUse"
                x="126" y="98" width="14" height="22">
                <path
                    d="M139.1 111.2C139.1 111.2 137.9 99.0998 132 98.6998C126 98.2998 126.2 107 128 112.9C129.8 118.8 134 120.8 137.4 117.7"
                    fill="white" />
            </mask>
            <g mask="url(#mask4_117_44224)">
                <g opacity="0.5">
                    <path
                        d="M139.1 111.2C139.1 111.2 137.9 99.0998 132 98.6998C126 98.2998 126.2 107 128 112.9C129.8 118.8 134 120.8 137.4 117.7"
                        fill="white" />
                    <path
                        d="M139.1 111.2C139.1 111.2 137.9 99.0998 132 98.6998C126 98.2998 126.2 107 128 112.9C129.8 118.8 134 120.8 137.4 117.7"
                        stroke="#263238" stroke-width="0.8" stroke-linecap="round"
                        stroke-linejoin="round" />
                </g>
            </g>
            <path
                d="M139.1 111.2C139.1 111.2 137.9 99.0998 132 98.6998C126 98.2998 126.2 107 128 112.9C129.8 118.8 134 120.8 137.4 117.7"
                stroke="#263238" stroke-width="0.8" stroke-linecap="round"
                stroke-linejoin="round" />
            <path
                d="M117.4 119.3L136.7 148.6L127.8 160C127.8 160 121.1 146.9 114.5 137.7C108 128.5 107.2 126.9 107.2 126.9L117.4 119.4V119.3Z"
                fill="white" />
            <mask id="mask5_117_44224" style="mask-type:luminance" maskUnits="userSpaceOnUse"
                x="107" y="119" width="30" height="41">
                <path
                    d="M117.4 119.3L136.7 148.6L127.8 160C127.8 160 121.1 146.9 114.5 137.7C108 128.5 107.2 126.9 107.2 126.9L117.4 119.4V119.3Z"
                    fill="white" />
            </mask>
            <g mask="url(#mask5_117_44224)">
                <path
                    d="M117.4 119.3L107.2 126.8C107.2 126.8 107.8 127.9 112 134L122.8 127.5L117.5 119.4L117.4 119.3Z"
                    fill="#22B99A" />
                <path opacity="0.5"
                    d="M117.4 119.3L107.2 126.8C107.2 126.8 107.8 127.9 112 134L122.8 127.5L117.5 119.4L117.4 119.3Z"
                    fill="white" />
            </g>
            <path
                d="M117.4 119.3L136.7 148.6L127.8 160C127.8 160 121.1 146.9 114.5 137.7C108 128.5 107.2 126.9 107.2 126.9L117.4 119.4V119.3Z"
                stroke="#263238" stroke-width="0.8" stroke-linecap="round"
                stroke-linejoin="round" />
            <path
                d="M166.9 192.1C166.9 192.1 170 185.7 170.6 181.7C171.2 177.7 171.4 175.3 173.7 173.4C176 171.5 183.5 163.8 184.7 160.9C185.9 158 186.6 160.7 187.2 163C187.8 165.3 187.6 167.4 185.7 168.8C183.8 170.2 182 172.3 182 172.3L183.7 173.6C183.7 173.6 207.8 164.5 210.3 163.6C212.8 162.7 215.1 163.4 215.3 165.3C215.5 167.2 214.7 167.4 213.6 168C212.4 168.6 199.7 173 198 173.8L196.3 174.6L197.6 175.9C197.6 175.9 204.5 175.7 208 175.5C211.5 175.3 216.7 174.7 217.4 175.9C218.2 177.1 217.8 178.4 216.8 179.2C215.8 180 215.5 180.2 213.7 180.2C211.9 180.2 197.1 181.4 197.1 181.4L197.5 183.5C197.5 183.5 213.3 186 213.9 186.8C214.5 187.6 214.5 188 213.9 189.1C213.3 190.3 212.9 190.3 211.4 190.3C209.9 190.3 197.3 188.4 197.3 188.4C197.3 188.4 203.5 191.9 204.2 192.4C205 193 207.7 193.4 206.9 194.7C206.1 196 205.7 196.4 204.6 196.2C203.4 196 195.2 192.3 195.2 192.3C195.2 192.3 186.9 193.5 184.2 193.6C181.5 193.8 178.2 193.4 178.2 193.4L170.5 198.4L166.8 192L166.9 192.1Z"
                fill="white" stroke="#263238" stroke-width="0.8" stroke-linecap="round"
                stroke-linejoin="round" />
            <path
                d="M112.2 183.4C112.2 183.4 106.6 160.1 104.3 154.9C102 149.7 88.9 144.9 82.5 156.2C76.1 167.6 81.9 180.5 84.2 189.7C86.5 198.9 101.1 240.7 103.3 245.9C105.4 251.1 109.3 249.9 111.4 249.4C113.5 248.8 172.1 201.6 172.1 201.6L167.5 191.2L122.1 214.5L112.3 183.3L112.2 183.4Z"
                fill="white" />
            <mask id="mask6_117_44224" style="mask-type:luminance" maskUnits="userSpaceOnUse" x="79"
                y="149" width="94" height="101">
                <path
                    d="M112.2 183.4C112.2 183.4 106.6 160.1 104.3 154.9C102 149.7 88.9 144.9 82.5 156.2C76.1 167.6 81.9 180.5 84.2 189.7C86.5 198.9 101.1 240.7 103.3 245.9C105.4 251.1 109.3 249.9 111.4 249.4C113.5 248.8 172.1 201.6 172.1 201.6L167.5 191.2L122.1 214.5L112.3 183.3L112.2 183.4Z"
                    fill="white" />
            </mask>
            <g mask="url(#mask6_117_44224)">
                <path
                    d="M110.5 234.7C110.5 234.7 113.5 225.7 115.6 221.4C117.7 217.1 105.3 231.2 102.8 223.5C100.2 215.8 84.0001 177.3 87.0001 164.4C88.9001 156.4 93.5001 151.9 96.8001 149.7C92.0001 148.6 86.2001 149.7 82.6001 156.3C76.2001 167.7 82.0001 180.6 84.3001 189.8C86.6001 199 101.2 240.8 103.4 246C105.5 251.2 109.4 250 111.5 249.5C113 249.1 144.5 224 161.5 210.3L110.6 234.7H110.5Z"
                    fill="#22B99A" />
                <path opacity="0.5"
                    d="M110.5 234.7C110.5 234.7 113.5 225.7 115.6 221.4C117.7 217.1 105.3 231.2 102.8 223.5C100.2 215.8 84.0001 177.3 87.0001 164.4C88.9001 156.4 93.5001 151.9 96.8001 149.7C92.0001 148.6 86.2001 149.7 82.6001 156.3C76.2001 167.7 82.0001 180.6 84.3001 189.8C86.6001 199 101.2 240.8 103.4 246C105.5 251.2 109.4 250 111.5 249.5C113 249.1 144.5 224 161.5 210.3L110.6 234.7H110.5Z"
                    fill="white" />
            </g>
            <path
                d="M112.2 183.4C112.2 183.4 106.6 160.1 104.3 154.9C102 149.7 88.9 144.9 82.5 156.2C76.1 167.6 81.9 180.5 84.2 189.7C86.5 198.9 101.1 240.7 103.3 245.9C105.4 251.1 109.3 249.9 111.4 249.4C113.5 248.8 172.1 201.6 172.1 201.6L167.5 191.2L122.1 214.5L112.3 183.3L112.2 183.4Z"
                stroke="#263238" stroke-width="0.8" stroke-linecap="round"
                stroke-linejoin="round" />
            <path d="M160.7 195.2L165.9 205.8" stroke="#263238" stroke-width="0.8"
                stroke-linecap="round" stroke-linejoin="round" />
            <path
                d="M38.6 142L12 160.5C12 160.5 25.1 174.4 23.8 210.7C22.8 238.5 26.5 270 31.8 276.4H60.1C60.1 276.4 50.3 222.4 51 191.5C51.5 168 44.5 151.7 38.6 142.1V142Z"
                fill="white" stroke="#263238" stroke-width="0.8" stroke-linecap="round"
                stroke-linejoin="round" />
            <path
                d="M41.7001 142L15.1001 160.5C15.1001 160.5 28.2001 174.4 26.9001 210.7C25.9001 238.5 29.6001 270 34.9001 276.4H63.2001C63.2001 276.4 53.4001 222.4 54.1001 191.5C54.6001 168 47.6001 151.7 41.7001 142.1V142Z"
                fill="#263238" stroke="#263238" stroke-width="0.8" stroke-linecap="round"
                stroke-linejoin="round" />
            <path d="M38.6 142H41.7L15.2 160.5H12L38.6 142Z" fill="white" stroke="#263238"
                stroke-width="0.8" stroke-linecap="round" stroke-linejoin="round" />
        </g>
    </g>
    <defs>
        <clipPath id="clip0_117_44224">
            <rect width="387.8" height="280.9" fill="white" />
        </clipPath>
    </defs>
</svg>
