<svg width="201" height="170" viewBox="0 0 201 170" fill="none" xmlns="http://www.w3.org/2000/svg">
    <g id="2678145 1" clip-path="url(#clip0_2390_24763)">
        <g id="Background 2">
            <g id="Group">
                <g id="Group_2">
                    <path id="Vector" d="M200.5 130.979H0.5V131.079H200.5V130.979Z"
                        fill="#D1E3FF" />
                    <path id="Vector_2" d="M178.736 134.019H167.568V134.119H178.736V134.019Z"
                        fill="#D1E3FF" />
                    <path id="Vector_3" d="M112.128 134.019H102.968V134.119H112.128V134.019Z"
                        fill="#D1E3FF" />
                    <path id="Vector_4" d="M91.444 135.723H58.356V135.823H91.444V135.723Z"
                        fill="#D1E3FF" />
                    <path id="Vector_5" d="M46.7238 135.039H27.2598V135.139H46.7238V135.039Z"
                        fill="#D1E3FF" />
                    <path id="Vector_6" d="M163.692 134.019H129.58V134.119H163.692V134.019Z"
                        fill="#D1E3FF" />
                    <path id="Vector_7" d="M23.9962 135.039H21.1602V135.139H23.9962V135.039Z"
                        fill="#D1E3FF" />
                </g>
                <g id="Group_3">
                    <g id="Group_4">
                        <g id="Group_5">
                            <path id="Vector_8"
                                d="M137.2 91.8618C136.98 91.8618 136.76 91.8698 136.536 91.8858C131.844 92.2058 128.052 96.0218 127.752 100.714C127.684 101.786 127.796 102.822 128.056 103.798C129.136 107.81 129.54 111.978 129.54 116.134V128.246C129.54 129.126 130.252 129.838 131.132 129.838H169.576V91.8698H137.2V91.8618Z"
                                fill="#B7F7E6" />
                            <path id="Vector_9"
                                d="M179.044 101.33C179.044 95.8819 174.44 91.5059 168.912 91.8819C164.22 92.2019 160.428 96.0179 160.128 100.71C160.06 101.782 160.172 102.818 160.432 103.794C161.512 107.806 161.916 111.974 161.916 116.13V128.242C161.916 129.122 162.628 129.834 163.504 129.834H175.644C176.524 129.834 177.232 129.122 177.232 128.242V115.418C177.232 111.518 177.656 107.618 178.7 103.862C178.924 103.058 179.044 102.21 179.044 101.33Z"
                                fill="#E1FAF3" />
                        </g>
                        <path id="Vector_10" d="M156.524 106.777H102.624V129.829H156.524V106.777Z"
                            fill="#B7F7E6" />
                        <path id="Vector_11"
                            d="M81.272 79.1616H132.52C136.476 79.1616 139.688 82.3736 139.688 86.3296V111.99H74.104V86.3296C74.104 82.3736 77.316 79.1616 81.272 79.1616Z"
                            fill="#82D9C2" />
                        <path id="Vector_12"
                            d="M89.9479 79.1616H141.888C145.652 79.1616 148.708 82.2176 148.708 85.9816V111.986H83.1279V85.9816C83.1279 82.2176 86.1839 79.1616 89.9479 79.1616Z"
                            fill="#E1FAF3" />
                        <path id="Vector_13"
                            d="M104.884 104.669H156.084C157.232 104.669 158.164 105.601 158.164 106.749V111.977C158.164 113.125 157.232 114.057 156.084 114.057H104.884C104.54 114.057 104.264 113.777 104.264 113.437V105.293C104.264 104.949 104.544 104.673 104.884 104.673V104.669Z"
                            fill="#82D9C2" />
                        <g id="Group_6">
                            <path id="Vector_14"
                                d="M70.6999 91.8618C70.4799 91.8618 70.2599 91.8698 70.0359 91.8858C65.3439 92.2058 61.5519 96.0218 61.2519 100.714C61.1839 101.786 61.2959 102.822 61.5559 103.798C62.6359 107.81 63.0399 111.978 63.0399 116.134V128.246C63.0399 129.126 63.7519 129.838 64.6319 129.838H103.076V91.8698H70.6999V91.8618Z"
                                fill="#B7F7E6" />
                            <path id="Vector_15"
                                d="M112.544 101.33C112.544 95.8819 107.94 91.5059 102.412 91.8819C97.7199 92.2019 93.9279 96.0179 93.6279 100.71C93.5599 101.782 93.6719 102.818 93.9319 103.794C95.0119 107.806 95.4159 111.974 95.4159 116.13V128.242C95.4159 129.122 96.1279 129.834 97.0079 129.834H109.148C110.028 129.834 110.74 129.122 110.74 128.242V115.418C110.74 111.518 111.164 107.618 112.208 103.862C112.432 103.058 112.552 102.21 112.552 101.33H112.544Z"
                                fill="#E1FAF3" />
                        </g>
                        <path id="Vector_16"
                            d="M168.896 130.982H71.3761C70.7401 130.982 70.2241 130.466 70.2241 129.83H170.052C170.052 130.466 169.536 130.982 168.9 130.982H168.896Z"
                            fill="#82D9C2" />
                    </g>
                    <g id="Group_7">
                        <path id="Vector_17" d="M30.4918 102.186H19.7998V129.262H30.4918V102.186Z"
                            fill="#A0EDD9" />
                        <path id="Vector_18" d="M74.5836 129.262H21.8516V130.978H74.5836V129.262Z"
                            fill="#A0EDD9" />
                        <path id="Vector_19" d="M30.4916 129.262H76.6396V102.186H30.4916V129.262Z"
                            fill="#E1FAF3" />
                        <path id="Vector_20" d="M34.6955 114.398H72.4355V105.518H34.6955V114.398Z"
                            fill="#A0EDD9" />
                        <path id="Vector_21" d="M34.6955 125.926H72.4355V117.046H34.6955V125.926Z"
                            fill="#A0EDD9" />
                        <path id="Vector_22"
                            d="M58.2356 106.346H48.8956C48.5596 106.346 48.2876 106.074 48.2876 105.738C48.2876 105.402 48.5596 105.13 48.8956 105.13H58.2356C58.5716 105.13 58.8436 105.402 58.8436 105.738C58.8436 106.074 58.5716 106.346 58.2356 106.346Z"
                            fill="#E1FAF3" />
                        <path id="Vector_23"
                            d="M58.2356 117.874H48.8956C48.5596 117.874 48.2876 117.602 48.2876 117.266C48.2876 116.93 48.5596 116.658 48.8956 116.658H58.2356C58.5716 116.658 58.8436 116.93 58.8436 117.266C58.8436 117.602 58.5716 117.874 58.2356 117.874Z"
                            fill="#E1FAF3" />
                    </g>
                    <g id="Group_8">
                        <g id="Group_9">
                            <path id="Vector_24"
                                d="M137.016 8.79443H61.772V62.8425H137.016V8.79443Z"
                                fill="#82D9C2" />
                            <path id="Vector_25" d="M138.28 8.79443H62.3638V62.8425H138.28V8.79443Z"
                                fill="#B7F7E6" />
                            <path id="Vector_26"
                                d="M137.016 62.8423H61.772V64.0583H137.016V62.8423Z"
                                fill="#82D9C2" />
                            <path id="Vector_27" d="M144.04 62.8423H70.8838V64.0583H144.04V62.8423Z"
                                fill="#B7F7E6" />
                            <path id="Vector_28"
                                d="M136.512 60.5505V11.0864L64.1237 11.0864V60.5505L136.512 60.5505Z"
                                fill="#F5FCFF" />
                            <path id="Vector_29"
                                d="M83.8281 60.5505L94.1841 11.0864H107.404L97.0441 60.5505H83.8281Z"
                                fill="#E1FAF3" />
                            <path id="Vector_30"
                                d="M100.784 60.5505L111.14 11.0864H117.276L106.916 60.5505H100.784Z"
                                fill="#E1FAF3" />
                            <path id="Vector_31"
                                d="M136.516 55.3748V10.7788H136.292V55.3748H136.516Z"
                                fill="#82D9C2" />
                        </g>
                        <g id="Group_10">
                            <path id="Vector_32"
                                d="M60.4482 8.71701V27.961H65.5402C65.5402 27.961 74.6882 21.993 76.7682 9.72101C76.9802 8.47301 76.0242 7.33301 74.7602 7.33301H61.8362C61.0722 7.33301 60.4522 7.95301 60.4522 8.71701H60.4482Z"
                                fill="#82D9C2" />
                            <path id="Vector_33"
                                d="M60.4482 58.8047V29.5127H65.5402C65.5402 29.5127 68.4682 35.4247 71.3882 42.2287C74.7562 50.0767 68.9882 58.8087 60.4522 58.8087L60.4482 58.8047Z"
                                fill="#82D9C2" />
                            <path id="Vector_34"
                                d="M65.388 27.957H60.636C60.3533 27.957 60.124 28.1863 60.124 28.469V28.997C60.124 29.2798 60.3533 29.509 60.636 29.509H65.388C65.6708 29.509 65.9 29.2798 65.9 28.997V28.469C65.9 28.1863 65.6708 27.957 65.388 27.957Z"
                                fill="#B7F7E6" />
                        </g>
                        <g id="Group_11">
                            <path id="Vector_35"
                                d="M139.72 8.71701V27.961H134.628C134.628 27.961 125.48 21.993 123.4 9.72101C123.188 8.47301 124.144 7.33301 125.408 7.33301H138.332C139.096 7.33301 139.716 7.95301 139.716 8.71701H139.72Z"
                                fill="#82D9C2" />
                            <path id="Vector_36"
                                d="M139.72 58.8047V29.5127H134.628C134.628 29.5127 131.7 35.4247 128.78 42.2287C125.412 50.0767 131.18 58.8087 139.716 58.8087L139.72 58.8047Z"
                                fill="#82D9C2" />
                            <path id="Vector_37"
                                d="M134.78 29.5127H139.532C139.815 29.5127 140.044 29.2835 140.044 29.0007V28.4727C140.044 28.1899 139.815 27.9607 139.532 27.9607H134.78C134.497 27.9607 134.268 28.1899 134.268 28.4727V29.0007C134.268 29.2835 134.497 29.5127 134.78 29.5127Z"
                                fill="#B7F7E6" />
                        </g>
                    </g>
                    <g id="Group_12">
                        <path id="Vector_38" d="M176.256 14.9497H151.272V52.2697H176.256V14.9497Z"
                            fill="#82D9C2" />
                        <path id="Vector_39" d="M179.872 14.9497H151.912V52.2697H179.872V14.9497Z"
                            fill="#B7F7E6" />
                        <path id="Vector_40" d="M176.988 49.386V17.834H154.796V49.386H176.988Z"
                            fill="#E1FAF3" />
                        <path id="Vector_41"
                            d="M163.764 36.6335V34.8375C163.764 32.4855 165.668 30.5815 168.02 30.5815V32.3775C168.02 34.7295 166.116 36.6335 163.764 36.6335Z"
                            fill="#82D9C2" />
                        <path id="Vector_42"
                            d="M163.764 45.1379V43.3419C163.764 40.9899 165.668 39.0859 168.02 39.0859V40.8819C168.02 43.2339 166.116 45.1379 163.764 45.1379Z"
                            fill="#82D9C2" />
                        <path id="Vector_43"
                            d="M163.764 28.1296V26.3336C163.764 23.9816 165.668 22.0776 168.02 22.0776V23.8736C168.02 26.2256 166.116 28.1296 163.764 28.1296Z"
                            fill="#82D9C2" />
                    </g>
                    <g id="Group_13">
                        <g id="Group_14">
                            <path id="Vector_44"
                                d="M36.9435 95.0054C37.9555 84.5414 38.8595 55.3134 38.2675 50.0654L36.8675 49.0454C36.8675 49.0454 37.2995 68.1294 36.5475 84.1614C35.7955 100.193 36.4395 92.6254 36.1235 95.0054H36.9435Z"
                                fill="#82D9C2" />
                            <path id="Vector_45"
                                d="M40.8515 74.1898C43.6755 71.9738 49.4395 70.3978 55.3115 70.4058C57.6195 70.4058 48.2955 72.9818 44.4195 75.8258C41.4075 78.0338 38.0115 81.7458 36.8555 83.8058C37.6035 79.4698 38.0275 76.4058 40.8515 74.1898Z"
                                fill="#82D9C2" />
                            <path id="Vector_46"
                                d="M35.2556 77.4653C32.9116 75.1573 27.4996 73.3813 21.6476 73.1813C19.3476 73.1013 28.0916 75.9973 31.3556 78.9693C33.8916 81.2773 36.4876 85.0933 37.2036 87.1893C37.3756 82.8413 37.5996 79.7733 35.2556 77.4653Z"
                                fill="#82D9C2" />
                            <path id="Vector_47"
                                d="M40.9758 58.5576C43.3638 56.6816 48.2478 55.3456 53.2198 55.3536C55.1718 55.3536 47.2798 57.5376 43.9958 59.9416C41.4438 61.8096 38.5718 64.9536 37.5918 66.7016C38.2238 63.0296 38.5838 60.4336 40.9758 58.5576Z"
                                fill="#82D9C2" />
                            <path id="Vector_48"
                                d="M36.2397 61.3335C34.2557 59.3775 29.6717 57.8775 24.7157 57.7055C22.7677 57.6375 30.1757 60.0895 32.9357 62.6055C35.0837 64.5575 37.2837 67.7935 37.8877 69.5655C38.0317 65.8855 38.2197 63.2855 36.2357 61.3335H36.2397Z"
                                fill="#82D9C2" />
                            <path id="Vector_49"
                                d="M37.3916 47.0373C35.9796 45.4453 32.5596 44.0893 28.7796 43.7413C27.2956 43.6053 32.8236 45.8173 34.7996 47.8733C36.3356 49.4693 37.8436 52.0533 38.2116 53.4453C38.5196 50.6213 38.8036 48.6293 37.3916 47.0413V47.0373Z"
                                fill="#82D9C2" />
                            <path id="Vector_50"
                                d="M38.3158 48.0933C39.3358 46.7213 41.7598 45.5293 44.4198 45.1973C45.4638 45.0653 41.5438 47.0093 40.1198 48.7813C39.0118 50.1613 37.9078 52.3813 37.6238 53.5733C37.4598 51.1613 37.2998 49.4653 38.3198 48.0933H38.3158Z"
                                fill="#82D9C2" />
                        </g>
                        <g id="Group_15">
                            <path id="Vector_51"
                                d="M36.7594 102.186C39.8514 102.186 42.4074 99.7739 42.5834 96.6859L43.0994 91.7739H30.4194L30.9354 96.6859C31.1114 99.7739 33.6674 102.186 36.7594 102.186Z"
                                fill="#E3EEFF" />
                            <path id="Vector_52"
                                d="M29.5955 93.8018H43.9195L44.3275 90.0898H29.1875L29.5955 93.8018Z"
                                fill="#E3EEFF" />
                        </g>
                    </g>
                </g>
            </g>
        </g>
        <g id="Objects">
            <g id="Group_16">
                <path id="Vector_53"
                    d="M100.5 149.043C143.333 149.043 178.056 147.016 178.056 144.515C178.056 142.015 143.333 139.987 100.5 139.987C57.6669 139.987 22.9438 142.015 22.9438 144.515C22.9438 147.016 57.6669 149.043 100.5 149.043Z"
                    fill="#E1FAF3" />
                <g id="Group_17">
                    <g id="Group_18">
                        <path id="Vector_54"
                            d="M100.824 137.892L98.1118 136.816L99.8758 130.256L102.584 131.328L100.824 137.892Z"
                            fill="#FFC3BD" />
                        <path id="Vector_55"
                            d="M128.04 140.899H125.128L122.856 134.151H125.772L128.04 140.899Z"
                            fill="#FFC3BD" />
                        <path id="Vector_56"
                            d="M124.736 140.564H128.288C128.408 140.564 128.512 140.648 128.536 140.764L129.112 143.356C129.172 143.624 128.96 143.88 128.684 143.876C127.54 143.856 126.708 143.788 125.268 143.788C124.384 143.788 121.712 143.88 120.488 143.88C119.264 143.88 119.104 142.672 119.604 142.56C121.848 142.068 123.54 141.392 124.26 140.744C124.388 140.628 124.56 140.564 124.732 140.564H124.736Z"
                            fill="#14365B" />
                        <path id="Vector_57"
                            d="M98.2558 136.512L101.216 137.684C101.328 137.728 101.392 137.844 101.372 137.96L100.952 140.58C100.908 140.852 100.624 141.012 100.372 140.908C99.3118 140.468 97.7918 139.796 96.4518 139.264C94.8838 138.644 93.4958 138.192 91.6558 137.464C90.5438 137.024 90.6798 135.776 91.1838 135.86C93.4878 136.236 95.2398 136.872 97.5158 136.468C97.7638 136.424 98.0198 136.424 98.2518 136.516L98.2558 136.512Z"
                            fill="#14365B" />
                        <path id="Vector_58"
                            d="M118.472 53.2198C118.2 53.4358 117.988 53.5998 117.748 53.7798C117.516 53.9558 117.276 54.1198 117.036 54.2838C116.56 54.6118 116.072 54.9238 115.58 55.2278C114.592 55.8318 113.56 56.3798 112.472 56.8598C111.384 57.3358 110.244 57.7518 109.012 58.0198C107.784 58.2878 106.452 58.4398 105.036 58.2198C104.676 58.1718 104.348 58.0878 103.96 57.9838C103.188 57.7438 102.756 57.3478 102.432 57.0238C101.808 56.3558 101.516 55.7558 101.232 55.1758C100.692 54.0238 100.368 52.9198 100.076 51.8198C99.516 49.6118 99.184 47.4398 99 45.2078L101.148 44.7998C101.812 46.8118 102.508 48.8558 103.284 50.7678C103.668 51.7198 104.1 52.6558 104.556 53.4238C104.776 53.7998 105.052 54.1358 105.192 54.2398C105.252 54.2918 105.268 54.2318 105.02 54.1438C105.156 54.1598 105.356 54.2038 105.536 54.2078C106.276 54.2598 107.128 54.1398 108 53.8958C108.872 53.6478 109.764 53.2958 110.644 52.8718C111.528 52.4518 112.396 51.9558 113.256 51.4358C113.684 51.1718 114.108 50.8998 114.528 50.6158L115.144 50.1878C115.344 50.0518 115.564 49.8878 115.72 49.7718L118.472 53.2278V53.2198Z"
                            fill="#FFC3BD" />
                        <path id="Vector_59"
                            d="M120.292 52.5037C119.584 55.1997 110.852 58.2197 110.852 58.2197L108.164 52.1557C108.164 52.1557 111.712 50.2877 114.996 48.8037C117.2 47.8077 121.064 49.5717 120.292 52.5037Z"
                            fill="#82D9C2" />
                        <path id="Vector_60"
                            d="M101.164 45.2797L101.236 42.6797L98.0757 43.6157C98.0757 43.6157 98.1117 44.9837 99.2917 45.8597L101.16 45.2757L101.164 45.2797Z"
                            fill="#FFC3BD" />
                        <path id="Vector_61"
                            d="M101.388 40.8677L98.3517 41.9157L98.0757 43.6157L101.24 42.6797L101.388 40.8677Z"
                            fill="#FFC3BD" />
                        <g id="Group_19">
                            <path id="Vector_62"
                                d="M100.812 47.0305L103.808 46.3665C104.016 46.3185 104.128 46.1185 104.052 45.9145L101.444 38.9665C101.368 38.7625 101.136 38.6345 100.924 38.6825L97.928 39.3465C97.72 39.3945 97.608 39.5945 97.684 39.7985L100.288 46.7465C100.364 46.9505 100.596 47.0785 100.808 47.0305H100.812Z"
                                fill="#A0EDD9" />
                            <path id="Vector_63"
                                d="M101.18 46.9509L104.176 46.2869C104.384 46.2389 104.496 46.0389 104.42 45.8349L101.812 38.8869C101.736 38.6829 101.504 38.5549 101.292 38.6029L98.2962 39.2669C98.0882 39.3149 97.9762 39.5149 98.0522 39.7189L100.656 46.6669C100.732 46.8709 100.964 46.9989 101.176 46.9509H101.18Z"
                                fill="#82D9C2" />
                            <g id="Group_20">
                                <path id="Vector_64"
                                    d="M98.144 39.9598L99.316 43.0838L99.424 43.3718L99.948 44.7718L100.06 45.0718L100.484 46.1958L104.24 45.3638L104.136 45.0878L104.024 44.7958L103.012 42.0958L102.696 41.2478L101.904 39.1318L100.66 39.4038L100.344 39.4758L98.64 39.8518L98.376 39.9078L98.144 39.9598Z"
                                    fill="#DCE9FF" />
                                <g id="Group_21">
                                    <path id="Vector_65"
                                        d="M100.588 41.2348L100.272 43.8108C100.248 44.0148 100.432 44.1868 100.636 44.1388L102.66 43.6748C102.876 43.6268 102.964 43.3668 102.824 43.1948L101.116 41.0828C100.952 40.8788 100.62 40.9708 100.588 41.2348Z"
                                        fill="#82D9C2" />
                                    <g id="Group_22">
                                        <path id="Vector_66"
                                            d="M101.676 43.2265C101.716 43.3665 101.668 43.4984 101.56 43.5224C101.456 43.5464 101.336 43.4545 101.296 43.3145C101.256 43.1745 101.304 43.0425 101.412 43.0185C101.516 42.9945 101.636 43.0865 101.676 43.2265Z"
                                            fill="white" />
                                        <path id="Vector_67"
                                            d="M101.432 42.7749L101.26 42.8149C101.224 42.8229 101.188 42.7949 101.172 42.7509L100.836 41.8309C100.816 41.7789 100.836 41.7309 100.872 41.7229L101.16 41.6549C101.2 41.6469 101.24 41.6829 101.252 41.7349L101.472 42.6829C101.484 42.7309 101.464 42.7709 101.432 42.7789V42.7749Z"
                                            fill="white" />
                                    </g>
                                </g>
                            </g>
                        </g>
                        <g id="Group_23">
                            <path id="Vector_68"
                                d="M99.8758 130.26L98.9678 133.64L101.676 134.712L102.588 131.332L99.8758 130.26Z"
                                fill="#F29994" />
                            <path id="Vector_69"
                                d="M125.772 134.152H122.856L124.028 137.632H126.944L125.772 134.152Z"
                                fill="#F29994" />
                        </g>
                        <path id="Vector_70"
                            d="M132.068 51.2841C130.828 54.3881 129.904 57.5881 129.192 60.6161C128.676 62.8321 128.276 64.9561 127.964 66.8881C127.228 71.4161 126.952 74.9001 126.692 76.0601C124.444 75.6561 115.968 74.1401 111.348 73.3081C111.028 56.6001 115.968 48.5441 115.968 48.5441C115.968 48.5441 117.716 48.3881 119.716 48.4881C119.98 48.5001 120.248 48.5201 120.52 48.5441C122.276 48.6961 125.1 49.2681 127.044 49.7121C127.452 49.8041 127.864 49.9121 128.264 50.0201C130.296 50.5801 132.064 51.2841 132.064 51.2841H132.068Z"
                            fill="#82D9C2" />
                        <path id="Vector_71"
                            d="M127.712 55.0317C127.424 57.6197 127.9 59.8877 128.9 61.9397C128.992 61.5037 129.092 61.0637 129.192 60.6197C129.58 58.9557 130.036 57.2357 130.58 55.5117L127.712 55.0357V55.0317Z"
                            fill="#50B399" />
                        <path id="Vector_72"
                            d="M127.716 42.2515C126.928 44.2755 125.828 48.0475 127.044 49.7115C125.768 50.6275 124.004 51.2835 121.656 50.8075C119.856 50.4435 119.992 49.1675 120.52 48.5395C122.96 48.3995 123.212 46.6555 123.096 44.9515L127.712 42.2515H127.716Z"
                            fill="#FFC3BD" />
                        <path id="Vector_73"
                            d="M125.836 43.3555L123.104 44.9515C123.132 45.3555 123.14 45.7595 123.096 46.1435C124.012 46.1755 125.416 45.4155 125.68 44.4955C125.812 44.0355 125.872 43.5835 125.836 43.3555Z"
                            fill="#F29994" />
                        <path id="Vector_74"
                            d="M120.612 35.3837C119.972 36.6837 119.684 40.7117 121.488 40.0877C123.292 39.4637 123.196 36.3957 123.196 36.3957C123.196 36.3957 122.108 32.3437 120.608 35.3877L120.612 35.3837Z"
                            fill="#0F264C" />
                        <path id="Vector_75"
                            d="M128.536 39.1396C127.852 41.9516 127.592 43.6276 125.896 44.8316C123.344 46.6396 120.068 44.7076 119.9 41.7476C119.748 39.0836 120.892 34.9356 123.876 34.3036C126.816 33.6796 129.216 36.3276 128.532 39.1396H128.536Z"
                            fill="#FFC3BD" />
                        <path id="Vector_76"
                            d="M127.104 36.8438C125.46 37.8398 125.736 41.0558 128.004 41.8998C130.272 42.7438 130.768 41.0918 130.396 40.9198C131.18 40.7558 134.268 39.3718 133.044 36.8638C132.3 35.3398 130.028 35.5918 130.028 35.5918C130.028 35.5918 132.716 32.9558 128.488 30.8318C123.32 28.2398 122.54 32.9958 122.54 32.9958C122.54 32.9958 119.216 32.6278 119.496 34.8438C119.868 37.7798 122.988 35.4358 122.988 35.4358C122.988 35.4358 123.184 38.0198 127.104 36.8438Z"
                            fill="#0F264C" />
                        <path id="Vector_77"
                            d="M122.716 34.1076C122.652 34.1076 122.596 34.0676 122.576 34.0076C122.544 33.9196 121.836 31.8156 122.92 30.4436C123.624 29.5516 124.912 29.1956 126.752 29.3796C126.836 29.3876 126.896 29.4596 126.884 29.5436C126.876 29.6276 126.808 29.6876 126.72 29.6796C124.992 29.5036 123.792 29.8236 123.156 30.6276C122.172 31.8676 122.852 33.8876 122.86 33.9076C122.888 33.9876 122.844 34.0716 122.768 34.0996C122.752 34.1036 122.736 34.1076 122.72 34.1076H122.716Z"
                            fill="#0F264C" />
                        <path id="Vector_78"
                            d="M129.256 42.5038C128.736 43.0838 127.996 43.3718 127.356 43.3958C126.392 43.4318 126.132 42.5198 126.588 41.7238C126.996 41.0118 127.992 40.1318 128.868 40.4718C129.732 40.8038 129.852 41.8398 129.26 42.5038H129.256Z"
                            fill="#FFC3BD" />
                        <path id="Vector_79"
                            d="M98.1998 132.612L102.788 134.424C102.788 134.424 108.136 116.636 109.96 107.74C110.516 105.032 111.652 101.304 113 97.3276C114.704 92.3156 116.744 86.9196 118.396 82.6996C120.136 78.2556 121.432 75.1156 121.432 75.1156L111.344 73.3076C111.344 73.3076 102.58 96.6676 101.324 105.472C100.016 114.628 98.1958 132.608 98.1958 132.608L98.1998 132.612Z"
                            fill="#9FC6FF" />
                        <path id="Vector_80"
                            d="M113 97.3274C114.704 92.3154 116.744 86.9194 118.396 82.6994L117.588 80.3154C114.744 83.0394 113.06 92.2354 113 97.3274Z"
                            fill="#77B3FC" />
                        <path id="Vector_81"
                            d="M116.788 74.2871C116.788 74.2871 115.196 99.2111 115.508 107.747C115.852 117.091 122.652 136.959 122.652 136.959H127.988C127.988 136.959 124.532 119.087 123.836 109.995C123.044 99.6391 126.684 76.0631 126.684 76.0631L116.784 74.2871H116.788Z"
                            fill="#9FC6FF" />
                        <path id="Vector_82"
                            d="M122.02 137.076H128.304V135.196L121.276 135.076L122.02 137.076Z"
                            fill="#82D9C2" />
                        <path id="Vector_83"
                            d="M97.5796 132.491L103.048 134.655L103.748 132.887L97.6716 130.375L97.5796 132.491Z"
                            fill="#82D9C2" />
                        <path id="Vector_84"
                            d="M124.08 39.1601C124.04 39.3921 123.884 39.5561 123.732 39.5281C123.58 39.5001 123.492 39.2921 123.532 39.0601C123.572 38.8281 123.728 38.6641 123.88 38.6921C124.032 38.7201 124.12 38.9281 124.08 39.1601Z"
                            fill="#0F264C" />
                        <path id="Vector_85"
                            d="M121.468 38.6918C121.428 38.9238 121.272 39.0878 121.12 39.0598C120.968 39.0318 120.88 38.8238 120.92 38.5918C120.96 38.3598 121.116 38.1958 121.268 38.2238C121.42 38.2518 121.508 38.4598 121.468 38.6918Z"
                            fill="#0F264C" />
                        <path id="Vector_86"
                            d="M122.276 38.9552C122.276 38.9552 121.512 40.1952 120.816 40.7352C121.156 41.1912 121.884 41.1392 121.884 41.1392L122.276 38.9512V38.9552Z"
                            fill="#ED847E" />
                        <path id="Vector_87"
                            d="M123.544 42.7835C123.512 42.7835 123.484 42.7595 123.476 42.7275C123.468 42.6915 123.492 42.6555 123.528 42.6475C123.916 42.5675 123.94 42.4915 123.94 42.4915C123.932 42.4875 123.928 42.4795 123.924 42.4715C123.924 42.4715 123.748 42.2195 122.848 42.1795C122.812 42.1795 122.78 42.1475 122.784 42.1075C122.784 42.0715 122.816 42.0435 122.852 42.0435C123.76 42.0835 123.988 42.3315 124.032 42.3955C124.056 42.4195 124.084 42.4675 124.072 42.5275C124.044 42.6395 123.88 42.7235 123.552 42.7875C123.548 42.7875 123.544 42.7875 123.54 42.7875L123.544 42.7835Z"
                            fill="#0F264C" />
                        <path id="Vector_88"
                            d="M125.044 38.4597C124.992 38.4597 124.944 38.4317 124.92 38.3837C124.644 37.8397 124.152 37.7757 124.132 37.7717C124.056 37.7637 124.004 37.6957 124.012 37.6197C124.02 37.5437 124.084 37.4877 124.164 37.4997C124.192 37.4997 124.824 37.5797 125.168 38.2597C125.204 38.3277 125.176 38.4117 125.108 38.4437C125.088 38.4557 125.068 38.4597 125.044 38.4597Z"
                            fill="#0F264C" />
                        <path id="Vector_89"
                            d="M120.508 37.5881C120.48 37.5881 120.452 37.5801 120.428 37.5601C120.368 37.5161 120.352 37.4281 120.396 37.3681C120.848 36.7481 121.484 36.7761 121.512 36.7801C121.588 36.7841 121.648 36.8481 121.644 36.9241C121.644 37.0001 121.588 37.0641 121.5 37.0561C121.5 37.0561 120.984 37.0401 120.624 37.5321C120.596 37.5681 120.556 37.5881 120.512 37.5881H120.508Z"
                            fill="#0F264C" />
                        <path id="Vector_90"
                            d="M123.776 141.071C123.556 141.071 123.348 141.035 123.216 140.923C123.112 140.835 123.064 140.711 123.072 140.559C123.08 140.443 123.14 140.391 123.188 140.363C123.512 140.199 124.452 140.775 124.556 140.843C124.58 140.859 124.592 140.887 124.588 140.911C124.584 140.939 124.564 140.959 124.536 140.967C124.336 141.015 124.044 141.071 123.772 141.071H123.776ZM123.344 140.467C123.308 140.467 123.276 140.471 123.256 140.483C123.236 140.491 123.216 140.511 123.212 140.563C123.204 140.671 123.236 140.755 123.304 140.815C123.464 140.951 123.844 140.967 124.34 140.867C124.012 140.675 123.568 140.467 123.344 140.467Z"
                            fill="#82D9C2" />
                        <path id="Vector_91"
                            d="M124.52 140.971C124.52 140.971 124.496 140.971 124.488 140.963C124.188 140.799 123.604 140.159 123.664 139.835C123.676 139.775 123.72 139.675 123.884 139.655C123.992 139.639 124.092 139.671 124.18 139.743C124.52 140.019 124.588 140.859 124.592 140.895C124.592 140.919 124.584 140.943 124.56 140.959C124.548 140.967 124.536 140.971 124.524 140.971H124.52ZM123.932 139.791C123.932 139.791 123.912 139.791 123.9 139.791C123.812 139.803 123.804 139.843 123.8 139.859C123.764 140.051 124.136 140.535 124.436 140.759C124.404 140.515 124.308 140.023 124.092 139.847C124.044 139.807 123.992 139.787 123.932 139.787V139.791Z"
                            fill="#82D9C2" />
                        <path id="Vector_92"
                            d="M97.8437 136.78C97.8437 136.78 97.8357 136.78 97.8317 136.78C97.3597 136.696 96.5437 136.492 96.3477 136.112C96.2877 135.996 96.2917 135.876 96.3477 135.752C96.3837 135.676 96.4437 135.632 96.5197 135.624C96.5317 135.624 96.5397 135.624 96.5517 135.624C96.9677 135.624 97.7957 136.56 97.8877 136.668C97.9077 136.688 97.9117 136.72 97.8957 136.748C97.8837 136.768 97.8597 136.784 97.8357 136.784L97.8437 136.78ZM96.5637 135.76C96.5637 135.76 96.5517 135.76 96.5437 135.76C96.5117 135.764 96.4917 135.78 96.4757 135.812C96.4357 135.896 96.4317 135.976 96.4717 136.048C96.5797 136.26 97.0157 136.464 97.6517 136.6C97.2997 136.22 96.7917 135.756 96.5597 135.756L96.5637 135.76Z"
                            fill="#82D9C2" />
                        <path id="Vector_93"
                            d="M97.844 136.779C97.844 136.779 97.808 136.771 97.796 136.759C97.528 136.483 97.112 135.639 97.28 135.355C97.32 135.287 97.408 135.219 97.588 135.271C97.724 135.311 97.828 135.395 97.9 135.523C98.132 135.943 97.916 136.703 97.908 136.735C97.9 136.759 97.884 136.775 97.86 136.783C97.856 136.783 97.848 136.783 97.844 136.783V136.779ZM97.476 135.387C97.424 135.387 97.408 135.411 97.4 135.423C97.296 135.595 97.556 136.231 97.808 136.563C97.856 136.335 97.932 135.863 97.78 135.587C97.728 135.491 97.652 135.431 97.552 135.403C97.52 135.395 97.492 135.391 97.472 135.391L97.476 135.387Z"
                            fill="#82D9C2" />
                        <g id="Group_24">
                            <path id="Vector_94"
                                d="M132.148 52.6455C132.536 53.0975 132.868 53.5055 133.2 53.9455C133.532 54.3775 133.856 54.8175 134.176 55.2575C134.808 56.1455 135.412 57.0575 135.976 57.9975C136.548 58.9335 137.072 59.9135 137.56 60.9215L137.916 61.6855L138.244 62.4735C138.356 62.7335 138.448 63.0095 138.548 63.2815L138.692 63.6895L138.728 63.7895L138.784 63.9615C138.824 64.0935 138.852 64.2095 138.876 64.3335C139.048 65.2775 138.944 65.9615 138.836 66.6055C138.716 67.2415 138.548 67.8135 138.368 68.3655C137.996 69.4655 137.54 70.4735 137.06 71.4535C136.084 73.4135 134.972 75.2255 133.716 76.9935L131.816 75.9095C132.6 74.0215 133.36 72.0775 134.012 70.1775C134.336 69.2255 134.624 68.2735 134.832 67.3575C134.936 66.9015 135.016 66.4535 135.044 66.0535C135.08 65.6655 135.052 65.2855 135.004 65.2015C135 65.1975 134.996 65.1855 134.992 65.1935C134.988 65.1855 135 65.2175 134.984 65.1775L134.948 65.0975L134.804 64.7775C134.708 64.5615 134.616 64.3495 134.5 64.1335L134.176 63.4935L133.828 62.8535C133.348 62.0055 132.832 61.1615 132.284 60.3295C131.732 59.5015 131.16 58.6775 130.568 57.8655C129.992 57.0575 129.348 56.2375 128.772 55.4935L132.152 52.6495L132.148 52.6455Z"
                                fill="#FFC3BD" />
                            <path id="Vector_95"
                                d="M131.28 51.049C134.036 51.465 137.696 57.6851 137.696 57.6851L132.52 63.3211C132.52 63.3211 129.676 59.661 128.024 56.461C126.224 52.977 127.944 50.541 131.28 51.045V51.049Z"
                                fill="#82D9C2" />
                            <path id="Vector_96"
                                d="M132.348 75.3491L129.8 76.8531L132.856 78.9811C132.856 78.9811 134.74 77.2211 133.92 76.1171L132.348 75.3531V75.3491Z"
                                fill="#FFC3BD" />
                            <path id="Vector_97"
                                d="M128.896 79.113L131.504 80.753L132.856 78.981L129.8 76.853L128.896 79.113Z"
                                fill="#FFC3BD" />
                        </g>
                        <g id="Group_25">
                            <g id="Group_26">
                                <path id="Vector_98"
                                    d="M102.952 39.3H102.552C102.552 38.528 101.924 37.9 101.152 37.9V37.5C102.144 37.5 102.952 38.308 102.952 39.3Z"
                                    fill="#82D9C2" />
                                <path id="Vector_99"
                                    d="M103.752 39.2997H103.352C103.352 38.0877 102.364 37.0997 101.152 37.0997V36.6997C102.584 36.6997 103.752 37.8677 103.752 39.2997Z"
                                    fill="#82D9C2" />
                                <path id="Vector_100"
                                    d="M104.552 39.2999H104.152C104.152 37.6439 102.808 36.2999 101.152 36.2999V35.8999C103.028 35.8999 104.552 37.4239 104.552 39.2999Z"
                                    fill="#82D9C2" />
                            </g>
                            <g id="Group_27">
                                <path id="Vector_101"
                                    d="M100.864 48.6569C99.872 48.6569 99.064 47.8489 99.064 46.8569H99.464C99.464 47.6289 100.092 48.2569 100.864 48.2569V48.6569Z"
                                    fill="#82D9C2" />
                                <path id="Vector_102"
                                    d="M100.864 49.4569C99.4317 49.4569 98.2637 48.2889 98.2637 46.8569H98.6637C98.6637 48.0689 99.6517 49.0569 100.864 49.0569V49.4569Z"
                                    fill="#82D9C2" />
                                <path id="Vector_103"
                                    d="M100.864 50.2569C98.9879 50.2569 97.4639 48.7329 97.4639 46.8569H97.8639C97.8639 48.5129 99.2079 49.8569 100.864 49.8569V50.2569Z"
                                    fill="#82D9C2" />
                            </g>
                        </g>
                    </g>
                    <g id="Group_28">
                        <path id="Vector_104" d="M41.276 35.4834H40.876V43.3514H41.276V35.4834Z"
                            fill="#82D9C2" />
                        <path id="Vector_105" d="M41.276 45.5278H40.876V48.0518H41.276V45.5278Z"
                            fill="#82D9C2" />
                        <path id="Vector_106"
                            d="M81.6199 27.4512H47.7359C44.7204 27.4512 42.2759 29.8957 42.2759 32.9112V57.0912C42.2759 60.1067 44.7204 62.5512 47.7359 62.5512H81.6199C84.6354 62.5512 87.0799 60.1067 87.0799 57.0912V32.9112C87.0799 29.8957 84.6354 27.4512 81.6199 27.4512Z"
                            fill="#82D9C2" />
                        <g id="Group_29">
                            <path id="Vector_107"
                                d="M41.74 27.3274C41.636 27.3274 41.536 27.2874 41.456 27.2114L38.368 24.1234C38.212 23.9674 38.212 23.7154 38.368 23.5594C38.524 23.4034 38.776 23.4034 38.932 23.5594L42.02 26.6474C42.176 26.8034 42.176 27.0554 42.02 27.2114C41.94 27.2914 41.84 27.3274 41.736 27.3274H41.74Z"
                                fill="#82D9C2" />
                            <path id="Vector_108"
                                d="M43.7241 26.4754C43.5361 26.4754 43.3681 26.3434 43.3321 26.1514L42.7641 23.1994C42.7241 22.9834 42.8641 22.7714 43.0801 22.7314C43.2961 22.6914 43.5081 22.8314 43.5481 23.0474L44.1161 25.9994C44.1561 26.2154 44.0161 26.4274 43.8001 26.4674C43.7761 26.4714 43.7481 26.4754 43.7241 26.4754Z"
                                fill="#82D9C2" />
                            <path id="Vector_109"
                                d="M40.892 29.3113C40.868 29.3113 40.84 29.3113 40.816 29.3033L37.864 28.7353C37.648 28.6953 37.504 28.4833 37.548 28.2673C37.588 28.0513 37.8 27.9073 38.016 27.9513L40.968 28.5193C41.184 28.5593 41.328 28.7713 41.284 28.9873C41.248 29.1793 41.08 29.3113 40.892 29.3113Z"
                                fill="#82D9C2" />
                        </g>
                        <path id="Vector_110"
                            d="M86.272 43.4035L96.092 40.3955L86.272 50.8035V43.4035Z"
                            fill="#82D9C2" />
                        <g id="Group_30">
                            <path id="Vector_111"
                                d="M74.4038 51.2681H54.9478C54.9478 50.2281 55.3598 49.2321 56.0958 48.5001L56.4838 48.1081C57.1158 47.4801 57.4678 46.6241 57.4678 45.7321V41.2081C57.4678 37.1401 60.8398 33.8601 64.9398 34.0041C65.5438 34.0281 66.1238 34.1241 66.6798 34.2881C66.4638 34.8601 66.3438 35.4841 66.3438 36.1321C66.3438 39.0281 68.6918 41.3801 71.5918 41.3801C71.6918 41.3801 71.7878 41.3801 71.8838 41.3721V45.7321C71.8838 46.6241 72.2398 47.4801 72.8678 48.1081L73.2558 48.5001C73.6238 48.8681 73.9118 49.3001 74.1078 49.7681C74.2998 50.2401 74.4038 50.7481 74.4038 51.2681Z"
                                fill="white" />
                            <path id="Vector_112"
                                d="M68.5235 52.3237C68.4275 54.4197 66.6675 56.0757 64.5315 55.9997C62.5355 55.9317 60.9595 54.2957 60.8315 52.3237H68.5235Z"
                                fill="white" />
                        </g>
                        <path id="Vector_113"
                            d="M74.2473 39.0301C75.8452 37.5629 75.951 35.078 74.4838 33.4801C73.0165 31.8822 70.5317 31.7764 68.9338 33.2436C67.3359 34.7109 67.23 37.1957 68.6973 38.7936C70.1646 40.3915 72.6494 40.4974 74.2473 39.0301Z"
                            fill="#22B99A" />
                        <path id="Vector_114"
                            d="M72.3719 34.2393V38.1913H71.28V35.6033C71.1039 35.7393 70.932 35.8473 70.768 35.9273C70.604 36.0113 70.3959 36.0913 70.1479 36.1673V35.2833C70.5159 35.1633 70.7999 35.0233 71.0039 34.8553C71.2079 34.6873 71.3679 34.4833 71.4799 34.2393H72.3719Z"
                            fill="white" />
                    </g>
                </g>
            </g>
        </g>
    </g>
    <defs>
        <clipPath id="clip0_2390_24763">
            <rect width="200" height="169.796" fill="white" transform="translate(0.5)" />
        </clipPath>
    </defs>
</svg>
