<svg width="20" height="20" viewBox="0 0 20 20" fill="none" xmlns="http://www.w3.org/2000/svg">
    <g id="basil:telegram-outline">
        <path id="Vector" fill-rule="evenodd" clip-rule="evenodd"
            d="M4.82327 11.6832C4.85908 11.6951 4.8959 11.7037 4.93327 11.709C5.16904 12.2645 5.40348 12.8207 5.6366 13.3773C6.05577 14.379 6.47827 15.4107 6.57077 15.7073C6.6866 16.0723 6.80827 16.3207 6.9416 16.4907C7.01077 16.5773 7.08994 16.654 7.18327 16.7123C7.23189 16.7427 7.28391 16.7674 7.33827 16.7857C7.60494 16.8857 7.84827 16.844 8.00077 16.7932C8.09026 16.7626 8.17542 16.7206 8.2541 16.6682L8.25827 16.6665L10.6133 15.1982L13.3341 17.2832C13.3741 17.314 13.4174 17.3398 13.4641 17.3607C13.7908 17.5023 14.1074 17.5523 14.4058 17.5123C14.7024 17.4707 14.9383 17.3465 15.1141 17.2057C15.316 17.0429 15.477 16.8352 15.5841 16.599L15.5916 16.5807L15.5941 16.574L15.5958 16.5707V16.569L15.5966 16.5682C15.6111 16.5323 15.6223 16.4952 15.6299 16.4573L18.1133 3.93649C18.1211 3.89641 18.125 3.85566 18.1249 3.81483C18.1249 3.44816 17.9866 3.09899 17.6624 2.88816C17.3841 2.70733 17.0749 2.69899 16.8791 2.71399C16.6691 2.73066 16.4741 2.78233 16.3433 2.82399C16.27 2.8472 16.1978 2.87334 16.1266 2.90233L16.1174 2.90649L2.1891 8.36983L2.18744 8.37066C2.14031 8.38799 2.09389 8.40717 2.04827 8.42816C1.93782 8.47782 1.83187 8.53692 1.7316 8.60483C1.54244 8.73399 1.1066 9.08899 1.18077 9.67566C1.2391 10.1423 1.5591 10.4298 1.75494 10.5682C1.8616 10.644 1.96327 10.6982 2.03827 10.734C2.0716 10.7507 2.14327 10.779 2.1741 10.7923L2.18244 10.7948L4.82327 11.6832ZM16.6049 4.05649H16.6033C16.5961 4.05968 16.5889 4.06273 16.5816 4.06566L2.6366 9.53649C2.62943 9.53939 2.62221 9.54217 2.61494 9.54483L2.6066 9.54733C2.58113 9.55734 2.55611 9.56846 2.5316 9.58066C2.5548 9.59394 2.57872 9.60591 2.60327 9.61649L5.2216 10.4982C5.26839 10.5139 5.31315 10.5352 5.35494 10.5615L14.0024 5.49899L14.0108 5.49483C14.0444 5.47441 14.0788 5.45551 14.1141 5.43816C14.1741 5.40733 14.2699 5.36233 14.3783 5.32899C14.4533 5.30566 14.6758 5.23983 14.9158 5.31733C15.0431 5.35745 15.1565 5.43257 15.2432 5.53409C15.3298 5.63562 15.3862 5.75947 15.4058 5.89149C15.4368 6.00712 15.4377 6.12877 15.4083 6.24483C15.3499 6.47399 15.1899 6.65233 15.0433 6.78899C14.9183 6.90566 13.2974 8.46899 11.6983 10.0123L9.52077 12.1123L9.13327 12.4873L14.0266 16.239C14.0926 16.2667 14.1644 16.2781 14.2358 16.2723C14.2717 16.2674 14.3056 16.2524 14.3333 16.229C14.3671 16.2005 14.396 16.1667 14.4191 16.129L14.4208 16.1282L16.8291 3.98399C16.7532 4.00224 16.6789 4.0262 16.6066 4.05566L16.6049 4.05649ZM9.5541 14.3848L8.57744 13.6365L8.34077 15.1407L9.5541 14.3848ZM7.6816 12.1515L8.65244 11.214L10.8299 9.11233L11.6408 8.33066L6.20744 11.5115L6.2366 11.5798C6.57927 12.3894 6.91817 13.2005 7.25327 14.0132L7.4891 12.5132C7.51044 12.374 7.5783 12.2471 7.6816 12.1515Z"
            fill="black" />
    </g>
</svg>
