<svg width="199" height="166" viewBox="0 0 199 166" fill="none" xmlns="http://www.w3.org/2000/svg">
    <g clip-path="url(#clip0_1901_24067)">
        <path
            d="M162.216 164.333C150.042 165.268 134.719 164.898 122.771 165.041C105.626 165.102 75.8925 165.009 62.1321 165.11C62.1321 165.11 14.4653 164.939 18.7344 111.689C21.3969 78.4744 48.3485 76.8641 66.8767 49.4062C84.5882 12.0018 162.394 -0.341276 175.607 49.4077C181.24 69.6399 173.503 80.2644 181.609 94.084C198.713 123.245 200.9 158.685 162.216 164.334V164.333Z"
            fill="#E1FAF3" />
        <path
            d="M146.158 157.029C146.158 157.029 175.904 87.2228 191.159 94.322C206.413 101.421 166.038 151.39 153.001 164.176L146.158 157.03V157.029Z"
            fill="#A0EDD9" />
        <path
            d="M191.159 94.322C189.182 96.3955 187.448 98.7759 185.752 101.08C172.178 120.271 160.901 141.035 149.242 161.413C159.439 141.643 170.276 121.96 183.258 103.859C185.708 100.565 188.204 97.1859 191.159 94.322Z"
            fill="#89D6C2" />
        <path
            d="M135.304 152.838C135.304 152.838 160.964 29.0743 186.012 40.4249C194.522 46.3685 191.255 61.845 182.555 81.2589C173.857 100.673 147.127 152.372 143.543 160.378L135.304 152.838Z"
            fill="#B7F7E6" />
        <path
            d="M186.012 40.4249C178.634 50.3759 172.39 61.1857 167.33 72.4892C165.22 77.2388 163.361 82.1521 161.788 87.1038C154.323 110.024 146.508 133.024 138.479 155.744C145.501 134.051 154.603 106.805 161.75 85.0297C162.982 81.3166 164.422 77.6206 165.979 74.0356C171.266 62.0885 177.943 50.7086 186.011 40.4249H186.012Z"
            fill="#9DE3D0" />
        <path
            d="M186.598 87.0309C184.889 85.447 189.183 72.2072 193.982 73.2396C198.781 74.2721 201.222 79.2673 196.314 83.3836C191.676 87.2739 188.307 88.6143 186.598 87.0304V87.0309Z"
            fill="#B7F7E6" />
        <path
            d="M53.1385 148.551C52.8114 148.565 52.7962 148.05 53.1244 148.045C53.8799 148.024 54.6207 147.886 55.3255 147.635C55.4572 147.589 55.602 147.657 55.6486 147.789C55.8435 148.364 53.5517 148.528 53.138 148.551L53.1385 148.551Z"
            fill="#82D9C2" />
        <path
            d="M50.8387 148.255C50.4488 148.175 48.1889 147.366 48.5287 146.864C48.6077 146.749 48.7652 146.719 48.8801 146.798C49.5019 147.225 50.1825 147.548 50.9025 147.76C51.1754 147.831 51.1162 148.257 50.8382 148.255L50.8387 148.255Z"
            fill="#82D9C2" />
        <path
            d="M57.4528 147.015C57.2184 147.031 57.0958 146.702 57.2913 146.562C57.8873 146.103 58.4048 145.555 58.8306 144.935C58.9096 144.82 59.0671 144.79 59.1821 144.869C59.7036 145.144 57.7926 146.936 57.4528 147.015Z"
            fill="#82D9C2" />
        <path
            d="M47.0597 145.667C46.4799 145.417 45.9488 144.059 45.7022 143.465C45.5877 143.158 46.0728 142.984 46.1787 143.295C46.4308 144.002 46.7919 144.663 47.2526 145.26C47.3813 145.416 47.2592 145.668 47.0597 145.667V145.667Z"
            fill="#82D9C2" />
        <path
            d="M60.0423 143.238C59.8742 143.245 59.742 143.075 59.7927 142.914C60.0043 142.196 60.1006 141.448 60.0798 140.693C60.0479 140.357 60.5791 140.325 60.5851 140.664C60.5841 141.143 60.5532 143.148 60.0423 143.238Z"
            fill="#82D9C2" />
        <path
            d="M45.5219 141.354C44.9168 141.375 45.4637 139.109 45.5675 138.73C45.6551 138.414 46.1498 138.558 46.0531 138.872C45.8429 139.588 45.7472 140.333 45.768 141.086C45.7761 141.228 45.6647 141.35 45.5224 141.353L45.5219 141.354Z"
            fill="#82D9C2" />
        <path
            d="M59.9112 138.645C59.8049 138.648 59.7041 138.583 59.6661 138.477C59.4134 137.77 59.0514 137.109 58.5901 136.513C58.5045 136.403 58.5248 136.244 58.6352 136.159C59.1365 135.808 59.9877 137.918 60.1421 138.306C60.2018 138.464 60.0793 138.643 59.9107 138.645H59.9112Z"
            fill="#82D9C2" />
        <path
            d="M46.8111 136.959C46.6126 136.97 46.4764 136.727 46.5959 136.563C46.8359 136.233 48.2132 134.393 48.5965 134.865C48.6821 134.976 48.6619 135.135 48.551 135.22C47.9555 135.681 47.4385 136.228 47.0131 136.849C46.9655 136.919 46.8896 136.957 46.8111 136.959Z"
            fill="#82D9C2" />
        <path
            d="M57.11 135.02C56.4021 134.677 55.7256 134.203 54.9372 134.017C54.803 133.978 54.7266 133.837 54.7655 133.703C54.9458 133.122 56.9019 134.336 57.2462 134.558C57.4488 134.687 57.346 135.023 57.11 135.02Z"
            fill="#82D9C2" />
        <path
            d="M50.4367 134.16C50.1607 134.177 50.0761 133.756 50.3445 133.669C50.7263 133.545 52.9285 132.865 52.9609 133.473C52.9649 133.613 52.855 133.729 52.7153 133.733C51.9294 133.744 51.1729 133.926 50.4361 134.16L50.4367 134.16Z"
            fill="#82D9C2" />
        <path
            d="M53.0531 145.328C46.2288 145.198 47.5828 134.95 54.2425 136.649C58.9876 138.158 58.0159 145.157 53.0531 145.328ZM52.808 136.813C46.1493 137.499 48.7156 147.171 54.8197 144.497C58.6099 142.5 57.0852 136.701 52.808 136.813Z"
            fill="#82D9C2" />
        <path
            d="M49.1541 142.87C50.2483 144.952 52.8227 145.753 54.9048 144.659L50.9425 137.12C48.8609 138.214 48.0598 140.788 49.1541 142.87Z"
            fill="#82D9C2" />
        <path
            d="M48.8629 131.484C48.6168 131.595 47.8552 129.398 47.7484 129.287C47.6121 128.989 48.0831 128.78 48.2112 129.083L49.113 131.129C49.193 131.298 49.0467 131.502 48.8623 131.484H48.8629Z"
            fill="#82D9C2" />
        <path
            d="M47.0588 127.391C46.8127 127.502 46.0511 125.305 45.9443 125.194C45.8081 124.897 46.279 124.687 46.4071 124.99L47.3089 127.036C47.3889 127.205 47.2426 127.409 47.0583 127.391H47.0588Z"
            fill="#82D9C2" />
        <path
            d="M45.2551 123.298C45.009 123.41 44.2474 121.212 44.1406 121.102C44.0044 120.804 44.4753 120.595 44.6034 120.898L45.5052 122.944C45.5852 123.113 45.4389 123.317 45.2546 123.298H45.2551Z"
            fill="#82D9C2" />
        <path
            d="M43.4509 119.206C43.2048 119.317 42.4432 117.119 42.3364 117.009C42.2002 116.711 42.6711 116.502 42.7992 116.805L43.701 118.851C43.781 119.02 43.6347 119.224 43.4504 119.206H43.4509Z"
            fill="#82D9C2" />
        <path
            d="M42.4023 99.9517C40.9728 99.2833 39.1833 99.7035 37.9868 100.76C33.1009 97.1986 28.374 103.326 34.9866 108.724C36.7361 110.145 37.8648 111.026 38.2369 110.941C39.1686 110.45 42.4949 107.719 43.2848 106.255C44.7877 104.153 44.7953 101.117 42.4023 99.9512V99.9517ZM40.9141 108.319C39.7003 109.445 38.485 110.265 38.1195 110.504C37.5245 110.138 34.7208 108.342 33.1769 106.125C36.0839 105.978 35.2418 106.77 36.0834 103.948L36.7062 108.2C36.7295 108.404 37.0293 108.451 37.1138 108.263L38.1924 106.056C39.2522 106.063 38.9944 106.104 39.2355 105.146L39.6628 107.914C39.6912 108.142 40.0381 108.157 40.0857 107.932L40.552 106.023L42.9395 105.991C42.3592 106.876 41.6002 107.682 40.9141 108.318V108.319ZM43.8894 103.424C43.8591 104.146 43.5952 104.869 43.2059 105.556C43.0772 105.626 40.077 105.426 40.1722 105.759L39.9236 106.776L39.4871 103.951C39.4583 103.72 39.1074 103.709 39.0633 103.937L38.6876 105.618C38.5291 105.65 37.9341 105.538 37.8622 105.747L37.0318 107.447L36.3614 102.871C36.335 102.645 35.9937 102.624 35.9396 102.844L35.1603 105.666L32.8979 105.697C30.4617 101.902 34.3005 98.2305 37.8475 101.208C37.9306 101.282 38.0556 101.28 38.1372 101.204C40.3348 99.0281 44.1244 100.095 43.8889 103.423L43.8894 103.424Z"
            fill="#82D9C2" />
        <path
            d="M38.3453 114.927C37.9022 114.946 37.882 114.248 38.326 114.243C39.0537 114.222 39.7762 114.121 40.4745 113.941C40.6578 113.894 40.8442 114.005 40.8913 114.188C41.1196 114.862 38.7964 114.873 38.3453 114.927Z"
            fill="#82D9C2" />
        <path
            d="M36.1076 114.74C35.6858 114.652 33.2851 114.189 33.6452 113.577C33.7226 113.404 33.9252 113.327 34.0974 113.404C34.7587 113.7 35.4539 113.922 36.1643 114.062C36.5578 114.13 36.5021 114.741 36.1076 114.74Z"
            fill="#82D9C2" />
        <path
            d="M42.6675 113.814C42.3192 113.837 42.1779 113.322 42.5004 113.168C43.1425 112.836 43.7491 112.43 44.3031 111.962C44.4474 111.84 44.6636 111.858 44.7856 112.003C44.9077 112.147 44.8894 112.363 44.7451 112.485C44.1066 112.99 43.4316 113.534 42.668 113.814H42.6675Z"
            fill="#82D9C2" />
        <path
            d="M32.0324 112.916C31.2714 112.604 30.6972 111.843 30.1295 111.253C30.0075 111.108 30.0257 110.892 30.1701 110.77C30.3144 110.648 30.5306 110.666 30.6526 110.81C31.1205 111.363 31.6512 111.864 32.2294 112.3C32.4892 112.482 32.3439 112.919 32.0324 112.916Z"
            fill="#82D9C2" />
        <path
            d="M46.0764 110.934C45.801 110.95 45.6176 110.604 45.7939 110.386C46.2309 109.806 46.6025 109.178 46.8982 108.518C47.0739 108.111 47.7109 108.396 47.5226 108.799C47.2446 109.318 46.6208 110.778 46.0759 110.934H46.0764Z"
            fill="#82D9C2" />
        <path
            d="M29.1513 109.508C28.6217 109.496 28.1715 107.632 28.0085 107.154C27.892 106.726 28.567 106.551 28.6713 106.983C28.8515 107.684 29.1123 108.365 29.4455 109.008C29.5645 109.225 29.3964 109.507 29.1513 109.508Z"
            fill="#82D9C2" />
        <path
            d="M47.9034 106.861C47.6872 106.869 47.513 106.664 47.5581 106.452C47.6983 105.745 47.7591 105.018 47.7393 104.291C47.6933 103.835 48.4138 103.79 48.4229 104.248C48.3991 104.716 48.4994 106.886 47.9034 106.861V106.861Z"
            fill="#82D9C2" />
        <path
            d="M28.0363 105.187C27.8428 105.192 27.6833 105.036 27.6843 104.843C27.7137 104.389 27.5917 102.085 28.2783 102.271C28.4636 102.307 28.5846 102.488 28.5482 102.673C28.4094 103.376 28.3492 104.1 28.3689 104.824C28.3806 105.016 28.2297 105.182 28.0368 105.187H28.0363Z"
            fill="#82D9C2" />
        <path
            d="M47.7742 102.377C47.6183 102.381 47.4745 102.278 47.434 102.121C47.2527 101.42 46.9914 100.739 46.6572 100.096C46.4471 99.7055 47.0658 99.3825 47.2648 99.7805C47.4304 100.194 48.631 102.363 47.7742 102.377Z"
            fill="#82D9C2" />
        <path
            d="M28.9017 100.808C27.8955 100.751 29.527 98.7136 29.7605 98.3252C30.0217 97.9672 30.5803 98.3855 30.3073 98.7369C29.8714 99.3167 29.5002 99.9456 29.205 100.605C29.1493 100.729 29.0293 100.804 28.9017 100.808Z"
            fill="#82D9C2" />
        <path
            d="M45.719 98.4163C45.6187 98.4189 45.5179 98.3779 45.448 98.2953C44.9797 97.7429 44.4485 97.2421 43.8692 96.8071C43.7183 96.6937 43.6874 96.479 43.8014 96.3276C44.1953 95.7321 45.644 97.5353 45.9701 97.8523C46.1585 98.0604 45.9954 98.4169 45.7184 98.4158L45.719 98.4163Z"
            fill="#82D9C2" />
        <path
            d="M31.5849 97.2401C31.2755 97.2603 31.1049 96.833 31.354 96.6365C31.7302 96.3757 33.4488 94.8379 33.7435 95.4891C33.8306 95.6572 33.7653 95.8638 33.5972 95.9504C32.9556 96.2831 32.3495 96.6897 31.796 97.1586C31.7343 97.2107 31.6593 97.2375 31.5844 97.2396L31.5849 97.2401Z"
            fill="#82D9C2" />
        <path
            d="M42.1491 95.7357C41.4204 95.4992 40.7019 95.1711 39.9328 95.0501C39.4963 94.9711 39.6299 94.286 40.0649 94.3781C40.826 94.528 41.5713 94.764 42.2797 95.081C42.6099 95.2157 42.4995 95.7392 42.1491 95.7357Z"
            fill="#82D9C2" />
        <path
            d="M35.5466 95.1868C35.1541 95.2086 35.0625 94.603 35.4519 94.5133C35.8894 94.4429 38.1325 93.8085 38.1032 94.5204C38.1087 94.7093 37.9599 94.8673 37.771 94.8728C37.016 94.8865 36.2732 95.0192 35.5466 95.1873V95.1868Z"
            fill="#82D9C2" />
        <path
            d="M68.5229 140.931L66.2873 140.993C65.9602 141.007 65.945 140.492 66.2736 140.487L68.5092 140.426C68.8363 140.412 68.8515 140.927 68.5229 140.931Z"
            fill="#82D9C2" />
        <path
            d="M64.0517 141.055L61.8161 141.116C61.489 141.13 61.4738 140.615 61.8024 140.61L64.038 140.549C64.3651 140.535 64.3803 141.05 64.0517 141.055Z"
            fill="#82D9C2" />
        <path
            d="M172.298 75.705C171.882 75.7562 171.81 75.1009 172.228 75.0614C172.912 74.987 173.586 74.8366 174.23 74.6148C174.4 74.5566 174.584 74.6462 174.642 74.8154C174.9 75.4392 172.725 75.6174 172.299 75.705H172.298Z"
            fill="#82D9C2" />
        <path
            d="M170.175 75.699C169.767 75.6448 167.48 75.3977 167.766 74.789C167.826 74.6204 168.011 74.5323 168.179 74.5921C168.825 74.8209 169.497 74.9774 170.177 75.0559C170.553 75.0893 170.547 75.6696 170.175 75.6995V75.699Z"
            fill="#82D9C2" />
        <path
            d="M176.288 74.3288C175.961 74.3764 175.789 73.9014 176.081 73.7323C176.661 73.3707 177.202 72.9418 177.688 72.4588C177.982 72.159 178.447 72.6264 178.145 72.918C177.581 73.4426 176.986 74.0062 176.288 74.3288Z"
            fill="#82D9C2" />
        <path
            d="M166.196 74.2888C165.455 74.0523 164.856 73.3783 164.276 72.8654C164.15 72.7383 164.151 72.5337 164.278 72.4076C164.404 72.2815 164.61 72.2821 164.736 72.4092C165.219 72.8948 165.756 73.3272 166.335 73.6938C166.594 73.8452 166.49 74.2685 166.196 74.2888H166.196Z"
            fill="#82D9C2" />
        <path
            d="M179.282 71.3554C179.024 71.3913 178.825 71.0794 178.974 70.8602C179.342 70.2809 179.645 69.6606 179.874 69.0165C180.008 68.6195 180.63 68.8393 180.484 69.2332C180.261 69.7442 179.784 71.167 179.282 71.3554Z"
            fill="#82D9C2" />
        <path
            d="M163.222 71.2956C162.721 71.324 162.156 69.6014 161.966 69.1634C161.824 68.7689 162.446 68.5527 162.578 68.9522C162.801 69.5993 163.099 70.2217 163.462 70.8025C163.59 70.9974 163.453 71.2759 163.222 71.2956H163.222Z"
            fill="#82D9C2" />
        <path
            d="M180.695 67.3774C180.492 67.4017 180.312 67.222 180.339 67.0184C180.417 66.3414 180.42 65.6512 180.345 64.9671C180.267 64.5408 180.944 64.4436 180.986 64.876C180.998 65.3292 181.262 67.3425 180.695 67.3774Z"
            fill="#82D9C2" />
        <path
            d="M161.843 67.307C161.663 67.3268 161.501 67.1936 161.485 67.0133C161.478 66.5799 161.188 64.4172 161.849 64.5403C162.027 64.5605 162.154 64.721 162.134 64.8988C162.056 65.5722 162.054 66.2589 162.128 66.9394C162.154 67.1202 162.025 67.2873 161.843 67.3065V67.307Z"
            fill="#82D9C2" />
        <path
            d="M180.233 63.1615C180.087 63.1772 179.943 63.0906 179.893 62.9458C179.669 62.2991 179.371 61.6768 179.007 61.0965C178.78 60.7446 179.338 60.3932 179.556 60.7532C179.743 61.1305 181.04 63.084 180.233 63.162V63.1615Z"
            fill="#82D9C2" />
        <path
            d="M162.326 63.1144C161.373 63.1367 162.757 61.093 162.947 60.7092C163.166 60.3517 163.724 60.7036 163.494 61.0555C163.127 61.6348 162.825 62.2556 162.597 62.9002C162.554 63.0212 162.446 63.1012 162.326 63.1139V63.1144Z"
            fill="#82D9C2" />
        <path
            d="M177.996 59.584C177.901 59.5942 177.803 59.5633 177.731 59.4909C177.248 59.0058 176.71 58.5738 176.131 58.2077C175.98 58.112 175.935 57.912 176.03 57.7611C176.357 57.1697 177.859 58.7597 178.191 59.0336C178.384 59.2154 178.257 59.5643 177.996 59.584H177.996Z"
            fill="#82D9C2" />
        <path
            d="M164.585 59.5481C164.295 59.5906 164.101 59.2007 164.321 58.9972C164.656 58.7227 166.16 57.1429 166.487 57.7348C166.581 57.8862 166.535 58.0862 166.384 58.1809C165.804 58.5435 165.264 58.9723 164.778 59.4559C164.724 59.5101 164.656 59.5405 164.585 59.5481Z"
            fill="#82D9C2" />
        <path
            d="M174.427 57.3282C173.723 57.1606 173.02 56.9059 172.287 56.8502C171.869 56.8087 171.943 56.1529 172.36 56.2071C173.089 56.2901 173.809 56.4567 174.501 56.7013C174.822 56.8031 174.758 57.3049 174.427 57.3282Z"
            fill="#82D9C2" />
        <path
            d="M168.163 57.312C167.795 57.3626 167.662 56.7985 168.022 56.6841C168.43 56.5843 170.496 55.8162 170.522 56.4896C170.542 56.6674 170.413 56.8274 170.236 56.8466C169.525 56.917 168.835 57.0983 168.163 57.312H168.163Z"
            fill="#82D9C2" />
        <path
            d="M169.99 67.7714L166.897 65.3307C164.384 63.2744 167.373 59.4848 169.958 61.4515L173.051 63.8921C173.149 63.9696 173.166 64.1114 173.089 64.2091L170.307 67.7339C170.23 67.8316 170.088 67.8483 169.99 67.7714H169.99ZM169.678 61.8059C167.565 60.1993 165.123 63.2951 167.176 64.9763L170.092 67.2772L172.594 64.1068L169.678 61.8059Z"
            fill="#82D9C2" />
        <path
            d="M172.947 63.8081C174.533 65.3008 178.846 67.2098 176.758 69.9624C174.57 72.634 171.7 68.8778 169.886 67.6858L172.947 63.8081Z"
            fill="#82D9C2" />
        <path
            d="M159.362 41.3024C159.474 41.2517 159.608 41.2948 159.669 41.4041L160.696 43.2524C160.851 43.5207 160.425 43.7587 160.278 43.4848L159.251 41.6366C159.182 41.5155 159.234 41.3591 159.361 41.3024H159.362Z"
            fill="#82D9C2" />
        <path
            d="M161.416 44.9988C161.528 44.9482 161.663 44.9912 161.723 45.1006L162.751 46.9488C162.905 47.2172 162.479 47.4552 162.332 47.1812L161.305 45.333C161.237 45.212 161.289 45.0555 161.415 44.9988H161.416Z"
            fill="#82D9C2" />
        <path
            d="M163.471 48.6952C163.583 48.6446 163.717 48.6876 163.778 48.797L164.805 50.6452C164.96 50.9136 164.534 51.1516 164.387 50.8777L163.36 49.0294C163.291 48.9084 163.344 48.7519 163.47 48.6952H163.471Z"
            fill="#82D9C2" />
        <path
            d="M165.525 52.3917C165.637 52.341 165.772 52.3841 165.832 52.4935L166.86 54.3417C167.014 54.61 166.588 54.848 166.442 54.5741L165.414 52.7259C165.346 52.6049 165.398 52.4484 165.525 52.3917H165.525Z"
            fill="#82D9C2" />
        <path
            d="M147.744 38.5564C147.528 38.3336 147.882 37.9994 148.092 38.2288C148.582 38.7493 149.144 39.1863 149.765 39.5266C149.88 39.5904 149.923 39.7357 149.86 39.8511C149.558 40.3438 148.031 38.8399 147.744 38.5559L147.744 38.5564Z"
            fill="#82D9C2" />
        <path
            d="M146.508 36.7451C146.319 36.4195 145.472 34.3136 146.04 34.2386C146.171 34.2219 146.291 34.3151 146.308 34.4457C146.397 35.1531 146.596 35.8372 146.899 36.4788C147.02 36.7163 146.682 36.9421 146.509 36.7446L146.508 36.7451Z"
            fill="#82D9C2" />
        <path
            d="M151.539 40.6405C151.381 40.4846 151.536 40.1914 151.758 40.2415C152.457 40.3737 153.169 40.396 153.875 40.3069C154.006 40.2901 154.126 40.3828 154.143 40.5145C154.289 41.0522 151.798 40.8314 151.54 40.6405H151.539Z"
            fill="#82D9C2" />
        <path
            d="M145.963 32.4487C145.775 31.882 146.401 30.6536 146.666 30.1057C146.811 29.8323 147.239 30.0652 147.085 30.3356C146.744 30.9579 146.504 31.6284 146.371 32.3292C146.342 32.518 146.087 32.5899 145.962 32.4487H145.963Z"
            fill="#82D9C2" />
        <path
            d="M155.836 40.0967C155.725 39.9823 155.762 39.7823 155.908 39.7164C156.549 39.4146 157.137 39.0136 157.658 38.5239C157.875 38.2905 158.232 38.646 157.996 38.8627C157.658 39.162 156.221 40.401 155.836 40.0967Z"
            fill="#82D9C2" />
        <path
            d="M148.044 28.6519C147.659 28.2251 149.586 27.2078 149.927 27.0356C150.205 26.8994 150.415 27.3394 150.132 27.4681C149.494 27.7693 148.907 28.1699 148.388 28.6575C148.293 28.7522 148.137 28.7502 148.044 28.6519Z"
            fill="#82D9C2" />
        <path
            d="M158.999 37.1188C158.931 37.0454 158.913 36.9335 158.964 36.8403C159.305 36.2175 159.544 35.5466 159.676 34.8463C159.729 34.5409 160.208 34.63 160.146 34.9344C160.069 35.2883 159.533 37.612 158.999 37.1188Z"
            fill="#82D9C2" />
        <path
            d="M151.96 26.8022C151.827 26.669 151.914 26.4194 152.104 26.4012C152.488 26.3637 154.654 26.1804 154.561 26.748C154.536 26.8776 154.411 26.9632 154.281 26.9389C153.582 26.8073 152.87 26.786 152.164 26.8756C152.085 26.8857 152.01 26.8559 151.96 26.8022H151.96Z"
            fill="#82D9C2" />
        <path
            d="M159.801 32.8623C159.599 32.1463 159.508 31.3706 159.144 30.6966C159.088 30.5771 159.139 30.4348 159.258 30.3781C159.792 30.1563 160.147 32.2734 160.212 32.6684C160.249 32.8922 159.946 33.0304 159.801 32.8623Z"
            fill="#82D9C2" />
        <path
            d="M156.216 27.6058C156.031 27.421 156.275 27.0969 156.505 27.2321C156.842 27.4336 158.686 28.5375 158.288 28.9578C158.191 29.0484 158.04 29.0439 157.949 28.9477C157.448 28.3993 156.844 27.979 156.216 27.6053L156.216 27.6058Z"
            fill="#82D9C2" />
        <path
            d="M152.804 30.3979C152.439 30.0708 152.908 29.491 153.047 29.1654C153.167 28.9153 153.496 28.8074 153.742 28.9385L156.331 30.2531C156.912 30.5447 156.414 31.2111 156.231 31.5919C156.102 31.8461 155.79 31.9478 155.536 31.8187L152.946 30.5042C152.891 30.4764 152.843 30.4399 152.804 30.3979H152.804ZM156.159 30.6556C156.07 30.6511 153.479 29.1654 153.431 29.3609L153.104 30.0049C153.083 30.047 153.1 30.0981 153.142 30.1199L155.731 31.4344C155.773 31.4557 155.825 31.439 155.846 31.3969C155.855 31.3316 156.259 30.7103 156.159 30.6561L156.159 30.6556Z"
            fill="#82D9C2" />
        <path
            d="M150.005 38.3599C149.573 37.9082 149.465 37.1846 149.758 36.6281L152.981 30.2799C153.032 30.1756 153.169 30.1305 153.272 30.1852L155.602 31.3686C155.709 31.4227 155.751 31.5524 155.697 31.6587L152.474 38.007C152.022 38.9392 150.699 39.1235 150.006 38.3604L150.005 38.3599ZM153.268 30.6678L150.143 36.8236C149.866 37.3411 150.093 38.0358 150.622 38.2905C151.158 38.563 151.816 38.3483 152.089 37.8115L155.214 31.6557L153.268 30.6678Z"
            fill="#82D9C2" />
        <path
            d="M150.825 37.8905C150.419 37.6844 150.257 37.1877 150.463 36.7816L152.453 32.8633L153.924 33.6102L151.934 37.5284C151.728 37.9346 151.232 38.0966 150.825 37.8905Z"
            fill="#82D9C2" />
        <path
            d="M129.012 159.88C129.012 159.88 122.222 150.553 110.612 144.495C99.0012 138.437 93.934 133.476 83.2559 125.181C72.5777 116.885 69.097 116.34 64.7347 119.848C60.3724 123.357 66.3783 134.777 74.2553 139.278C82.1323 143.778 94.0272 146.966 106.155 151.318C118.282 155.67 129.045 161.743 129.045 161.743L129.013 159.88L129.012 159.88Z"
            fill="#B7F7E6" />
        <path
            d="M64.7347 119.848C69.8065 126.122 76.1269 131.383 83.0356 135.529C98.4311 144.089 115.584 150.066 129.045 161.742C119.741 152.722 107.787 147.128 96.3342 141.366C84.6342 136.124 73.2411 129.63 64.7347 119.848Z"
            fill="#9DE3D0" />
        <path
            d="M64.5337 80.4866C64.5337 80.4866 56.0724 83.7537 65.2953 99.5805C74.5181 115.408 90.2407 138.158 124.164 147.675L127.489 149.188C127.489 149.188 110.281 128.591 100.554 115.794C90.8265 102.996 80.4481 73.3049 64.5332 80.4861L64.5337 80.4866Z"
            fill="#A0EDD9" />
        <path
            d="M63.3782 81.1484C64.4577 81.6756 65.4558 82.5004 66.3743 83.2681C77.9492 93.5938 85.5852 107.374 95.4744 119.173C104.748 130.551 115.645 140.538 127.489 149.188C118.14 142.904 109.427 135.602 101.691 127.396C94.5953 119.918 88.4608 111.601 82.5455 103.179C77.7325 96.436 72.7681 89.6654 66.8194 83.8722C65.756 82.8939 64.6491 81.8523 63.3782 81.1489V81.1484Z"
            fill="#89D6C2" />
        <path
            d="M62.5002 116.41C61.0505 117.637 50.7577 112.859 52.0656 109.077C53.3735 105.294 57.6564 103.811 60.5046 108.188C63.1964 112.324 63.9499 115.183 62.5002 116.41Z"
            fill="#B7F7E6" />
        <path
            d="M145.594 96.7616C144.366 90.5835 148.378 84.5795 154.556 83.3506C160.734 82.1222 166.738 86.1341 167.967 92.3122C168.016 92.5588 168.055 92.8054 168.088 93.051L180.308 140.597C181.1 144.582 178.512 148.456 174.526 149.249C170.541 150.041 166.667 147.453 165.874 143.467L146.504 99.4909C146.095 98.6417 145.786 97.7282 145.594 96.7616Z"
            fill="#9E5959" />
        <path
            d="M165.393 85.4474C165.393 85.4474 168.186 87.722 171.17 99.8792C174.153 112.036 181.135 132.279 181.744 138.512C182.353 144.744 179.461 151.029 174.083 151.304C168.705 151.578 162.719 144.707 157.503 133.122C152.287 121.536 143.142 99.3774 143.376 93.173C143.609 86.968 152.167 75.9081 165.392 85.4479L165.393 85.4474Z"
            fill="white" />
        <path
            d="M169.253 134.376C164.646 134.136 167.423 128.605 166.861 118.97C166.372 110.578 163.336 96.5423 163.336 96.5423L148.843 111.359C148.784 111.531 148.73 111.704 148.677 111.876C151.534 119.43 154.979 127.514 157.503 133.121C159.942 138.538 162.549 142.924 165.184 146.031C165.291 146.037 165.398 146.042 165.507 146.045C168.993 140.97 172.112 134.526 169.253 134.376Z"
            fill="#D4E8FC" />
        <path
            d="M108.138 95.7377C108.879 89.4826 104.409 83.8114 98.153 83.0706C91.8979 82.3303 86.2267 86.8004 85.4859 93.056C85.4565 93.3057 85.4357 93.5548 85.4226 93.8024L81.2132 143.591C80.7357 147.627 83.6199 151.286 87.6551 151.763C91.6908 152.241 95.3498 149.357 95.8273 145.321L107.445 98.5303C107.786 97.6518 108.022 96.717 108.138 95.7377H108.138Z"
            fill="#9E5959" />
        <path
            d="M86.9589 87.7873C86.9589 87.7873 83.8134 89.2264 82.8989 101.711C81.9844 114.195 78.4748 135.318 78.9133 141.565C79.3519 147.812 83.2513 153.527 88.6 152.901C93.9487 152.275 98.705 144.503 101.917 132.21C105.129 119.917 110.451 96.5438 109.186 90.465C107.921 84.3861 98.4093 76.177 86.9594 87.7878L86.9589 87.7873Z"
            fill="white" />
        <path
            d="M95.1945 139.318C95.1585 147.735 93.4288 156.953 91.3826 165.072C90.2058 165.074 89.0867 165.075 88.035 165.075C88.035 165.087 88.0335 165.098 88.033 165.11C85.4941 165.113 82.8418 165.097 80.313 165.089C80.0598 159.391 80.0897 152.364 80.2239 146.969C80.7459 138.692 79.202 135.88 84.608 132.562C89.4209 130.13 95.3691 133.873 95.1945 139.318Z"
            fill="#9E5959" />
        <path
            d="M97.8371 142.587C96.3778 149.436 94.0465 158.721 92.6003 165.071C91.0929 165.072 89.4492 165.074 88.035 165.075C88.035 165.086 88.0334 165.098 88.0329 165.109C88.0491 165.112 88.0653 165.114 88.081 165.117C84.9213 165.105 81.7667 165.093 78.6151 165.083C78.9184 153.335 75.0068 130.712 89.3226 129.116C95.5959 129.586 99.0341 137.023 97.8376 142.586L97.8371 142.587Z"
            fill="white" />
        <path d="M91.581 84.7841L91.5795 84.7502C91.582 84.7502 91.583 84.7623 91.581 84.7841Z"
            fill="#D4E8FC" />
        <path
            d="M96.0689 130.099C95.9778 133.262 94.2627 136.097 91.5694 137.797V165.072C90.3485 165.073 84.7811 165.11 84.7811 165.11C84.3228 154.263 84.3725 141.189 84.6813 130.565C85.1816 118.445 89.4665 95.8856 91.581 84.7841L91.5901 84.9795C91.5932 85.058 92.5867 106.358 92.5907 106.456C91.6701 111.355 93.4348 116.668 94.7762 121.681C95.5686 124.641 96.2127 127.496 96.0689 130.099Z"
            fill="#D4E8FC" />
        <path
            d="M152.699 136.908C154.859 130.241 156.307 115.548 156.307 115.548C156.307 115.548 150.207 112.203 125.227 112.203C100.423 112.168 93.9417 115.567 94.0597 115.548C94.0597 115.548 95.5074 130.241 97.6675 136.908C99.8276 143.576 97.0178 148.467 96.3606 152.974C94.1812 164.285 156.196 164.283 154.006 152.973C153.349 148.466 150.539 143.576 152.699 136.908L152.699 136.908Z"
            fill="#9E5959" />
        <path
            d="M110.386 78.6774C104.573 81.3287 94.686 83.2281 92.9953 83.979C91.305 84.7304 83.9025 91.0736 94.9843 117.838C103.1 134.712 118.213 126.516 129.064 128.049C145.347 130.409 150.469 127.608 155.267 117.838C166.348 91.0731 160.244 83.936 158.554 83.185C156.864 82.4336 145.583 81.5287 139.866 78.6774C128.989 74.1196 121.481 74.6964 110.386 78.6774Z"
            fill="#9E5959" />
        <path
            d="M134.296 76.3517C134.376 87.8471 116.386 87.7337 116.41 76.3436C116.57 75.0498 116.759 61.3614 118.325 60.6362C120.843 54.5538 129.973 54.5088 132.52 60.6362C134.091 61.5386 134.177 73.6214 134.296 76.3522V76.3517Z"
            fill="#9E5959" />
        <path
            d="M134.148 72.7925C127.906 78.285 123.144 77.7664 116.67 72.5509C116.8 69.1846 116.918 61.8839 118.325 60.6357C120.843 54.5523 129.973 54.5093 132.52 60.6357C134.02 62.2419 134.027 69.0074 134.148 72.7925Z"
            fill="#914D4D" />
        <path
            d="M155.68 142.439C155.443 149.945 156.558 157.307 157.971 164.644C136.636 165.275 113.047 164.966 91.9167 165.072C93.0322 147.169 94.2936 128.32 91.3162 110.646C90.3075 103.485 85.9249 91.7091 91.5218 85.1745C92.1355 84.5532 92.8677 84.2099 93.6682 83.741C96.358 81.7555 100.126 80.8735 103.437 80.197C107.27 79.2308 111.55 78.0044 115.28 76.8909C116.314 88.8279 134.484 88.4243 135.771 77.0378C137.022 77.4044 138.362 77.7877 139.738 78.168C142.553 78.9457 145.5 79.7098 148.315 80.3276C152.605 81.5095 158.481 80.8922 161.157 85.0626C161.027 103.441 154.786 123.915 155.681 142.439H155.68Z"
            fill="#5274C7" />
        <path
            d="M155.68 142.439C155.443 149.945 156.558 157.307 157.971 164.644C154.203 164.804 147.554 164.908 142.217 164.955C141.094 136.798 142.798 105.426 139.738 78.168C143.152 79.1002 146.592 80.0116 150.067 80.6861C153.858 81.4846 158.899 81.3859 161.157 85.0626C161.027 103.441 154.786 123.915 155.681 142.439H155.68Z"
            fill="#405FAD" />
        <path
            d="M108.807 112.802C108.69 130.462 109.293 148.009 108.08 165.056C102.561 165.062 96.7869 165.068 91.9157 165.072C93.0267 147.07 94.3068 128.551 91.3157 110.647C90.3096 103.416 85.8708 91.5243 91.5896 84.9796C97.0183 80.595 104.357 80.3762 110.745 78.2161C109.271 89.1727 108.88 100.889 108.807 112.802V112.802Z"
            fill="#405FAD" />
        <path
            d="M114.784 77.971C113.298 80.076 112.208 85.9568 112.596 94.2526C112.775 98.0943 112.865 100.972 112.878 103.26C112.879 103.386 112.88 103.51 112.88 103.633C112.88 103.898 112.666 104.112 112.4 104.113C112.136 104.113 111.921 103.899 111.921 103.634C111.921 103.499 111.92 103.361 111.919 103.221C111.906 100.955 111.815 98.1019 111.637 94.2971C111.46 90.4923 111.131 81.4036 114.069 77.3234C114.091 77.292 114.114 77.2611 114.136 77.2307C114.852 77.0196 115.279 76.8914 115.279 76.8914C115.281 76.9168 115.282 76.9421 115.283 76.9674C115.289 77.0788 115.297 77.1892 115.308 77.2991C115.134 77.5011 114.958 77.7244 114.784 77.971Z"
            fill="#405FAD" />
        <path
            d="M116.483 127.698C116.054 127.71 115.831 127.129 116.172 126.854C121.721 121.98 120.392 105.728 112.355 104.116C108.659 104.729 105.706 108.958 104.89 113.601C103.653 119.005 105.765 124.37 107.95 126.897C108.127 127.093 108.113 127.396 107.917 127.574C107.721 127.752 107.418 127.737 107.24 127.542C102.078 122.217 102.479 109.155 108.833 104.672C112.226 102.573 112.717 102.624 116.115 105.07C122.064 109.92 121.795 124.016 116.483 127.699L116.483 127.698Z"
            fill="#405FAD" />
        <path
            d="M143.145 132.275C142.957 137.726 142.236 141.58 142.229 141.618C142.183 141.871 141.934 142.035 141.688 141.986C141.438 141.939 141.273 141.697 141.32 141.446C141.327 141.408 142.037 137.61 142.221 132.225C142.391 127.267 142.136 119.909 139.963 113.015C138.612 108.726 138.333 106.263 138.923 93.6373C139.156 84.8737 138.124 80.1519 135.76 77.4165C135.767 77.2915 135.77 77.1659 135.77 77.0383C135.929 77.0859 136.285 77.1902 136.948 77.3821C138.14 78.8577 138.775 81.8563 139.33 84.1506C139.947 86.7888 140.019 90.0087 139.847 93.6799C139.264 106.157 139.533 108.573 140.845 112.737C143.059 119.763 143.317 127.239 143.144 132.275H143.145Z"
            fill="#405FAD" />
        <path
            d="M108.906 78.5376C106.733 88.7114 107.073 101.958 106.982 112.967C106.748 130.028 106.324 147.794 105.813 165.059C99.2904 165.066 93.9513 165.07 88.0345 165.076C88.6968 152.756 89.3647 139.554 89.3217 126.983C89.5556 103.398 75.1137 82.9222 108.906 78.5381V78.5376Z"
            fill="white" />
        <path
            d="M162.216 164.333C156.735 164.893 151.545 164.786 144.476 164.932C142.853 139.075 144.96 102.095 141.387 78.5366C141.387 78.5366 144.734 78.365 152.357 80.1058C159.015 81.6598 160.96 82.7683 161.797 83.3182C165.711 93.2667 161.152 116.257 161.063 123.974C160.696 136.134 161.581 151.69 162.217 164.333L162.216 164.333Z"
            fill="white" />
        <path
            d="M162.216 164.333C159.251 164.737 152.704 164.817 144.476 164.932C144.41 162.735 144.346 160.53 144.284 158.334C149.662 157.22 156.386 155.825 161.722 154.719C161.871 157.912 162.035 161.135 162.217 164.333H162.216Z"
            fill="#D4E8FC" />
        <path
            d="M125.415 88.1798C120.582 88.1798 116.072 85.4084 113.861 81.0542C113.77 80.875 113.842 80.6557 114.021 80.5651C114.2 80.474 114.419 80.5454 114.51 80.7251C116.64 84.9213 121.03 87.5615 125.7 87.4491C130.234 87.3402 134.314 84.7294 136.348 80.635C136.438 80.4547 136.656 80.3813 136.836 80.4709C137.016 80.5605 137.089 80.7788 137 80.9585C134.845 85.2955 130.522 88.0613 125.717 88.1762C125.616 88.1788 125.515 88.1798 125.414 88.1798H125.415Z"
            fill="#405FAD" />
        <path
            d="M141.747 112.264C140.435 108.101 140.165 105.685 140.749 93.2074C140.92 89.5363 140.694 86.3376 140.077 83.7C139.576 81.5631 138.818 79.7817 137.824 78.406C136.446 76.4995 134.897 75.859 134.272 75.6681L134.291 76.6504C134.918 76.9132 136.107 77.5781 137.134 79.0313C138.568 81.0613 140.199 85.1618 139.825 93.1649C139.235 105.79 139.513 108.254 140.865 112.543C143.038 119.437 143.292 126.795 143.123 131.753C142.939 137.138 142.229 140.936 142.222 140.974C142.174 141.225 142.339 141.467 142.59 141.514C142.619 141.52 142.648 141.522 142.676 141.522C142.894 141.522 143.088 141.368 143.131 141.146C143.138 141.108 143.859 137.254 144.047 131.803C144.22 126.768 143.962 119.291 141.747 112.265V112.264Z"
            fill="#323C7A" />
        <path
            d="M142.676 141.522C142.648 141.522 142.619 141.52 142.59 141.514C142.339 141.467 142.174 141.225 142.222 140.973C142.234 140.909 143.438 134.434 143.109 126.325C143.098 126.07 143.297 125.855 143.552 125.844C143.806 125.833 144.023 126.032 144.033 126.288C144.368 134.508 143.144 141.081 143.131 141.146C143.089 141.368 142.895 141.522 142.677 141.522H142.676Z"
            fill="#323C7A" />
        <path
            d="M144.669 141.503C144.362 143.961 142.333 146.04 142.333 146.04C142.333 146.04 141.472 146.049 141.343 146.033C139.842 145.845 138.899 143.512 139.236 140.823C139.573 138.133 141.063 136.105 142.562 136.293C142.604 136.298 143.297 136.287 143.297 136.287C143.297 136.287 144.997 138.888 144.669 141.503L144.669 141.503Z"
            fill="#293263" />
        <path
            d="M145.454 141.502C145.791 138.812 144.848 136.479 143.348 136.292C141.848 136.104 140.359 138.132 140.022 140.821C139.685 143.511 140.628 145.844 142.128 146.032C143.628 146.22 145.117 144.192 145.454 141.502Z"
            fill="#323C7A" />
        <path
            d="M125.345 25.1712C125.345 25.1712 145.147 23.8546 142.405 48.32C139.662 72.7853 127.046 73.992 125.345 74.1019C123.645 73.992 111.028 72.7853 108.285 48.32C105.542 23.8546 125.345 25.1712 125.345 25.1712Z"
            fill="#9E5959" />
        <path
            d="M140.068 50.9176C140.068 50.9176 141.677 48.1281 143.853 48.8253C145.719 49.4233 145.024 56.4618 141.752 59.6878C138.299 63.0936 138.464 54.9356 140.068 50.9176Z"
            fill="#9E5959" />
        <path
            d="M143.339 51.3126C143.286 51.1364 143.099 51.0361 142.924 51.0893C140.934 51.6883 140.619 56.4324 140.59 56.9712C140.58 57.155 140.72 57.3119 140.904 57.3221C140.91 57.3221 140.916 57.3221 140.923 57.3221C141.099 57.3221 141.245 57.1843 141.256 57.0066C141.28 56.5519 141.335 56.0243 141.42 55.4814C141.71 55.0369 142.281 54.3431 142.687 54.2363C142.865 54.1892 142.971 54.0069 142.924 53.8292C142.877 53.6515 142.695 53.5446 142.517 53.5917C142.235 53.6656 141.955 53.8641 141.706 54.096C142.014 52.9223 142.481 51.9182 143.116 51.7268C143.292 51.6736 143.392 51.4878 143.339 51.3116V51.3126Z"
            fill="#723333" />
        <path
            d="M111.033 50.9176C111.033 50.9176 109.423 48.1281 107.248 48.8253C105.382 49.4233 106.077 56.4618 109.349 59.6878C112.802 63.0936 112.637 54.9356 111.033 50.9176Z"
            fill="#9E5959" />
        <path
            d="M110.313 57.4142C110.284 56.8755 109.969 52.1314 107.979 51.5323C107.803 51.4792 107.617 51.5789 107.564 51.7556C107.511 51.9318 107.61 52.1177 107.787 52.1709C108.423 52.3623 108.888 53.3664 109.197 54.5401C108.948 54.3077 108.668 54.1097 108.386 54.0358C108.208 53.9887 108.025 54.0955 107.979 54.2733C107.932 54.4515 108.038 54.6338 108.216 54.6804C108.622 54.7872 109.193 55.4809 109.482 55.9255C109.568 56.4683 109.622 56.996 109.647 57.4507C109.657 57.6284 109.804 57.7661 109.98 57.7661C109.986 57.7661 109.992 57.7661 109.998 57.7661C110.182 57.756 110.323 57.599 110.313 57.4152V57.4142Z"
            fill="#723333" />
        <path
            d="M110.463 52.4874C110.463 52.4874 111.33 56.3306 111.793 59.5065C112.256 62.6824 111.766 63.7043 112.265 64.994C112.765 66.2837 116.059 74.6143 125.186 74.6143C134.313 74.6143 137.695 67.0898 138.42 64.994C138.872 63.6871 138.454 62.647 138.917 59.4711C139.379 56.2952 139.963 52.972 139.963 52.972L138.646 52.8788C138.646 52.8788 137.194 57.8274 135.064 59.7066C132.934 61.5857 128.863 60.02 124.666 60.02C120.469 60.02 116.937 61.1583 114.394 58.8766C112.172 56.9803 111.96 53.7376 111.69 52.8494L110.463 52.4874Z"
            fill="#142347" />
        <path
            d="M124.828 61.4074C121.481 61.4074 118.768 62.7893 118.768 64.4942C118.768 65.5707 119.851 66.5176 121.49 67.0701C121.725 67.149 121.979 67.1551 122.218 67.0908C124.03 66.6032 123.99 64.8248 123.99 64.8248H125.666C125.666 64.8248 125.626 66.6027 127.437 67.0908C127.676 67.1551 127.931 67.149 128.166 67.0701C129.805 66.5176 130.888 65.5707 130.888 64.4942C130.888 62.7893 128.175 61.4074 124.828 61.4074H124.828Z"
            fill="#9E5959" />
        <path
            d="M130.761 52.6185C131.566 52.6185 132.219 51.8407 132.219 50.8812C132.219 49.9217 131.566 49.1439 130.761 49.1439C129.956 49.1439 129.303 49.9217 129.303 50.8812C129.303 51.8407 129.956 52.6185 130.761 52.6185Z"
            fill="#121D3F" />
        <path
            d="M119.328 52.6185C120.133 52.6185 120.786 51.8407 120.786 50.8812C120.786 49.9217 120.133 49.1439 119.328 49.1439C118.523 49.1439 117.87 49.9217 117.87 50.8812C117.87 51.8407 118.523 52.6185 119.328 52.6185Z"
            fill="#121D3F" />
        <path
            d="M122.142 46.4556C122.142 46.4556 122.889 46.4743 122.911 47.0111C122.936 47.6065 122.997 47.8972 122.641 48.0106C122.285 48.1241 118.888 47.7686 117.037 47.6982C115.165 47.6268 114.34 47.7043 114.232 47.5078C114.124 47.3113 115.772 46.4176 117.666 46.3918C119.873 46.3614 119.823 46.3482 122.142 46.4561V46.4556Z"
            fill="#142347" />
        <path
            d="M127.491 46.3984C127.491 46.3984 126.744 46.4049 126.713 46.9417C126.678 47.5367 126.613 47.8263 126.966 47.9453C127.32 48.0643 130.723 47.7635 132.574 47.723C134.448 47.682 135.271 47.7726 135.382 47.5777C135.494 47.3832 133.86 46.4627 131.967 46.4065C129.761 46.3406 129.811 46.328 127.49 46.3984H127.491Z"
            fill="#142347" />
        <path
            d="M114.522 55.6982C114.522 55.6982 115.102 54.2454 118.233 54.289C120.779 54.3244 122.693 54.7386 122.671 56.5215C122.839 58.8336 113.179 59.2756 114.522 55.6987L114.522 55.6982Z"
            fill="#914D4D" />
        <path
            d="M127.384 55.6982C127.384 55.6982 127.964 54.2454 131.095 54.289C133.641 54.3244 135.555 54.7386 135.533 56.5215C135.701 58.8336 126.041 59.2756 127.384 55.6987L127.384 55.6982Z"
            fill="#914D4D" />
        <path
            d="M126.161 58.5885C126.139 58.3338 125.909 58.1449 125.658 58.1672C125.045 58.2209 123.895 58.2234 123.419 57.9996C123.407 57.994 123.398 57.9895 123.391 57.9854C123.396 57.872 123.483 57.6036 123.56 57.3641C123.598 57.2471 123.639 57.12 123.682 56.9808C123.77 56.6932 123.853 56.4142 123.933 56.1448C125.104 52.1607 125.328 50.1525 125.338 50.0634C125.364 49.8087 125.181 49.5803 124.926 49.553C124.673 49.5256 124.443 49.71 124.415 49.9641C124.413 49.9864 124.167 52.1724 122.881 56.4284C122.853 56.521 122.825 56.6147 122.795 56.7089C122.754 56.8431 122.715 56.9661 122.678 57.079C122.458 57.7606 122.23 58.466 123.026 58.8391C123.523 59.0726 124.294 59.1252 124.89 59.1252C125.322 59.1252 125.662 59.0979 125.741 59.0903C125.996 59.068 126.184 58.8427 126.161 58.5875L126.161 58.5885Z"
            fill="#723333" />
        <path
            d="M123.351 63.9382C122.22 63.8273 121.424 63.6081 121.355 63.5888C121.163 63.5346 121.052 63.3356 121.105 63.1442C121.159 62.9528 121.358 62.8409 121.55 62.8946C121.584 62.9042 124.99 63.8369 127.731 62.7493C127.915 62.6759 128.126 62.7665 128.199 62.9513C128.272 63.1366 128.181 63.3458 127.996 63.4192C126.405 64.0506 124.655 64.0658 123.35 63.9377L123.351 63.9382Z"
            fill="#723333" />
        <path
            d="M107.169 48.8562C107.169 48.8562 106.417 41.1474 108.004 34.8832C106.457 31.1083 112.785 23.8136 123.412 23.1903C131.882 22.8728 135.61 24.8517 136.562 25.4725C137.014 25.6649 137.037 26.9976 137.193 27.3668C137.653 27.0685 138.357 26.3384 138.894 26.9171C144.715 31.3427 143.38 45.3639 143.019 48.7145C143.019 48.7145 141.045 48.5231 139.488 54.6065L138.419 54.1989C138.419 54.1989 140.397 44.4671 138.419 39.2678C135.722 38.7315 135.552 38.9989 135.373 35.7911L134.292 36.6291C133.052 37.9036 131.049 35.028 127.39 35.9481C124.102 36.6995 122.126 38.3908 117.131 38.2029C113.4 38.0778 112.889 38.5163 112.889 38.5163C109.998 41.5793 110.679 49.8123 111.69 52.894L110.462 52.5319C110.159 51.6124 110.221 48.6547 107.168 48.8562H107.169Z"
            fill="#142347" />
        <path
            d="M108.004 34.8832C109.609 36.1491 111.164 37.4231 112.89 38.5163C110.835 38.1472 109.024 36.6767 108.004 34.8832Z"
            fill="#0C1A35" />
        <path
            d="M162.082 161.897C159.461 162.711 154.556 163.739 151.867 164.451C151.856 164.451 150.23 164.856 150.219 164.85C141.336 165.004 131.169 165.03 123.025 165.04C121.475 158.652 114.086 128.407 112.395 121.445C112.132 120.368 112.792 119.282 113.869 119.019C120.511 117.511 142.804 111.884 149.025 110.447C150.077 110.184 151.191 110.836 151.449 111.922C154.894 126.035 159.633 145.491 163.088 159.649C163.31 160.56 162.872 161.477 162.081 161.897H162.082Z"
            fill="#142347" />
        <path
            d="M162.082 161.897C160.261 162.384 152.168 164.372 150.219 164.851C141.334 165.005 131.17 165.03 123.025 165.04C122.509 162.925 121.24 157.723 120.711 155.552L152.566 137.335L153.979 136.528C154.774 136.31 156.442 135.848 157.231 135.632C157.629 137.262 161.547 153.327 161.822 154.458C161.838 154.524 163.073 159.584 163.088 159.65C163.31 160.56 162.872 161.477 162.082 161.897V161.897Z"
            fill="#0F1D40" />
        <path
            d="M158.672 155.774L126.386 163.646L126.379 163.648L122.681 148.484L115.97 120.96L138.606 115.44L148.241 113.09L148.263 113.085L158.672 155.774Z"
            fill="#DEECFA" />
        <path d="M148.263 113.085L138.479 126.623L122.682 148.484L115.97 120.96L148.263 113.085Z"
            fill="#FCFFFF" />
        <path
            d="M120.362 119.889C119.957 122.766 118.965 125.344 117.426 126.932L117.159 125.837C118.277 124.372 119.008 122.355 119.354 120.134L120.362 119.888L120.362 119.889Z"
            fill="#DEECFA" />
        <path
            d="M140.342 115.571L124.656 119.396L124.038 116.862C123.895 116.276 124.254 115.686 124.839 115.543L124.895 115.529L138.405 112.234C138.99 112.092 139.581 112.45 139.724 113.036L140.342 115.571V115.571Z"
            fill="#8EA8AB" />
        <path
            d="M133.054 117.349C132.128 117.574 130.069 118.076 129.162 118.297L124.895 115.529C125.796 115.31 127.87 114.804 128.789 114.58L133.054 117.348V117.349Z"
            fill="#B6CDD1" />
        <path
            d="M137.221 116.332C136.901 116.409 135.492 116.753 135.145 116.838L130.879 114.07C131.235 113.983 132.627 113.644 132.955 113.563L137.221 116.332Z"
            fill="#B6CDD1" />
        <path
            d="M131.38 143.383C131.38 143.383 126.261 140.415 125.176 139.768C124.09 139.121 121.632 139.444 120.889 139.768C120.146 140.093 118.828 142.038 118.828 142.038C118.828 142.038 128.716 144.172 131.38 143.383Z"
            fill="#914D4D" />
        <path
            d="M136.233 143.583C136.233 143.583 131.826 143.435 129.711 143.05C127.596 142.664 123.939 140.932 122.51 140.798C121.081 140.664 115.424 142.842 114.566 143.382C113.709 143.922 114.281 145.748 115.138 145.778C115.138 145.778 114.13 148.607 116.063 149.236C116.063 149.236 115.538 151.975 117.366 152.434C117.366 152.434 117.138 153.795 118.967 154.973C119.541 155.343 120.17 155.631 120.763 155.851L120.736 154.807C120.736 154.807 123.367 154.494 124.281 154.637C125.196 154.779 128.796 155.689 130.968 155.291C133.14 154.893 134.781 154.507 137 154.165C139.219 153.822 136.233 143.582 136.233 143.582L136.233 143.583Z"
            fill="#9E5959" />
        <path
            d="M115.138 145.778C117.344 145.07 121.051 142.622 123.077 143.993C120.377 143.89 117.588 145.366 115.138 145.778Z"
            fill="#723333" />
        <path
            d="M116.062 149.237C118.612 148.624 121.592 146.722 124.108 147.693C121.523 147.936 118.488 148.93 116.062 149.237Z"
            fill="#723333" />
        <path
            d="M117.367 152.435C119.885 151.848 122.865 149.851 125.306 151.094C122.618 151.075 119.85 152.155 117.367 152.435Z"
            fill="#723333" />
        <path
            d="M168.874 135.612C173.126 135.184 176.921 138.285 177.348 142.538C177.776 146.79 174.675 150.584 170.422 151.012C170.422 151.012 161.833 152.111 152.116 152.875C142.399 153.639 131.105 153.713 131.105 153.713C128.766 153.948 126.679 152.243 126.443 149.904C126.208 147.565 127.913 145.479 130.252 145.243C130.252 145.243 138.622 143.045 145.92 140.59C153.217 138.136 162.458 136.136 168.874 135.612H168.874Z"
            fill="#9E5959" />
        <path
            d="M178.628 149.217C178.628 149.217 176.745 152.096 166.383 153.87C156.943 155.486 136.059 156.684 137.369 153.597C137.369 153.597 137.461 146.084 136.472 143.515C136.472 143.515 137.141 141.985 140.945 140.869C144.749 139.753 157.54 135.416 165.223 133.12C168.452 132.155 172.037 132.668 174.881 134.168C178.802 136.236 180.402 144.69 178.628 149.218V149.217Z"
            fill="white" />
        <path
            d="M116.445 75.6549C115.759 75.8949 114.357 76.5724 113.039 78.3958C112.008 79.8218 111.222 81.668 110.703 83.8833C110.063 86.6176 109.829 89.9333 110.007 93.7386C110.196 97.7778 110.286 100.745 110.29 103.076C110.29 103.34 110.505 103.554 110.769 103.554C111.035 103.554 111.249 103.339 111.249 103.074C111.245 100.728 111.154 97.7475 110.965 93.6935C110.577 85.3978 112.268 81.1474 113.755 79.043C114.747 77.6378 115.781 76.9856 116.415 76.6945L116.445 75.6539L116.445 75.6549Z"
            fill="#323C7A" />
        <path
            d="M114.852 127.14C114.423 127.152 114.2 126.571 114.541 126.296C120.09 121.422 118.761 105.17 110.725 103.558C107.028 104.171 104.075 108.4 103.259 113.043C102.022 118.446 104.134 123.812 106.319 126.339C106.496 126.535 106.482 126.838 106.286 127.016C106.09 127.194 105.787 127.179 105.609 126.984C100.447 121.659 100.848 108.597 107.202 104.114C110.595 102.015 111.086 102.066 114.484 104.512C120.433 109.362 120.164 123.458 114.852 127.141L114.852 127.14Z"
            fill="#323C7A" />
        <path
            d="M108.887 128.461C108.488 129.114 107.635 129.319 106.983 128.92C106.33 128.521 105.216 127.112 105.615 126.459C106.014 125.806 107.776 126.157 108.428 126.556C109.081 126.955 109.286 127.808 108.887 128.461Z"
            fill="#323C7A" />
        <path
            d="M111.968 128.461C112.367 129.114 113.219 129.319 113.872 128.92C114.525 128.521 115.639 127.112 115.239 126.459C114.84 125.806 113.079 126.157 112.426 126.556C111.774 126.955 111.569 127.808 111.968 128.461Z"
            fill="#323C7A" />
        <path
            d="M99.2266 64.0831L87.7717 53.609C90.663 48.7358 92.2646 43.2747 92.2211 37.5163C92.0666 17.2284 71.5499 0.937279 46.3954 1.12868C21.2404 1.32009 0.973756 17.9217 1.1282 38.2095C1.28264 58.4974 21.7994 74.7886 46.9539 74.5971C59.7567 74.4999 71.2937 70.1508 79.516 63.2288L99.2266 64.0831Z"
            fill="white" />
        <path
            d="M46.5154 75.7263C41.3576 75.7263 36.2914 75.0478 31.4567 73.7095C30.8566 73.5434 30.5052 72.9226 30.6713 72.3226C30.8374 71.7225 31.4587 71.3711 32.0582 71.5372C36.6965 72.8213 41.5606 73.4725 46.5154 73.4725C46.6587 73.4725 46.802 73.472 46.9453 73.471C49.0077 73.4553 51.0807 73.3252 53.1067 73.0836C53.7249 73.0102 54.2855 73.4512 54.3594 74.0695C54.4328 74.6878 53.9918 75.2483 53.3735 75.3223C51.265 75.5734 49.1084 75.7091 46.963 75.7253C46.8141 75.7263 46.6647 75.7268 46.5159 75.7268L46.5154 75.7263ZM59.2139 74.2827C58.702 74.2827 58.2386 73.9313 58.1171 73.4112C57.9758 72.8051 58.3526 72.199 58.9592 72.0577C66.4863 70.3027 73.3439 66.9521 78.7903 62.367C79.0065 62.1852 79.2835 62.0905 79.5651 62.1032L96.1783 62.8232L87.0116 54.4414C86.6177 54.0809 86.5306 53.4935 86.803 53.0343C89.6513 48.2334 91.0954 43.0898 91.0954 37.7467C91.0954 37.6728 91.0954 37.5988 91.0944 37.5244C91.0676 34.0229 90.4083 30.5685 89.1338 27.2569C88.91 26.6761 89.2001 26.0239 89.7809 25.8001C90.3617 25.5768 91.0139 25.8665 91.2377 26.4472C92.6099 30.0125 93.3199 33.7338 93.3487 37.5077C93.3492 37.5877 93.3497 37.6672 93.3497 37.7462C93.3497 40.636 92.9467 43.5172 92.1512 46.3103C91.46 48.7378 90.469 51.1141 89.2001 53.3867L99.9876 63.2506C100.338 63.5706 100.45 64.075 100.269 64.513C100.087 64.951 99.6529 65.2295 99.1785 65.2087L79.9033 64.3732C74.2427 69.0414 67.1886 72.4532 59.4716 74.2523C59.3856 74.2726 59.2995 74.2822 59.2149 74.2822L59.2139 74.2827ZM23.6344 70.7478C23.4734 70.7478 23.3098 70.7134 23.1549 70.6399C16.2993 67.4093 10.5374 62.7797 6.49206 57.2512C4.43167 54.4359 2.8336 51.4124 1.74138 48.2653C0.612191 45.0125 0.0268372 41.632 0.00101272 38.2181C0.000506361 38.1386 0 38.0591 0 37.9796C0 37.176 0.0313944 36.3633 0.0936769 35.5638C0.141781 34.943 0.684601 34.4792 1.30489 34.5273C1.92569 34.5754 2.38952 35.1177 2.34141 35.7385C2.28369 36.4803 2.25483 37.2343 2.25483 37.9796C2.25483 38.0536 2.25483 38.1275 2.25584 38.2014C2.35053 50.6432 10.7268 62.2921 24.116 68.6013C24.679 68.8667 24.9206 69.5381 24.6552 70.1017C24.4628 70.5098 24.0577 70.7488 23.6349 70.7488L23.6344 70.7478ZM2.29179 30.8202C2.18951 30.8202 2.0852 30.806 1.98139 30.7766C1.38287 30.6055 1.03652 29.9817 1.20717 29.3831C3.16881 22.5189 7.46174 16.2339 13.6216 11.2078C14.1042 10.8144 14.8141 10.8863 15.2076 11.3683C15.601 11.8509 15.5291 12.5608 15.047 12.9542C9.24515 17.6882 5.20945 23.5833 3.3749 30.0024C3.23362 30.4976 2.78195 30.8202 2.29179 30.8202ZM86.0414 20.3962C85.6925 20.3962 85.3482 20.2347 85.128 19.9304C81.2123 14.5295 75.5689 10.033 68.8079 6.92804C68.2423 6.66827 67.9942 5.99886 68.254 5.43326C68.5137 4.86765 69.1831 4.61953 69.7487 4.8793C76.8616 8.14583 82.8103 12.893 86.9534 18.6073C87.319 19.1111 87.2066 19.8159 86.7022 20.1815C86.5022 20.3264 86.2708 20.3962 86.0414 20.3962ZM21.5436 8.41471C21.1421 8.41471 20.7532 8.19951 20.5497 7.82075C20.255 7.27236 20.4605 6.58877 21.0089 6.29458C28.5436 2.24672 37.3188 0.0708906 46.3862 0.00151908C46.5356 0.000506361 46.6845 0 46.8334 0C52.7512 0 58.5156 0.887145 63.9676 2.63662C64.5606 2.82701 64.8867 3.46149 64.6963 4.05443C64.5059 4.64738 63.8714 4.97348 63.2785 4.78309C58.0498 3.10501 52.5168 2.25432 46.8334 2.25432C46.6901 2.25432 46.5468 2.25483 46.4035 2.25584C37.7011 2.32217 29.289 4.40534 22.0763 8.28002C21.9067 8.37117 21.7239 8.41471 21.5436 8.41471Z"
            fill="#AFE6D8" />
        <path
            d="M41.8594 58.4174C39.9125 57.0634 39.479 53.3497 40.8037 51.5076C41.9222 49.5186 46.003 48.7064 47.7899 49.9915C49.7399 51.2068 50.1789 55.2136 48.8386 57.0071C47.6689 59.0498 43.6565 59.8701 41.8599 58.4169L41.8594 58.4174ZM43.499 46.3569C43.0033 46.1285 42.699 45.691 42.5856 45.0454C42.3395 37.5421 42.7162 25.5479 43.1674 18.1394C43.3289 15.8693 44.6161 14.5219 47.0299 14.0976C49.2042 13.7158 50.4149 14.2211 50.6595 15.6146C50.6377 20.0154 50.0002 24.441 49.4655 30.3569C48.9019 35.7288 48.2892 40.4177 47.6269 44.4231C47.5312 46.128 44.9923 47.0384 43.499 46.3574V46.3569Z"
            fill="#A0EDD9" />
    </g>
    <defs>
        <clipPath id="clip0_1901_24067">
            <rect width="199" height="165.118" fill="white" />
        </clipPath>
    </defs>
</svg>
